<svg xmlns="http://www.w3.org/2000/svg" viewBox="0 0 100 99.991">
  <g id="Group_138" data-name="Group 138" transform="translate(-4084 -2421)">
    <g id="Group_137" data-name="Group 137" transform="translate(3904.212 2286.041)">
      <path id="Path_9" data-name="Path 9" d="M272.864,159.586c-1.455,1.56-2.857,3.12-4.207,4.663a44.151,44.151,0,1,1-12.647-14.663c1.543-1.341,3.112-2.629,4.7-3.883a49.887,49.887,0,1,0,12.156,13.883Z"/>
      <path id="Path_10" data-name="Path 10" d="M279.157,144.345q-5.088,4.917-9.86,10.009a208.488,208.488,0,0,0-26.637,34.871c-1.91,3.136-3.714,6.337-5.383,9.608s-2.941,6.738-4.73,9.934a5.832,5.832,0,0,1-5.369,3.135c-2.645-.233-4.251-2.635-5.277-4.835a57.221,57.221,0,0,0-5.078-8.472c-5.959-8.53-13.649-15.555-21.435-22.374l-.061-.053a1.556,1.556,0,0,1-.535-1.182c0-3.243,5.6-.339,6.928.209a55.184,55.184,0,0,1,8.352,4.343,65.683,65.683,0,0,1,14.378,12.4c.964,1.1,1.876,2.261,2.752,3.453q2.064-3.879,4.347-7.616a144.718,144.718,0,0,1,27.414-32.555A124.143,124.143,0,0,1,277.2,141.786a1.62,1.62,0,0,1,1.955,2.559Z"/>
    </g>
  </g>
</svg>
