<svg id="Group_59" data-name="Group 59" xmlns="http://www.w3.org/2000/svg" width="13.448" height="13.435" viewBox="0 0 13.448 13.435">
  <g id="Group_58" data-name="Group 58" transform="translate(0 0)">
    <path id="Path_24" data-name="Path 24" d="M-2519.812,1856.667a1.113,1.113,0,0,1-.364-.287l-.356-.35-.711-.7-.712-.7-.712-.7-.712-.7-.011-.011-.009-.008a.092.092,0,0,0-.12-.007,5.938,5.938,0,0,1-1.065.65,5.694,5.694,0,0,1-2.794.531,5.542,5.542,0,0,1-3.2-1.22,5.538,5.538,0,0,1-1.815-2.559,5.576,5.576,0,0,1-.02-3.514,5.5,5.5,0,0,1,1.056-1.857,5.4,5.4,0,0,1,3.178-1.858,5.569,5.569,0,0,1,5.586,2,5.147,5.147,0,0,1,1.156,2.592,5.392,5.392,0,0,1-1.146,4.3c-.061.078-.126.154-.191.231a.093.093,0,0,0,.006.126l1.416,1.394q.983.968,1.967,1.936a.444.444,0,0,1,.013.645.472.472,0,0,1-.358.093A.44.44,0,0,1-2519.812,1856.667Zm-7.228-3.12h.009a6.548,6.548,0,0,0,.7-.055,4.732,4.732,0,0,0,3.118-1.813,4.514,4.514,0,0,0,.924-3.551,4.418,4.418,0,0,0-1.118-2.389,4.72,4.72,0,0,0-4.589-1.529,4.635,4.635,0,0,0-2.555,1.424,4.635,4.635,0,0,0-.859,5.072A4.738,4.738,0,0,0-2527.04,1853.548Z" transform="translate(2532.68 -1843.26)"/>
  </g>
</svg>
