<svg id="Group_1542" data-name="Group 1542" xmlns="http://www.w3.org/2000/svg" width="11.148" height="12.71" viewBox="0 0 11.148 12.71">
  <path id="Path_3590" data-name="Path 3590" d="M406.388,372.73a1.021,1.021,0,0,1-.966,1.165c-.88.038-1.763.024-2.645.028-.713,0-1.425.009-2.138,0a1.049,1.049,0,0,0-.683.224c-.585.435-1.18.856-1.83,1.325,0-.462-.011-.863,0-1.263.01-.248-.09-.309-.322-.3-.44.02-.882.023-1.322.014a1.148,1.148,0,0,1-1.211-1.234q0-4.361,0-8.723a1.187,1.187,0,0,1,1.161-1.2q4.429-.008,8.858,0a1.135,1.135,0,0,1,1.105.967q-3.1,0-6.209,0a1.12,1.12,0,0,0-1.219.962,1.3,1.3,0,0,0,.636,1.5.953.953,0,0,0,.449.111c.837,0,1.674,0,2.544,0a3.32,3.32,0,0,1-.481.716c-1.052,1.45-2.117,2.89-3.171,4.339a.943.943,0,0,0-.044.992.991.991,0,0,0,.917.594c1.98.015,3.959.009,5.939.006A2.316,2.316,0,0,0,406.388,372.73Z" transform="translate(-395.272 -362.756)" fill="#060706"/>
  <path id="Path_3591" data-name="Path 3591" d="M412.778,368.039c.02.039.035.056.035.072,0,1.637,0,3.275,0,4.839-1.178-.08-2.346,0-3.569-.037Z" transform="translate(-401.667 -365.174)" fill="#060706"/>
</svg>
