<svg id="Group_1543" data-name="Group 1543" xmlns="http://www.w3.org/2000/svg" width="11.826" height="12.484" viewBox="0 0 11.826 12.484">
  <path id="Path_3592" data-name="Path 3592" d="M283.7,404.071v-.143c-.715,1-1.476,1.952-2.243,2.92a22.419,22.419,0,0,1-3.167-4.655l-2.621,2.609a1.032,1.032,0,0,1,.132.1l4.72,4.719c.035.035.066.074.1.11H282.6c.01-.009.019-.025.029-.027a1.18,1.18,0,0,0,.772-.435,1.442,1.442,0,0,0,.3-1Q283.7,406.166,283.7,404.071Z" transform="translate(-272.506 -397.243)" fill="#060707"/>
  <path id="Path_3593" data-name="Path 3593" d="M284.3,400.054a2.875,2.875,0,0,0-3.767-2.31,2.919,2.919,0,0,0-1.952,2.624,4.264,4.264,0,0,0,.35,1.726,10.247,10.247,0,0,0,1.049,1.834c.463.672.959,1.318,1.476,1.963.023-.026.04-.042.054-.061.569-.737,1.142-1.47,1.652-2.25a7.748,7.748,0,0,0,1.01-2.017c.065-.22.108-.447.161-.671V400.2C284.273,400.165,284.307,400.1,284.3,400.054Zm-2.828,1.675a1.263,1.263,0,0,1-1.283-1.256,1.27,1.27,0,1,1,2.54-.01A1.264,1.264,0,0,1,281.471,401.729Z" transform="translate(-272.506 -397.589)" fill="#060707"/>
  <path id="Path_3594" data-name="Path 3594" d="M279.621,409.619q-2.139-2.146-4.283-4.288c-.034-.034-.059-.08-.11-.094a.139.139,0,0,0-.027.016q-1.152,1.154-2.307,2.306a.185.185,0,0,0-.059.143c0,.264,0,.529,0,.793a1.258,1.258,0,0,0,.446.926,1.986,1.986,0,0,0,.6.306h5.808C279.716,409.661,279.65,409.648,279.621,409.619Z" transform="translate(-272.834 -397.243)" fill="#060707"/>
  <path id="Path_3595" data-name="Path 3595" d="M272.869,406.712a1.167,1.167,0,0,1,.1-.118q2.49-2.493,4.985-4.983a.276.276,0,0,0,.084-.287,4.156,4.156,0,0,1-.056-1.293,3.523,3.523,0,0,1,.35-1.173H278.2q-2.013,0-4.025,0a1.287,1.287,0,0,0-1.339,1.348q0,3.18,0,6.361A.168.168,0,0,0,272.869,406.712Z" transform="translate(-272.834 -397.589)" fill="#060707"/>
</svg>
