<svg xmlns="http://www.w3.org/2000/svg" width="9.94" height="11.631" viewBox="0 0 9.94 11.631">
  <path id="Path_3589" data-name="Path 3589" d="M296.926,367.244v1.738a1.742,1.742,0,0,0-1.294.351,1.8,1.8,0,0,0,1.353,3.216,1.828,1.828,0,0,0,1.56-1.39,1.985,1.985,0,0,0,.05-.523q0-3.9.007-7.793v-.164h1.656a3.158,3.158,0,0,0,2.863,2.777v1.935a3.166,3.166,0,0,1-2.868-1.376v.308c0,1.475.007,2.95,0,4.424a3.444,3.444,0,0,1-1.461,2.884,3.536,3.536,0,1,1-2.819-6.321A2.8,2.8,0,0,1,296.926,367.244Z" transform="translate(-293.18 -362.678)" fill="#070808"/>
</svg>
