<svg xmlns="http://www.w3.org/2000/svg" width="149.116" height="120.235" viewBox="0 0 149.116 120.235">
  <g id="Group_968" data-name="Group 968" transform="translate(-1456.188 -742.962)">
    <g id="Group_966" data-name="Group 966">
      <path id="Path_267" data-name="Path 267" d="M1525.45,847.771a7.791,7.791,0,1,0,6.117,6.116A7.8,7.8,0,0,0,1525.45,847.771Z" fill="#ff5b34"/>
    </g>
    <g id="Group_967" data-name="Group 967">
      <path id="Path_268" data-name="Path 268" d="M1565.134,847.771a7.791,7.791,0,1,0,6.116,6.116A7.8,7.8,0,0,0,1565.134,847.771Z" fill="#ff5b34"/>
    </g>
    <path id="Path_269" data-name="Path 269" d="M1599.171,772.392a18.119,18.119,0,0,0-11.91-4.29h-13a30.179,30.179,0,0,0-59.51,0h-17.57a6.779,6.779,0,0,1-6.36-4.41,20.334,20.334,0,0,0-19.04-13.21h-8.3a7.2,7.2,0,0,0-7.29,6.78,7,7,0,0,0,7,7.22h8.59a6.331,6.331,0,0,1,5.92,4.11l7.58,20.28,14.99,40.17a18.319,18.319,0,0,0,17.17,11.92h55.74a18.405,18.405,0,0,0,17.17-11.92l13.84-37.07A17.707,17.707,0,0,0,1599.171,772.392Zm-54.66-23.43a24.174,24.174,0,1,1-23.66,19.14A24.231,24.231,0,0,1,1544.511,748.962Zm46.56,38.11-13.83,37.08a4.329,4.329,0,0,1-4.06,2.81h-55.74a4.34,4.34,0,0,1-4.05-2.81l-14.95-40.06-.46-1.22-.28-.77h17.97a30.193,30.193,0,0,0,57.67,0h14.28a3.683,3.683,0,0,1,3.45,4.97Z" fill="#ff5b34"/>
    <path id="Path_270" data-name="Path 270" d="M1560.021,766.692l-1.41,1.41-13.99,14-3.87,3.87-11.76-11.76a3,3,0,0,1,4.24-4.24l1.19,1.19,6.33,6.32,9.38-9.38,1.88-1.88,3.77-3.77a3,3,0,0,1,4.24,4.24Z" fill="#ff5b34"/>
  </g>
</svg>
