<svg xmlns="http://www.w3.org/2000/svg" width="129.651" height="120" viewBox="0 0 129.651 120">
  <g id="Group_969" data-name="Group 969" transform="translate(-956.715 -746.542)">
    <path id="Path_271" data-name="Path 271" d="M1083.918,852.264a8.325,8.325,0,0,0-5.913-2.453H965.076a8.368,8.368,0,0,0-5.32,14.822,8.689,8.689,0,0,0,1.333.9,8.323,8.323,0,0,0,3.987,1.012h112.929a8.365,8.365,0,0,0,5.913-14.278Zm-5.913,11.689h-34.12a8.337,8.337,0,0,0,0-11.552h34.12a5.776,5.776,0,0,1,0,11.552Z" fill="#ff5b34"/>
    <path id="Path_272" data-name="Path 272" d="M1086.366,794.312a40.242,40.242,0,0,0-40.242-40.242h-8.9v69.912h5.482a12.5,12.5,0,0,0,25.007,0h18.657v-7.573h-2.836a7.2,7.2,0,0,1-7.2-7.2h10.031Zm-7.78,3.666h-20.26a5.285,5.285,0,0,1-5.285-5.285v-29.1a29.036,29.036,0,0,1,25.545,28.792Z" fill="#ff5b34"/>
    <path id="Path_273" data-name="Path 273" d="M1020.4,746.542H967.135a10.421,10.421,0,0,0-10.42,10.421v56.594a10.424,10.424,0,0,0,10.42,10.425h8.092a12.5,12.5,0,0,0,25.007,0h30.595V756.963A10.422,10.422,0,0,0,1020.4,746.542ZM993.769,808.3a24.486,24.486,0,1,1,24.486-24.489A24.486,24.486,0,0,1,993.769,808.3Z" fill="#ff5b34"/>
    <path id="Path_274" data-name="Path 274" d="M981.683,774.5c0-2.209,1.367-3.986,3.059-3.986s3.055,1.777,3.055,3.986-1.368,3.982-3.055,3.982S981.683,776.7,981.683,774.5Z" fill="#ff5b34"/>
    <path id="Path_275" data-name="Path 275" d="M1008.8,785.814a15.033,15.033,0,0,1-30.065,0A63.749,63.749,0,0,0,1008.8,785.814Z" fill="#ff5b34"/>
    <path id="Path_276" data-name="Path 276" d="M999.738,774.5c0-2.209,1.367-3.986,3.059-3.986s3.055,1.777,3.055,3.986-1.367,3.982-3.055,3.982S999.738,776.7,999.738,774.5Z" fill="#ff5b34"/>
  </g>
</svg>
