<svg xmlns="http://www.w3.org/2000/svg" width="350" height="277.5"><g data-name="Group 262"><g data-name="Group 261"><path data-name="Rectangle 153" fill="#bcbcbc" d="M253.6 0H350v124.9h-96.4z"/><path data-name="Path 244" d="M339 72.9c-.4-8.6-.7-17.3-.7-25.9 0-4.3-1.4-6.8-4-8.8-4.6-3.7-9.8-4.8-15.2-5.2-1.8-.2-3.2 0-4.4-3-1.8-4-9.2-3.5-11 .6-1 2.1-2 2.1-3.3 2.3a40.8 40.8 0 0 0-18.5 6.8c-3.2 2.2-5 5-5 10 0 5.3-.6 10.7 0 16 .4 2.3-.3 3.2-1.6 4.3l-10.7 8.9c14.5.6 27.6 5.3 39 16.8 2.8 2.9 5 2.4 7.2-.3 3.4-4 6.8-8 10.1-12.2a6 6 0 0 1 4.7-2.6 34.8 34.8 0 0 0 10.1-1.7c2.4-.9 3.5-2.4 3.3-6m-58-4.5a1.2 1.2 0 0 0-.2 0c17-8.3 31.9 8.2 31.9 8.2a97.1 97.1 0 0 0-31.8-8.2" fill="#afafaf"/><path data-name="Path 245" d="M264.5 84.2c5.9-1.4 11.4-.9 17 4a22.8 22.8 0 0 1-17-4" fill="#afafaf"/><path data-name="Rectangle 154" fill="#e0e0e0" d="M253.6 46.6H350v31.7h-96.4z"/><path data-name="Rectangle 155" fill="#999" d="M289.5 56.1h24.6v3.4h-24.6z"/><path data-name="Rectangle 156" fill="#757575" d="M284.3 64.8h35v4h-35z"/><path data-name="Rectangle 157" fill="#bcbcbc" d="M126.8 0h96.4v124.9h-96.4z"/><path data-name="Path 246" d="M155.7 54.2h-2.5c-4 .2-7.3 4.5-7.4 9.3V77a10.1 10.1 0 0 0 2.2 6.5 7 7 0 0 0 5.2 3 20.7 20.7 0 0 0 2.3.1c.4 0 .4-.2.4-.5V54.7a.7.7 0 0 1 0-.3c0-.2 0-.2-.2-.2m4.7-2.1c-.9.1-1.4 1-1.4 2.3v32.3a2.1 2.1 0 0 0 1.3 2c1.2.3 2.3-.7 2.3-2.3V54c-.2-1.3-1.2-2.2-2.2-1.8m13.3 45.4h-9.9a1 1 0 0 0-.7 1v1a13.5 13.5 0 0 1-4.5-.5c-8-1.9-14.1-10.4-14.5-20.2-.1-3 0-6-.2-9v-5.2c0-1-.1-1.1-1-.7a2 2 0 0 0-.7.7 4.2 4.2 0 0 0-.7 1.4 14.2 14.2 0 0 0-.6 5.9 8 8 0 0 0 1 3.7 1.4 1.4 0 0 1 .2 1 27.8 27.8 0 0 0 .2 4c1 8 4.4 14 10.2 18.2a16.6 16.6 0 0 0 10.4 3h.1v1.2c0 .5.5 1 .8 1h9.9a1 1 0 0 0 .9-1v-4.6a.9.9 0 0 0-.9-1m17.4-43v-.7c-.2-1.3-1.2-2-2.2-1.6a2 2 0 0 0-1.4 2.2v32a1.7 1.7 0 0 0 0 .5 2 2 0 0 0 1.8 2 1.8 1.8 0 0 0 1.8-1.8v-.6Zm7 0a12.1 12.1 0 0 0-3.5-.2c-.3-.1-.4 0-.4.4V86c0 .4.1.5.4.5a11.4 11.4 0 0 1 1.7 0c4.3 0 7.9-4 8-9.1V63.2c-.1-4.3-2.8-8-6.3-8.8m11 13.9a9.8 9.8 0 0 0-1-3.2 2.5 2.5 0 0 0-1.5-1.4c-.4-.1-.4 0-.4.4v12.7c0 .2 0 .2.2.2a.6.6 0 0 1 .4 0 3 3 0 0 0 1.7-2 11.2 11.2 0 0 0 .7-4.6 14.6 14.6 0 0 0 0-2.1m-7.3-23.7c-1.8-7.1-5-13.2-10.2-17.5-7.1-6-15-7.6-23.4-5.1q-13.1 4-18.7 18.9a44 44 0 0 0-2.6 12.2v1a22.7 22.7 0 0 1 3.3-2.6.6.6 0 0 1 0-.3c2.8-15.8 15.4-26.8 29.4-23.9C189.9 29.5 198 39.5 200 52a26 26 0 0 1 3.3 2.2 55.7 55.7 0 0 0-1.5-9.6" fill="#afafaf"/><path data-name="Rectangle 158" fill="#e0e0e0" d="M126.8 46.6h96.4v31.7h-96.4z"/><path data-name="Rectangle 159" fill="#999" d="M162.7 56.1h24.6v3.4h-24.6z"/><path data-name="Rectangle 160" fill="#757575" d="M157.5 64.8h35v4h-35z"/><path data-name="Rectangle 161" fill="#bcbcbc" d="M126.8 152.6h96.4v125h-96.4z"/><path data-name="Path 247" d="m190.7 199.4 13.5-19.7a.6.6 0 0 0-.2-1l-2.1-1.4a.6.6 0 0 0-1 .1l-13.5 19.8-6.3-2.4-35.4 51.5 6 6.2 8 3.5 35.5-51.5Z" fill="#afafaf"/><path data-name="Path 248" d="M150.3 188.8a11.6 11.6 0 0 0 .4 1.3 58.4 58.4 0 0 1 21.8-8.4 11.4 11.4 0 0 0-.6-1.2 57.7 57.7 0 0 0-21.7 8.3" fill="#afafaf"/><path data-name="Path 249" d="M173 184a11.6 11.6 0 0 0-.3-1.6 57.7 57.7 0 0 0-21.7 8.4 11.5 11.5 0 0 0 .7 1.3 58.4 58.4 0 0 1 21.4-8" fill="#afafaf"/><path data-name="Path 250" d="M152.1 192.7a11.7 11.7 0 0 0 9.5 4.9 11.7 11.7 0 0 0 11.6-11.7v-1.2a57.6 57.6 0 0 0-21.1 8" fill="#afafaf"/><path data-name="Path 251" d="M171.5 179.8a11.7 11.7 0 0 0-10-5.6 11.7 11.7 0 0 0-11.6 11.7 11.7 11.7 0 0 0 .2 2.2 58.5 58.5 0 0 1 21.4-8.3" fill="#afafaf"/><path data-name="Rectangle 162" fill="#e0e0e0" d="M126.8 199.2h96.4V231h-96.4z"/><path data-name="Rectangle 163" fill="#999" d="M162.7 208.8h24.6v3.4h-24.6z"/><path data-name="Rectangle 164" fill="#757575" d="M157.5 217.4h35v4h-35z"/><path data-name="Rectangle 165" fill="#bcbcbc" d="M253.6 152.6H350v125h-96.4z"/><path data-name="Path 252" d="m339 248.5-5.5-44.3c-.4-3-2.6-5.2-5.1-5.2h-10v-4.7c0-10.9-7.5-19.7-16.6-19.7s-16.5 8.8-16.5 19.7v4.7h-10c-2.6 0-4.8 2.2-5.2 5.2l-5.5 44.3c-.5 3.7 2 7 5 7H334c3.2 0 5.6-3.3 5-7m-50.3-54.2c0-8.7 6-15.7 13.2-15.7s13.2 7 13.2 15.7v4.7h-26.4Zm13.2 25.6a3.3 3.3 0 0 1-3-3.6 3.3 3.3 0 0 1 3-3.6 3.3 3.3 0 0 1 3 3.6 3.3 3.3 0 0 1-3 3.6" fill="#afafaf"/><path data-name="Rectangle 166" fill="#e0e0e0" d="M253.6 199.2H350V231h-96.4z"/><path data-name="Rectangle 167" fill="#999" d="M289.5 208.8h24.6v3.4h-24.6z"/><path data-name="Rectangle 168" fill="#757575" d="M284.3 217.4h35v4h-35z"/><path data-name="Rectangle 169" fill="#bcbcbc" d="M0 152.6h96.4v125H0z"/><path data-name="Path 253" d="M66.6 170H29.8a6.5 6.5 0 0 0-6.5 6.5v77.1a6.5 6.5 0 0 0 6.5 6.5h36.8a6.5 6.5 0 0 0 6.5-6.5v-77a6.5 6.5 0 0 0-6.5-6.6m-13.5 50.5a2.2 2.2 0 0 1-2.3 2.2h-5.2a2.2 2.2 0 0 1-2.3-2.2v-5.3a2.2 2.2 0 0 1 2.3-2.2h5.2a2.2 2.2 0 0 1 2.3 2.2Zm0-24.9a4.5 4.5 0 0 1-4.4 4.5H30.3a4.5 4.5 0 0 1-4.5-4.5v-18.4a4.5 4.5 0 0 1 4.5-4.5h18.4a4.5 4.5 0 0 1 4.5 4.5Z" fill="#afafaf"/><path data-name="Path 254" d="M34.2 187.1a5.1 5.1 0 0 0-5.1 5.1 5.1 5.1 0 0 0 5.1 5.2 5.1 5.1 0 0 0 5.2-5.2 5.1 5.1 0 0 0-5.2-5.1" fill="#afafaf"/><path data-name="Path 255" d="M34.2 175.4a5.1 5.1 0 0 0-5.1 5.2 5.1 5.1 0 0 0 5.1 5 5.1 5.1 0 0 0 5.2-5 5.1 5.1 0 0 0-5.2-5.2" fill="#afafaf"/><path data-name="Path 256" d="M44.8 181.3a5.1 5.1 0 0 0-5.1 5 5.1 5.1 0 0 0 5.1 5.2 5.1 5.1 0 0 0 5.1-5.1 5.1 5.1 0 0 0-5-5.1" fill="#afafaf"/><path data-name="Rectangle 170" fill="#e0e0e0" d="M0 199.2h96.4V231H0z"/><path data-name="Rectangle 171" fill="#999" d="M36 208.8h24.5v3.4H36z"/><path data-name="Rectangle 172" fill="#757575" d="M30.7 217.4h35v4h-35z"/><path data-name="Rectangle 173" fill="#bcbcbc" d="M0 0h96.4v124.9H0z"/><path data-name="Path 257" d="M55.2 26.3a6.8 6.8 0 0 1-6.6 5.4 7.3 7.3 0 0 1-7.3-5c-.9-2.5-1.3-2.7-4-2L24.5 29a3.2 3.2 0 0 0-1.9 1.4L11 48.9c-.7 1.1-.3 1.5.5 2.1 2.8 2 5.6 4 8.4 6.2a1.7 1.7 0 0 0 2.3 0l5.6-3.7v41.4c-.1 2 .5 2.7 2.4 3.2a68.3 68.3 0 0 0 36.6-.1 2.4 2.4 0 0 0 2.1-2.8v-39a3.6 3.6 0 0 1 .3-2.5c1.8 1.2 3.5 2.2 5.1 3.5a1.7 1.7 0 0 0 2.6 0C79.5 55 82.2 53 85 51c1.2-.8 1-1.5.3-2.5L74.2 30.7c-.4-.6-.7-1.4-1.5-1.6-4.9-1.6-9.8-3.2-14.7-4.6a4 4 0 0 0-1-.2c-.9 0-1.6.5-1.8 2" fill="#afafaf"/><path data-name="Rectangle 174" fill="#e0e0e0" d="M0 46.6h96.4v31.7H0z"/><path data-name="Rectangle 175" fill="#999" d="M36 56.1h24.5v3.4H36z"/><path data-name="Rectangle 176" fill="#757575" d="M30.7 64.8h35v4h-35z"/></g></g></svg>