<svg xmlns="http://www.w3.org/2000/svg" width="350" height="245.1"><g data-name="Group 263"><g data-name="Group 258"><path data-name="Rectangle 123" fill="#bcbcbc" d="M0 0h159v245.1H0z"/><path data-name="Rectangle 124" fill="#bcbcbc" d="M170.3 0h84.2v116.9h-84.2z"/><path data-name="Rectangle 125" fill="#bcbcbc" d="M170.3 128.2h84.2v116.9h-84.2z"/><path data-name="Rectangle 126" fill="#bcbcbc" d="M265.8 0H350v116.9h-84.2z"/><path data-name="Rectangle 127" fill="#bcbcbc" d="M265.8 128.2H350v116.9h-84.2z"/><path data-name="Path 209" d="M92 58c-1 5.8-6.1 9.6-11.8 9.8a13 13 0 0 1-13-8.9c-1.6-4.5-2.3-5-7-3.5l-23.1 7.2a5.6 5.6 0 0 0-3.4 2.6L12.9 98.4c-1.3 2-.5 2.7 1 3.8 5 3.6 10 7.2 14.9 11 1.6 1.3 2.7 1 4.2 0 3-2.2 6.1-4.2 9.9-6.6v5l-.1 68.8c0 3.5 1.1 4.9 4.4 5.8a121.8 121.8 0 0 0 65.4-.3c2.8-.7 3.7-2 3.7-5-.2-23.2-.1-46.3 0-69.5 0-1.4-.5-2.9.5-4.4 3.2 2.1 6.3 4 9.2 6.1 1.7 1.3 2.8 1.3 4.5 0 4.8-3.7 9.6-7.4 14.6-10.8 2.2-1.5 2-2.6.7-4.5l-20-31.9c-.6-1-1.1-2.4-2.6-2.9-8.7-2.7-17.4-5.6-26.2-8.1a7 7 0 0 0-1.9-.3c-1.4 0-2.7.7-3.1 3.4" fill="#afafaf"/><path data-name="Path 210" d="M246.4 68.6c-.4-8.4-.7-16.8-.7-25.3 0-4.2-1.4-6.6-3.9-8.6a26.8 26.8 0 0 0-14.9-5.1c-1.7-.1-3.1 0-4.3-2.8-1.7-4-9-3.5-10.8.5-1 2-1.9 2-3.2 2.3a40 40 0 0 0-18 6.6c-3.1 2.2-5 4.9-5 9.8 0 5.2-.5 10.4.1 15.6a4 4 0 0 1-1.6 4.2l-10.5 8.7c14.2.6 27 5.2 38 16.4 2.9 2.8 5 2.3 7.3-.3 3.3-3.9 6.6-7.8 9.8-11.9a6 6 0 0 1 4.5-2.5 34 34 0 0 0 10-1.7c2.3-.9 3.4-2.4 3.2-5.9m-56.8-4.4h-.1c16.5-8 31.1 8 31.1 8a94.9 94.9 0 0 0-31-8" fill="#afafaf"/><path data-name="Path 211" d="M173.6 79.7c5.7-1.3 11-.9 16.6 3.9a22.3 22.3 0 0 1-16.6-3.9" fill="#afafaf"/><path data-name="Path 212" d="M288.3 50.8h-2.5c-4 .2-7.4 4.6-7.5 9.5v13.6a10.3 10.3 0 0 0 2.2 6.6 7 7 0 0 0 5.3 3 21 21 0 0 0 2.3.2c.4 0 .4-.2.4-.6V51.3a.8.8 0 0 1 0-.3c0-.2 0-.2-.2-.2m4.8-2.2c-1 .2-1.4 1.1-1.4 2.4v32.7a2.1 2.1 0 0 0 1.3 2c1.2.4 2.3-.6 2.3-2.2v-33c-.1-1.3-1.2-2.2-2.2-1.9m13.5 46.1h-10a1 1 0 0 0-.8 1v1a13.7 13.7 0 0 1-4.5-.4c-8-2-14.3-10.6-14.8-20.5l-.1-9.3v-5.1c0-1.1-.2-1.2-1-.7a2 2 0 0 0-.8.7 4.2 4.2 0 0 0-.7 1.4 14.4 14.4 0 0 0-.6 6 8.2 8.2 0 0 0 1 3.7 1.4 1.4 0 0 1 .2 1 28 28 0 0 0 .3 4.1c1 8.1 4.4 14.3 10.3 18.5a16.9 16.9 0 0 0 10.5 3h.2v1.2c0 .5.4 1 .8 1h10a1 1 0 0 0 .9-1v-4.6a.9.9 0 0 0-1-1M324.3 51v-.7c-.2-1.3-1.2-2-2.2-1.7a2.1 2.1 0 0 0-1.4 2.3v32.5a1.7 1.7 0 0 0 0 .5 2 2 0 0 0 1.8 2 1.8 1.8 0 0 0 1.8-1.8v-.6Zm7 0a12.3 12.3 0 0 0-3.4-.2c-.3-.1-.4 0-.4.4v32c0 .3 0 .5.4.5a11.6 11.6 0 0 1 1.7 0c4.3 0 8-4.2 8.1-9.3V60c0-4.3-2.8-8.1-6.3-9m11.1 14.2a10 10 0 0 0-1-3.2 2.5 2.5 0 0 0-1.5-1.4c-.4-.2-.5 0-.5.4v12.8c0 .2 0 .3.2.3a.6.6 0 0 1 .4-.1 3.1 3.1 0 0 0 1.8-2 11.4 11.4 0 0 0 .7-4.6 14.7 14.7 0 0 0 0-2.2M335 41a33 33 0 0 0-10.3-17.7c-7.3-6.1-15.3-7.8-23.8-5.3q-13.3 4-19 19.2a44.6 44.6 0 0 0-2.5 12.4 10.3 10.3 0 0 0 0 1 23.3 23.3 0 0 1 3.2-2.6.6.6 0 0 1 .1-.3c2.8-16 15.6-27.3 29.8-24.2 10.4 2.2 18.8 12.3 20.7 25a26.6 26.6 0 0 1 3.3 2.2 56.5 56.5 0 0 0-1.5-9.7" fill="#afafaf"/><path data-name="Path 213" d="m341.8 207.8-5-40.4c-.4-2.7-2.4-4.8-4.7-4.8H323v-4.2c0-10-6.7-18-15-18s-15 8-15 18v4.2h-9.2c-2.3 0-4.3 2-4.6 4.8l-5 40.4c-.5 3.3 1.7 6.4 4.6 6.4h58.5c2.8 0 5-3 4.6-6.4m-45.9-49.4c0-8 5.4-14.3 12-14.3s12 6.4 12 14.3v4.2h-24Zm12 23.2a3 3 0 0 1-2.7-3.2 3 3 0 0 1 2.7-3.3 3 3 0 0 1 2.7 3.3 3 3 0 0 1-2.7 3.2" fill="#afafaf"/><path data-name="Path 214" d="m229.8 167 14.3-20.8a.7.7 0 0 0-.2-1l-2.3-1.5a.7.7 0 0 0-1 .2l-14.2 20.8-6.7-2.6-37.3 54.3 6.4 6.6 8.4 3.7 37.4-54.4Z" fill="#afafaf"/><path data-name="Path 215" d="M187.2 155.8a12.2 12.2 0 0 0 .4 1.4 61.6 61.6 0 0 1 23-8.8 12.4 12.4 0 0 0-.6-1.4 60.8 60.8 0 0 0-22.8 8.8" fill="#afafaf"/><path data-name="Path 216" d="M211.3 150.8a12.2 12.2 0 0 0-.4-1.7 60.8 60.8 0 0 0-23 8.8 12.3 12.3 0 0 0 .8 1.4 61.6 61.6 0 0 1 22.6-8.5" fill="#afafaf"/><path data-name="Path 217" d="M189.1 160a12.3 12.3 0 0 0 10 5 12.3 12.3 0 0 0 12.3-12.3v-1.2A60.8 60.8 0 0 0 189 160" fill="#afafaf"/><path data-name="Path 218" d="M209.6 146.3a12.3 12.3 0 0 0-10.5-5.9 12.3 12.3 0 0 0-12.3 12.3 12.3 12.3 0 0 0 .2 2.3 61.6 61.6 0 0 1 22.6-8.7" fill="#afafaf"/><path data-name="Path 219" d="M134.4 146.5H24.6a3.7 3.7 0 0 1-3.7-3.7v-40.5a3.7 3.7 0 0 1 3.7-3.7h109.8a3.7 3.7 0 0 1 3.7 3.7v40.5a3.7 3.7 0 0 1-3.7 3.7" fill="#fff"/><path data-name="Path 220" d="M240.8 75.2H184a3.7 3.7 0 0 1-3.7-3.7V45.4a3.7 3.7 0 0 1 3.7-3.7h56.8a3.7 3.7 0 0 1 3.7 3.7v26.1a3.7 3.7 0 0 1-3.7 3.7" fill="#fff"/><path data-name="Path 221" d="M240.8 203.4H184a3.7 3.7 0 0 1-3.7-3.7v-26.1a3.7 3.7 0 0 1 3.7-3.7h56.8a3.7 3.7 0 0 1 3.7 3.7v26.1a3.7 3.7 0 0 1-3.7 3.7" fill="#fff"/><path data-name="Path 222" d="M336.3 75.2h-56.8a3.7 3.7 0 0 1-3.7-3.7V45.4a3.7 3.7 0 0 1 3.7-3.7h56.8a3.7 3.7 0 0 1 3.7 3.7v26.1a3.7 3.7 0 0 1-3.7 3.7" fill="#fff"/><path data-name="Path 223" d="M336.3 203.4h-56.8a3.7 3.7 0 0 1-3.7-3.7v-26.1a3.7 3.7 0 0 1 3.7-3.7h56.8a3.7 3.7 0 0 1 3.7 3.7v26.1a3.7 3.7 0 0 1-3.7 3.7" fill="#fff"/><path data-name="Rectangle 128" fill="#c6c6c6" d="M66 115.6h27v3.8H66z"/><path data-name="Rectangle 129" fill="#939393" d="M60.4 125.1h38.3v4.3H60.4z"/><path data-name="Rectangle 130" fill="#c6c6c6" d="M199 51.5h26.9v3.8h-27z"/><path data-name="Rectangle 131" fill="#939393" d="M193.3 61h38.3v4.3h-38.3z"/><path data-name="Rectangle 132" fill="#c6c6c6" d="M294.5 51.5h26.9v3.8h-27z"/><path data-name="Rectangle 133" fill="#939393" d="M288.7 61H327v4.3h-38.3z"/><path data-name="Rectangle 134" fill="#c6c6c6" d="M199 179.7h26.9v3.8h-27z"/><path data-name="Rectangle 135" fill="#939393" d="M193.3 189.2h38.3v4.3h-38.3z"/><path data-name="Rectangle 136" fill="#c6c6c6" d="M294.5 179.7h26.9v3.8h-27z"/><path data-name="Rectangle 137" fill="#939393" d="M288.7 189.2H327v4.3h-38.3z"/></g></g></svg>