<svg xmlns="http://www.w3.org/2000/svg" width="350" height="348.4"><g data-name="Group 253"><path data-name="Rectangle 33" fill="#bcbcbc" d="M.5 0H100v99.4H.5z"/><path data-name="Path 4" d="M55.7 21.3a5.3 5.3 0 0 1-5.2 4.3 5.7 5.7 0 0 1-5.7-3.9c-.7-2-1-2.2-3-1.5l-10.2 3.2a2.5 2.5 0 0 0-1.5 1c-3 5-6 9.8-9.2 14.7-.5.9-.2 1.2.4 1.7 2.3 1.5 4.5 3.1 6.6 4.8a1.3 1.3 0 0 0 1.9 0l4.3-3v32.6a2.2 2.2 0 0 0 1.9 2.5 53.6 53.6 0 0 0 28.8 0 1.9 1.9 0 0 0 1.6-2.3V44.8a2.8 2.8 0 0 1 .2-2c1.4 1 2.8 1.8 4 2.8a1.4 1.4 0 0 0 2 0c2.2-1.7 4.3-3.3 6.5-4.8 1-.6.8-1.1.3-2l-8.8-14c-.3-.5-.5-1-1.1-1.3-2.3-.7-13.1-6.4-13.8-2.2" fill="#d3d3d3"/><path data-name="Rectangle 34" fill="#bcbcbc" d="M125.5 0H225v99.4h-99.4z"/><path data-name="Path 5" d="M168.6 24c-4.5 1.3-11 2.2-13.4 6.8a21.6 21.6 0 0 0-1.7 7.1l-2.2 17.2c-.7 5.3-1.6 10.3-.8 15.6.6 3.4.7 3.4 4.1 3.4h1.3c.2 0 .5 0 .5-.3.5-1.6 1-3.2 1.3-4.8.8-4.9 1-9.8 2.1-14.7l2-9.4a1.4 1.4 0 0 1 .3 0v24.9a4.3 4.3 0 0 0 3.6 4.6 42.6 42.6 0 0 0 21 0 4.3 4.3 0 0 0 3.5-4.5V45h.3l2.2 11c1 4.8 1 9.7 2.2 14.4.3 1.3.4 3 1.2 3.6a4.7 4.7 0 0 0 2.7.3h1.4a3.7 3.7 0 0 0 .4 0 .4.4 0 0 0 .4-.5c0-1 .6-2 .8-3.1 1.4-9.5-1.1-19.2-2.4-28.6-.5-3.2-.6-6.8-1.8-9.8a9 9 0 0 0-5.8-5.7c-2.6-.7-5-2.1-7.7-2.6-1.2-.2-2.3-.4-3.2.5-.6.6-1 2.1-1.5 3s-2 2.7-3.1 2.8c-1.8 0-4.2-3.5-4.7-5s-1.6-1.7-3-1.3" fill="#d3d3d3"/><path data-name="Rectangle 35" fill="#bcbcbc" d="M250.6 0H350v99.4h-99.4z"/><g data-name="Group 236"><path data-name="Path 6" d="M303.1 69.3a74.3 74.3 0 0 1-10.2-.7l-4.7-.8v5.4a2 2 0 0 0 1.7 2.4 49.5 49.5 0 0 0 26.6-.1 1.8 1.8 0 0 0 1.5-2v-5.6a81.4 81.4 0 0 1-14.9 1.4m14.9-3.8V45.2a2.6 2.6 0 0 1 .2-1.8s-8.6-5.6-3-19.7l-5-1.5a2.9 2.9 0 0 0-.8-.1c-.6 0-1 .3-1.2 1.4a4.9 4.9 0 0 1-4.8 4 5.3 5.3 0 0 1-5.3-3.6c-.7-1.9-1-2-2.9-1.5l-4.7 1.5c5.8 11.7-2.3 19.3-2.3 19.3v22.1a74.7 74.7 0 0 0 29.8.2" fill="#d3d3d3"/></g><path data-name="Rectangle 36" fill="#c6c6c6" d="M.5 106.2H51v4.4H.5z"/><path data-name="Rectangle 37" fill="#939393" d="M.5 117.7H43v6.5H.5z"/><g data-name="Group 237" fill="#d3d3d3"><path data-name="Path 7" d="m3.5 136.4 1 1.9 2 .3L5 140l.3 2-1.8-.9-1.9 1 .4-2-1.5-1.5 2-.3Z"/><path data-name="Path 8" d="m11.7 136.4 1 1.9 2 .3-1.5 1.4.4 2-1.9-.9-1.8 1 .3-2-1.4-1.5 2-.3Z"/><path data-name="Path 9" d="m20 136.4.9 1.9 2 .3-1.4 1.4.3 2-1.8-.9-1.9 1 .4-2-1.5-1.5 2-.3Z"/><path data-name="Path 10" d="m28.2 136.4 1 1.9 2 .3-1.5 1.4.4 2-1.9-.9-1.8 1 .3-2-1.5-1.5 2.1-.3Z"/><path data-name="Path 11" d="m36.5 136.4.9 1.9 2 .3L38 140l.3 2-1.8-.9-1.9 1 .4-2-1.5-1.5 2-.3Z"/></g><path data-name="Rectangle 38" fill="#bcbcbc" d="M.5 189.6H100V289H.5z"/><path data-name="Path 12" d="m51.7 222.2 7.3-8.8-2-.6a3.3 3.3 0 0 0-3.6 1.4l-2.1 3.1c-1.5 2.3-4.1-3.2-5.1-3.9a3.5 3.5 0 0 0-4-.2.5.5 0 0 0-.3.4.5.5 0 0 0 .2.3c2.1 3 4.7 5.5 7.1 8.3a1.6 1.6 0 0 0 2.5 0" fill="#d3d3d3"/><path data-name="Path 13" d="M64.6 256v-4.2a70.3 70.3 0 0 1-14.4 1.5 69.8 69.8 0 0 1-9.6-.6l-4.7-.9v4.2a68.3 68.3 0 0 0 28.7 0" fill="#d3d3d3"/><path data-name="Path 14" d="M50.2 259.3a69.7 69.7 0 0 1-9.6-.6 67 67 0 0 1-4.7-.9v4.2a2 2 0 0 0 1.6 2.3 47.7 47.7 0 0 0 25.7-.1 1.7 1.7 0 0 0 1.4-2v-4.4a70.3 70.3 0 0 1-14.4 1.5" fill="#d3d3d3"/><path data-name="Path 15" d="m76.2 229.7-7.8-12.5c-.3-.5-.5-1-1-1.2l-6.5-2-8.2 9.7a3 3 0 0 1-4.5 0l-8.5-9.8-6 2a2.2 2.2 0 0 0-1.4 1l-8.2 13c-.5.8-.2 1 .4 1.5l5.9 4.3a1.2 1.2 0 0 0 1.6 0L36 233V250a68.4 68.4 0 0 0 28.7 0v-15a2.5 2.5 0 0 1 .3-1.8l3.5 2.4a1.2 1.2 0 0 0 1.8 0l5.7-4.2c.9-.6.8-1 .3-1.8" fill="#d3d3d3"/><g data-name="Group 239"><path data-name="Rectangle 39" fill="#bcbcbc" d="M125.5 189.6H225V289h-99.4z"/><g data-name="Group 238" fill="#d3d3d3"><path data-name="Path 16" d="M202.1 225.8a54.6 54.6 0 0 0-4 7.5c-.7 1.6-1.6 2-3.2 1.4-3.7-1.2-3.7-1-3.7 2.8v24.2c0 2-.6 2.7-2.6 2.7h-26.8c-2 0-2.6-.8-2.6-2.7v-26.3c0-1.5-.2-1.7-1.6-1.3-4.7 1.3-3.8 2-6.3-2.7l-2.6-5.2c-.6-1.1-.4-2 .7-2.4 4.3-1.8 8.2-4.2 12.7-5.4 1.1-.3 1.8-.3 2.3 1 .7 1.6 1.6 3.2 2.5 4.8 2 3.7 3 4 7 2v9.4c0 1 0 2.1 1.4 2 1.3 0 1.2-1 1.2-2v-9.2l.5-.1c3.4 2 4.6 1.6 6.4-1.9 1-1.7 1.9-3.4 2.7-5.2.5-1 1-1.2 2-.9a79.5 79.5 0 0 1 14 6.2Z"/><path data-name="Path 17" d="M184 217.4a1 1 0 0 1-.2.5l-1.7 3.1-.9 1.7-.4.8c-.2.4-.4 1-.8 1.2s-.8-.3-1-.5c-1.3-.9-2.5-2.4-3.8-2.5-1.3-.1-2.4 1.6-3.7 2.5-.8.7-1.3.6-1.7-.3l-3-5.8c-.4-.9 0-1.6.7-2.1l1-.8c.4-.3.7-.7 1.2-.8.7 0 1.2.5 1.6 1 1.2 1.6 2.3 4.2 4 4.2 1.3 0 2.5-2.7 3.9-4.1.4-.5.8-1.7 1.7-1l1.8 1.3c.5.4 1.2 1 1.2 1.6"/></g></g><g data-name="Group 241"><path data-name="Rectangle 40" fill="#bcbcbc" d="M250.6 189.6H350V289h-99.4z"/><g data-name="Group 240" fill="#d3d3d3"><path data-name="Path 18" d="M328 245.3c-.3-5-.5-9.8-.5-14.7a5.3 5.3 0 0 0-3-5c-3.4-2-7.3-2.7-11.3-3-1.4 0-2.4 0-3.3-1.6-1.3-2.3-6.9-2-8.3.3a2.5 2.5 0 0 1-2.4 1.3 36.8 36.8 0 0 0-13.8 3.9c-2.3 1.2-3.7 2.8-3.7 5.6 0 3-.4 6 0 9a2 2 0 0 1-1.2 2.5l-8 5c10.8.4 20.6 3.1 29 9.6 2.2 1.6 3.8 1.4 5.5-.2 2.6-2.2 5-4.5 7.5-6.9a5 5 0 0 1 3.5-1.4 33.4 33.4 0 0 0 7.6-1c1.7-.5 2.6-1.4 2.4-3.4m-43.3-2.6c12.5-4.7 23.7 4.7 23.7 4.7a91.6 91.6 0 0 0-23.7-4.7"/><path data-name="Path 19" d="M272.5 251.7c4.3-.8 8.4-.5 12.7 2.3a21.3 21.3 0 0 1-12.7-2.3"/></g></g><path data-name="Path 20" d="M1.4 132.9a2 2 0 0 1-1-.5l.2-.4a1.5 1.5 0 0 0 1 .4.6.6 0 0 0 .7-.6c0-1-1.8-.8-1.8-2a1 1 0 0 1 1-1.1v-.7h.3v.7a1.4 1.4 0 0 1 1 .4l-.4.4a1 1 0 0 0-.7-.4.6.6 0 0 0-.7.6c0 1 1.8.7 1.8 2a1 1 0 0 1-1 1.2v.6h-.4Zm2-2c0-1.6.8-2.3 1.6-2.3a1.3 1.3 0 0 1 1 .5l-.3.3a.9.9 0 0 0-.6-.3c-.6 0-1 .4-1.1 1.7a1.3 1.3 0 0 1 1-.5 1.1 1.1 0 0 1 1.1 1.3 1.2 1.2 0 0 1-1.2 1.3c-.8 0-1.4-.7-1.4-2Zm1.5 1.6c.4 0 .7-.4.7-1s-.2-.8-.7-.8a1 1 0 0 0-.9.6c0 .7.4 1.2.9 1.2Zm1.6-.2.3-.3a1.4 1.4 0 0 0 1 .4.9.9 0 0 0 1-.9.8.8 0 0 0-1-.9 1.2 1.2 0 0 0-.7.3l-.2-.2v-2H9v.5H7.5l-.2 1.2a1.2 1.2 0 0 1 .7-.2 1.2 1.2 0 0 1 1.2 1.3 1.3 1.3 0 0 1-1.3 1.4 1.8 1.8 0 0 1-1.4-.6Zm3.5.2a.4.4 0 0 1 .3-.4.4.4 0 0 1 .4.4.4.4 0 0 1-.4.4.4.4 0 0 1-.3-.4Zm1.4-1.7c0-1.4.5-2.1 1.3-2.1s1.3.7 1.3 2-.5 2.2-1.3 2.2-1.3-.8-1.3-2.1Zm2.1 0c0-1.2-.3-1.7-.8-1.7s-.8.5-.8 1.7.4 1.7.8 1.7.8-.5.8-1.7Zm1.1 0c0-1.4.5-2.1 1.3-2.1s1.3.7 1.3 2-.5 2.2-1.3 2.2-1.3-.8-1.3-2.1Zm2.1 0c0-1.2-.3-1.7-.8-1.7s-.8.5-.8 1.7.3 1.7.8 1.7.8-.5.8-1.7Z" fill="#939393"/><path data-name="Rectangle 41" fill="#c6c6c6" d="M125.8 106.2h50.4v4.4h-50.4z"/><path data-name="Rectangle 42" fill="#939393" d="M125.8 117.7h42.4v6.5h-42.4z"/><g data-name="Group 242" fill="#d3d3d3"><path data-name="Path 21" d="m128.8 136.4.9 1.9 2 .3-1.4 1.4.3 2-1.8-.9-1.9 1 .4-2-1.5-1.5 2-.3Z"/><path data-name="Path 22" d="m137 136.4 1 1.9 2 .3-1.5 1.4.4 2-1.9-.9-1.8 1 .3-2-1.5-1.5 2.1-.3Z"/><path data-name="Path 23" d="m145.3 136.4.9 1.9 2 .3-1.4 1.4.3 2-1.8-.9-1.9 1 .4-2-1.5-1.5 2-.3Z"/><path data-name="Path 24" d="m153.5 136.4 1 1.9 2 .3-1.5 1.4.4 2-1.9-.9-1.8 1 .3-2-1.5-1.5 2-.3Z"/><path data-name="Path 25" d="m161.8 136.4.9 1.9 2 .3-1.5 1.4.4 2-1.8-.9-1.9 1 .4-2-1.5-1.5 2-.3Z"/></g><path data-name="Path 26" d="M126.7 132.9a2 2 0 0 1-1-.5l.2-.4a1.5 1.5 0 0 0 1 .4.6.6 0 0 0 .7-.6c0-1-1.8-.8-1.8-2a1 1 0 0 1 1-1.1v-.7h.3v.7a1.4 1.4 0 0 1 .9.4l-.3.4a1 1 0 0 0-.8-.4.6.6 0 0 0-.6.6c0 1 1.8.7 1.8 2a1 1 0 0 1-1 1.2v.6h-.4Zm2-2c0-1.6.8-2.3 1.6-2.3a1.3 1.3 0 0 1 1 .5l-.3.3a.9.9 0 0 0-.6-.3c-.6 0-1.1.4-1.1 1.7a1.3 1.3 0 0 1 1-.5 1.1 1.1 0 0 1 1 1.3 1.2 1.2 0 0 1-1.1 1.3c-.8 0-1.4-.7-1.4-2Zm1.5 1.6c.4 0 .7-.4.7-1s-.3-.8-.8-.8a1 1 0 0 0-.8.6c0 .7.4 1.2.9 1.2Zm1.6-.2.3-.3a1.4 1.4 0 0 0 1 .4.9.9 0 0 0 .9-.9.8.8 0 0 0-.9-.9 1.2 1.2 0 0 0-.7.3l-.3-.2.2-2h2v.5h-1.6v1.2a1.2 1.2 0 0 1 .6-.2 1.2 1.2 0 0 1 1.2 1.3 1.3 1.3 0 0 1-1.3 1.4 1.8 1.8 0 0 1-1.4-.6Zm3.4.2a.4.4 0 0 1 .4-.4.4.4 0 0 1 .4.4.4.4 0 0 1-.4.4.4.4 0 0 1-.4-.4Zm1.5-1.7c0-1.4.5-2.1 1.3-2.1s1.3.7 1.3 2-.5 2.2-1.3 2.2-1.3-.8-1.3-2.1Zm2.1 0c0-1.2-.3-1.7-.8-1.7s-.8.5-.8 1.7.3 1.7.8 1.7.8-.5.8-1.7Zm1 0c0-1.4.6-2.1 1.4-2.1s1.3.7 1.3 2-.5 2.2-1.3 2.2-1.3-.8-1.3-2.1Zm2.2 0c0-1.2-.3-1.7-.8-1.7s-.8.5-.8 1.7.3 1.7.8 1.7.8-.5.8-1.7Z" fill="#939393"/><path data-name="Rectangle 43" fill="#c6c6c6" d="M251 106.2h50.5v4.4H251z"/><path data-name="Rectangle 44" fill="#939393" d="M251 117.7h42.5v6.5H251z"/><g data-name="Group 243" fill="#d3d3d3"><path data-name="Path 27" d="m254 136.4 1 1.9 2 .3-1.4 1.4.3 2-1.8-.9-1.9 1 .4-2-1.5-1.5 2-.3Z"/><path data-name="Path 28" d="m262.3 136.4 1 1.9 2 .3-1.5 1.4.3 2-1.8-.9-1.8 1 .3-2-1.5-1.5 2-.3Z"/><path data-name="Path 29" d="m270.6 136.4.9 1.9 2 .3-1.5 1.4.4 2-1.8-.9-1.9 1 .4-2-1.5-1.5 2-.3Z"/><path data-name="Path 30" d="m278.8 136.4 1 1.9 2 .3-1.5 1.4.3 2-1.8-.9-1.8 1 .3-2-1.5-1.5 2-.3Z"/><path data-name="Path 31" d="m287 136.4 1 1.9 2 .3-1.5 1.4.4 2-1.9-.9-1.8 1 .4-2-1.5-1.5 2-.3Z"/></g><path data-name="Path 32" d="M252 132.9a2 2 0 0 1-1.1-.5l.2-.4a1.5 1.5 0 0 0 1 .4.6.6 0 0 0 .8-.6c0-1-1.8-.8-1.8-2a1 1 0 0 1 .9-1.1v-.7h.4v.7a1.4 1.4 0 0 1 .9.4l-.3.4a1 1 0 0 0-.8-.4.6.6 0 0 0-.6.6c0 1 1.8.7 1.8 2a1 1 0 0 1-1 1.2v.6h-.4Zm2-2c0-1.6.8-2.3 1.6-2.3a1.3 1.3 0 0 1 1 .5l-.3.3a.9.9 0 0 0-.7-.3c-.5 0-1 .4-1 1.7a1.3 1.3 0 0 1 1-.5 1.1 1.1 0 0 1 1 1.3 1.2 1.2 0 0 1-1.1 1.3c-.8 0-1.4-.7-1.4-2Zm1.5 1.6c.4 0 .7-.4.7-1s-.3-.8-.8-.8a1 1 0 0 0-.8.6c0 .7.3 1.2.9 1.2Zm1.6-.2.2-.3a1.4 1.4 0 0 0 1 .4.9.9 0 0 0 1-.9.8.8 0 0 0-.9-.9 1.2 1.2 0 0 0-.7.3l-.3-.2.2-2h2v.5H258v1.2a1.2 1.2 0 0 1 .5-.2 1.2 1.2 0 0 1 1.3 1.3 1.3 1.3 0 0 1-1.4 1.4 1.8 1.8 0 0 1-1.3-.6Zm3.4.2a.4.4 0 0 1 .4-.4.4.4 0 0 1 .4.4.4.4 0 0 1-.4.4.4.4 0 0 1-.4-.4Zm1.5-1.7c0-1.4.5-2.1 1.3-2.1s1.3.7 1.3 2-.5 2.2-1.3 2.2-1.3-.8-1.3-2.1Zm2.1 0c0-1.2-.3-1.7-.8-1.7s-.8.5-.8 1.7.3 1.7.8 1.7.8-.5.8-1.7Zm1 0c0-1.4.6-2.1 1.4-2.1s1.3.7 1.3 2-.5 2.2-1.3 2.2-1.3-.8-1.3-2.1Zm2.2 0c0-1.2-.3-1.7-.8-1.7s-.8.5-.8 1.7.3 1.7.8 1.7.8-.5.8-1.7Z" fill="#939393"/><path data-name="Rectangle 45" fill="#c6c6c6" d="M.5 296H51v4.4H.5z"/><path data-name="Rectangle 46" fill="#939393" d="M.5 307.4H43v6.5H.5z"/><g data-name="Group 244" fill="#d3d3d3"><path data-name="Path 33" d="m3.5 326.2 1 1.9 2 .3-1.5 1.4.3 2-1.8-.9-1.9 1 .4-2-1.5-1.5 2-.3Z"/><path data-name="Path 34" d="m11.7 326.2 1 1.9 2 .3-1.5 1.4.4 2-1.9-.9-1.8 1 .3-2-1.4-1.5 2-.3Z"/><path data-name="Path 35" d="m20 326.2.9 1.9 2 .3-1.4 1.4.3 2-1.8-.9-1.9 1 .4-2-1.5-1.5 2-.3Z"/><path data-name="Path 36" d="m28.2 326.2 1 1.9 2 .3-1.5 1.4.4 2-1.9-.9-1.8 1 .3-2-1.5-1.5 2.1-.3Z"/><path data-name="Path 37" d="m36.5 326.2.9 1.9 2 .3-1.4 1.4.3 2-1.8-.9-1.9 1 .4-2-1.5-1.5 2-.3Z"/></g><path data-name="Path 38" d="M1.4 322.7a2 2 0 0 1-1-.5l.2-.4a1.5 1.5 0 0 0 1 .4.6.6 0 0 0 .7-.6c0-1-1.8-.8-1.8-2a1 1 0 0 1 1-1.1v-.7h.3v.7a1.4 1.4 0 0 1 1 .4l-.4.3a1 1 0 0 0-.7-.3.6.6 0 0 0-.7.6c0 1 1.8.7 1.8 2a1 1 0 0 1-1 1.2v.6h-.4Zm2-2c0-1.6.8-2.3 1.6-2.3a1.3 1.3 0 0 1 1 .5l-.3.3a.9.9 0 0 0-.6-.3c-.6 0-1 .4-1.1 1.7a1.3 1.3 0 0 1 1-.5 1.1 1.1 0 0 1 1.1 1.3 1.2 1.2 0 0 1-1.2 1.3c-.8 0-1.4-.7-1.4-2Zm1.5 1.6c.4 0 .7-.4.7-1s-.2-.8-.7-.8a1 1 0 0 0-.9.5c0 .8.4 1.3.9 1.3Zm1.6-.2.3-.3a1.4 1.4 0 0 0 1 .4.9.9 0 0 0 1-.9.8.8 0 0 0-1-.9 1.1 1.1 0 0 0-.7.3l-.2-.2v-2H9v.5H7.5l-.2 1.2a1.2 1.2 0 0 1 .7-.2 1.2 1.2 0 0 1 1.2 1.3 1.3 1.3 0 0 1-1.3 1.4 1.8 1.8 0 0 1-1.4-.6Zm3.5.2a.4.4 0 0 1 .3-.4.4.4 0 0 1 .4.4.4.4 0 0 1-.4.4.4.4 0 0 1-.3-.4Zm1.4-1.8c0-1.3.5-2 1.3-2s1.3.7 1.3 2-.5 2.2-1.3 2.2-1.3-.8-1.3-2.2Zm2.1 0c0-1.2-.3-1.6-.8-1.6s-.8.4-.8 1.6.4 1.8.8 1.8.8-.6.8-1.8Zm1.1 0c0-1.3.5-2 1.3-2s1.3.7 1.3 2-.5 2.2-1.3 2.2-1.3-.8-1.3-2.2Zm2.1 0c0-1.2-.3-1.6-.8-1.6s-.8.4-.8 1.6.3 1.8.8 1.8.8-.6.8-1.8Z" fill="#939393"/><path data-name="Rectangle 47" fill="#c6c6c6" d="M125.8 296h50.4v4.4h-50.4z"/><path data-name="Rectangle 48" fill="#939393" d="M125.8 307.4h42.4v6.5h-42.4z"/><g data-name="Group 245" fill="#d3d3d3"><path data-name="Path 39" d="m128.8 326.2.9 1.9 2 .3-1.4 1.4.3 2-1.8-.9-1.9 1 .4-2-1.5-1.5 2-.3Z"/><path data-name="Path 40" d="m137 326.2 1 1.9 2 .3-1.5 1.4.4 2-1.9-.9-1.8 1 .3-2-1.5-1.5 2.1-.3Z"/><path data-name="Path 41" d="m145.3 326.2.9 1.9 2 .3-1.4 1.4.3 2-1.8-.9-1.9 1 .4-2-1.5-1.5 2-.3Z"/><path data-name="Path 42" d="m153.5 326.2 1 1.9 2 .3-1.5 1.4.4 2-1.9-.9-1.8 1 .3-2-1.5-1.5 2-.3Z"/><path data-name="Path 43" d="m161.8 326.2.9 1.9 2 .3-1.5 1.4.4 2-1.8-.9-1.9 1 .4-2-1.5-1.5 2-.3Z"/></g><path data-name="Path 44" d="M126.7 322.7a2 2 0 0 1-1-.5l.2-.4a1.5 1.5 0 0 0 1 .4.6.6 0 0 0 .7-.6c0-1-1.8-.8-1.8-2a1 1 0 0 1 1-1.1v-.7h.3v.7a1.4 1.4 0 0 1 .9.4l-.3.3a1 1 0 0 0-.8-.3.6.6 0 0 0-.6.6c0 1 1.8.7 1.8 2a1 1 0 0 1-1 1.2v.6h-.4Zm2-2c0-1.6.8-2.3 1.6-2.3a1.3 1.3 0 0 1 1 .5l-.3.3a.9.9 0 0 0-.6-.3c-.6 0-1.1.4-1.1 1.7a1.3 1.3 0 0 1 1-.5 1.1 1.1 0 0 1 1 1.3 1.2 1.2 0 0 1-1.1 1.3c-.8 0-1.4-.7-1.4-2Zm1.5 1.6c.4 0 .7-.4.7-1s-.3-.8-.8-.8a1 1 0 0 0-.8.5c0 .8.4 1.3.9 1.3Zm1.6-.2.3-.3a1.4 1.4 0 0 0 1 .4.9.9 0 0 0 .9-.9.8.8 0 0 0-.9-.9 1.1 1.1 0 0 0-.7.3l-.3-.2.2-2h2v.5h-1.6v1.2a1.2 1.2 0 0 1 .6-.2 1.2 1.2 0 0 1 1.2 1.3 1.3 1.3 0 0 1-1.3 1.4 1.8 1.8 0 0 1-1.4-.6Zm3.4.2a.4.4 0 0 1 .4-.4.4.4 0 0 1 .4.4.4.4 0 0 1-.4.4.4.4 0 0 1-.4-.4Zm1.5-1.8c0-1.3.5-2 1.3-2s1.3.7 1.3 2-.5 2.2-1.3 2.2-1.3-.8-1.3-2.2Zm2.1 0c0-1.2-.3-1.6-.8-1.6s-.8.4-.8 1.6.3 1.8.8 1.8.8-.6.8-1.8Zm1 0c0-1.3.6-2 1.4-2s1.3.7 1.3 2-.5 2.2-1.3 2.2-1.3-.8-1.3-2.2Zm2.2 0c0-1.2-.3-1.6-.8-1.6s-.8.4-.8 1.6.3 1.8.8 1.8.8-.6.8-1.8Z" fill="#939393"/><path data-name="Rectangle 49" fill="#c6c6c6" d="M251 296h50.5v4.4H251z"/><path data-name="Rectangle 50" fill="#939393" d="M251 307.4h42.5v6.5H251z"/><g data-name="Group 246" fill="#d3d3d3"><path data-name="Path 45" d="m254 326.2 1 1.9 2 .3-1.4 1.4.3 2-1.8-.9-1.9 1 .4-2-1.5-1.5 2-.3Z"/><path data-name="Path 46" d="m262.3 326.2 1 1.9 2 .3-1.5 1.4.3 2-1.8-.9-1.8 1 .3-2-1.5-1.5 2-.3Z"/><path data-name="Path 47" d="m270.6 326.2.9 1.9 2 .3-1.5 1.4.4 2-1.8-.9-1.9 1 .4-2-1.5-1.5 2-.3Z"/><path data-name="Path 48" d="m278.8 326.2 1 1.9 2 .3-1.5 1.4.3 2-1.8-.9-1.8 1 .3-2-1.5-1.5 2-.3Z"/><path data-name="Path 49" d="m287 326.2 1 1.9 2 .3-1.5 1.4.4 2-1.9-.9-1.8 1 .4-2-1.5-1.5 2-.3Z"/></g><path data-name="Path 50" d="M252 322.7a2 2 0 0 1-1.1-.5l.2-.4a1.5 1.5 0 0 0 1 .4.6.6 0 0 0 .8-.6c0-1-1.8-.8-1.8-2a1 1 0 0 1 .9-1.1v-.7h.4v.7a1.4 1.4 0 0 1 .9.4l-.3.3a1 1 0 0 0-.8-.3.6.6 0 0 0-.6.6c0 1 1.8.7 1.8 2a1 1 0 0 1-1 1.2v.6h-.4Zm2-2c0-1.6.8-2.3 1.6-2.3a1.3 1.3 0 0 1 1 .5l-.3.3a.9.9 0 0 0-.7-.3c-.5 0-1 .4-1 1.7a1.3 1.3 0 0 1 1-.5 1.1 1.1 0 0 1 1 1.3 1.2 1.2 0 0 1-1.1 1.3c-.8 0-1.4-.7-1.4-2Zm1.5 1.6c.4 0 .7-.4.7-1s-.3-.8-.8-.8a1 1 0 0 0-.8.5c0 .8.3 1.3.9 1.3Zm1.6-.2.2-.3a1.4 1.4 0 0 0 1 .4.9.9 0 0 0 1-.9.8.8 0 0 0-.9-.9 1.1 1.1 0 0 0-.7.3l-.3-.2.2-2h2v.5H258v1.2a1.2 1.2 0 0 1 .5-.2 1.2 1.2 0 0 1 1.3 1.3 1.3 1.3 0 0 1-1.4 1.4 1.8 1.8 0 0 1-1.3-.6Zm3.4.2a.4.4 0 0 1 .4-.4.4.4 0 0 1 .4.4.4.4 0 0 1-.4.4.4.4 0 0 1-.4-.4Zm1.5-1.8c0-1.3.5-2 1.3-2s1.3.7 1.3 2-.5 2.2-1.3 2.2-1.3-.8-1.3-2.2Zm2.1 0c0-1.2-.3-1.6-.8-1.6s-.8.4-.8 1.6.3 1.8.8 1.8.8-.6.8-1.8Zm1 0c0-1.3.6-2 1.4-2s1.3.7 1.3 2-.5 2.2-1.3 2.2-1.3-.8-1.3-2.2Zm2.2 0c0-1.2-.3-1.6-.8-1.6s-.8.4-.8 1.6.3 1.8.8 1.8.8-.6.8-1.8Z" fill="#939393"/><g data-name="Group 247"><path data-name="Path 51" d="M43.4 158.6H0v-11.9h43.4Zm-42.4-1h41.4v-9.8H1Z" fill="#939393"/><path data-name="Rectangle 51" fill="#c6c6c6" d="M12 151.4h19.4v2.5H12z"/></g><g data-name="Group 248"><path data-name="Path 52" d="M168.7 158.6h-43.4v-11.9h43.4Zm-42.4-1h41.4v-9.8h-41.4Z" fill="#939393"/><path data-name="Rectangle 52" fill="#c6c6c6" d="M137.4 151.4h19.3v2.5h-19.3z"/></g><g data-name="Group 249"><path data-name="Path 53" d="M294 158.6h-43.4v-11.9H294Zm-42.4-1H293v-9.8h-41.4Z" fill="#939393"/><path data-name="Rectangle 53" fill="#c6c6c6" d="M262.6 151.4H282v2.5h-19.3z"/></g><g data-name="Group 250"><path data-name="Path 54" d="M43.4 348.4H0v-11.9h43.4Zm-42.4-1h41.4v-9.8H1Z" fill="#939393"/><path data-name="Rectangle 54" fill="#c6c6c6" d="M12 341.2h19.4v2.5H12z"/></g><g data-name="Group 251"><path data-name="Path 55" d="M168.7 348.4h-43.4v-11.9h43.4Zm-42.4-1h41.4v-9.8h-41.4Z" fill="#939393"/><path data-name="Rectangle 55" fill="#c6c6c6" d="M137.4 341.2h19.3v2.5h-19.3z"/></g><g data-name="Group 252"><path data-name="Path 56" d="M294 348.4h-43.4v-11.9H294Zm-42.4-1H293v-9.8h-41.4Z" fill="#939393"/><path data-name="Rectangle 56" fill="#c6c6c6" d="M262.6 341.2H282v2.5h-19.3z"/></g></g></svg>