<svg xmlns="http://www.w3.org/2000/svg" width="350" height="318.9"><g data-name="Group 262"><g data-name="Group 257"><path data-name="Rectangle 105" fill="#bcbcbc" d="M0 0h99.6v99.6H0z"/><path data-name="Rectangle 106" fill="#bcbcbc" d="M125.2 0h99.6v99.6h-99.6z"/><path data-name="Rectangle 107" fill="#bcbcbc" d="M250.4 0H350v99.6h-99.6z"/><path data-name="Path 186" d="M55.3 21.3a5.3 5.3 0 0 1-5.2 4.4 5.7 5.7 0 0 1-5.8-4c-.6-2-1-2.1-3-1.5L31 23.4a2.5 2.5 0 0 0-1.5 1.1c-3 5-6 9.8-9.2 14.6-.5 1-.2 1.2.5 1.7l6.5 4.9a1.3 1.3 0 0 0 1.9 0l4.4-3v32.6a2.2 2.2 0 0 0 1.8 2.5 53.7 53.7 0 0 0 28.9 0 1.9 1.9 0 0 0 1.6-2.3V45a2.8 2.8 0 0 1 .2-2l4 2.7a1.4 1.4 0 0 0 2 0 142 142 0 0 1 6.5-4.7c1-.7.8-1.2.3-2l-8.8-14c-.3-.5-.5-1.1-1.2-1.3-3.8-1.2-7.6-2.5-11.5-3.6a3.1 3.1 0 0 0-.8-.2c-.7 0-1.2.4-1.4 1.5" fill="#d3d3d3"/><path data-name="Path 187" d="M168.4 24c-2.7.8-5.4 1.8-8.1 2.5a8.2 8.2 0 0 0-5.3 4.3 13.8 13.8 0 0 0-1.7 5.3c-.6 7.1-1.7 14.2-2.8 21.2a42.9 42.9 0 0 0-.3 13.5c.6 3.5.7 3.4 4.2 3.4h1.2c.2 0 .5 0 .6-.3l1.2-4.8c.9-4.9 1-9.8 2.2-14.7l1.9-9.4a1.3 1.3 0 0 1 .3 0V70a4.3 4.3 0 0 0 3.6 4.7 42.6 42.6 0 0 0 21 0A4.3 4.3 0 0 0 190 70V45h.3l2.2 11c1 4.8 1 9.7 2.1 14.4.4 1.3.4 3 1.3 3.6a4.7 4.7 0 0 0 2.7.3h1.4a4 4 0 0 0 .4 0 .4.4 0 0 0 .4-.4c0-1.2.6-2.1.8-3.2a44.2 44.2 0 0 0-.3-12.7c-1-6.8-2.2-13.6-2.7-20.6a15.2 15.2 0 0 0-2-6.8 8 8 0 0 0-5-4l-8-2.6a5.9 5.9 0 0 0-1.8-.3c-.5 0-.9.1-1 .7-.8 2.4-2.6 4-4.3 5.6-.3.3-.6.6-1 .2-1.7-1.5-3.5-3-4.2-5-.4-1.2-1-1.5-1.6-1.5a4.8 4.8 0 0 0-1.3.3" fill="#d3d3d3"/><path data-name="Path 188" d="M306.4 42.4a.4.4 0 0 0-.5-.2.4.4 0 0 0-.4.2 4 4 0 0 0-.1 1.2v5.9a4.3 4.3 0 0 0 0 1.3.4.4 0 0 0 .5.2.4.4 0 0 0 .5-.3 3.7 3.7 0 0 0 0-1.1v-6a4.7 4.7 0 0 0 0-1.2m0 0a.4.4 0 0 0-.5-.2.4.4 0 0 0-.4.2 4 4 0 0 0-.1 1.2v5.9a4.3 4.3 0 0 0 0 1.3.4.4 0 0 0 .5.2.4.4 0 0 0 .5-.3 3.7 3.7 0 0 0 0-1.1v-6a4.7 4.7 0 0 0 0-1.2m-3.3 27a74.5 74.5 0 0 1-10.2-.7 70 70 0 0 1-4.8-.8v5.4a2 2 0 0 0 1.7 2.4 49.6 49.6 0 0 0 26.7-.1 1.8 1.8 0 0 0 1.5-2V68a81.5 81.5 0 0 1-15 1.4m15-3.8V45.2a2.6 2.6 0 0 1 .2-1.7s-8.7-5.7-3.1-19.7l-5-1.5a2.9 2.9 0 0 0-.7-.2c-.6 0-1.1.4-1.3 1.4a4.9 4.9 0 0 1-4.8 4A5.3 5.3 0 0 1 298 24c-.6-1.9-1-2-2.9-1.4l-4.7 1.4c5.8 11.8-2.3 19.4-2.3 19.4v22.1a74.8 74.8 0 0 0 29.8.2m-15.5-21a8.1 8.1 0 0 1 .3-2.5 2.5 2.5 0 0 1 1.1-1.3 4 4 0 0 1 2-.5 4.3 4.3 0 0 1 1.8.4 3 3 0 0 1 1.2.8 2.8 2.8 0 0 1 .5 1.1 10.2 10.2 0 0 1 .2 2v4a9.5 9.5 0 0 1-.2 2 2.8 2.8 0 0 1-.6 1.2 2.7 2.7 0 0 1-1.1.8 4.4 4.4 0 0 1-1.5.2 5.5 5.5 0 0 1-1.8-.2 2.5 2.5 0 0 1-1.1-.8 3.3 3.3 0 0 1-.6-1.1 7 7 0 0 1-.2-1.9Zm-6.3-2.1a5.5 5.5 0 0 0 3.3-2h1.8v12.1h-3v-6.5a11.3 11.3 0 0 0 0-1.6.6.6 0 0 0-.4-.5 3.8 3.8 0 0 0-1.4-.1h-.3ZM306 51a.4.4 0 0 0 .5-.3 3.7 3.7 0 0 0 0-1.1v-6a4.7 4.7 0 0 0 0-1.2.4.4 0 0 0-.5-.2.4.4 0 0 0-.4.2 4 4 0 0 0-.1 1.2v5.9a4.3 4.3 0 0 0 0 1.3.4.4 0 0 0 .5.2" fill="#d3d3d3"/><path data-name="Rectangle 108" fill="#c6c6c6" d="M0 110.2h40.7v4.4H0z"/><path data-name="Rectangle 109" fill="#939393" d="M0 123.6h58.8v7H0z"/><path data-name="Path 189" d="m93 118.2-5.6-5.6a3.5 3.5 0 0 1 0-4.9 3.5 3.5 0 0 1 5 0l.6.7.7-.7a3.4 3.4 0 0 1 2.4-1 3.4 3.4 0 0 1 2.5 1 3.5 3.5 0 0 1 0 5Zm-3.1-10.7a2.7 2.7 0 0 0-1.9.8 2.7 2.7 0 0 0 0 3.7l5 5 5-5a2.7 2.7 0 0 0 0-3.7 2.6 2.6 0 0 0-1.9-.8 2.6 2.6 0 0 0-1.9.8l-1.2 1.2-1.2-1.2a2.7 2.7 0 0 0-1.9-.8" fill="#939393"/><path data-name="Path 190" d="M2.4 145a3.2 3.2 0 0 1-1.8-.8l.4-.6a2.6 2.6 0 0 0 1.6.7 1 1 0 0 0 1.2-1.1c0-1.7-3-1.4-3-3.4a1.7 1.7 0 0 1 1.6-1.8v-1H3v1a2.3 2.3 0 0 1 1.5.8l-.4.5a1.7 1.7 0 0 0-1.3-.6 1 1 0 0 0-1.1 1c0 1.6 3 1.1 3 3.4A1.8 1.8 0 0 1 3 145v1h-.6Zm3.4-3.2c0-2.8 1.3-3.8 2.6-3.8a2.2 2.2 0 0 1 1.7.7l-.5.5a1.5 1.5 0 0 0-1.1-.5c-1 0-1.8.7-1.8 2.9a2.2 2.2 0 0 1 1.5-.9 1.8 1.8 0 0 1 2 2.1 2 2 0 0 1-2 2.2c-1.4 0-2.4-1-2.4-3.2Zm2.4 2.5c.6 0 1.2-.6 1.2-1.5s-.5-1.4-1.3-1.4a1.8 1.8 0 0 0-1.4 1c0 1.2.6 2 1.5 2Zm2.7-.2.4-.6a2.3 2.3 0 0 0 1.7.8 1.5 1.5 0 0 0 1.5-1.6 1.4 1.4 0 0 0-1.4-1.5 2 2 0 0 0-1.2.5l-.5-.3.3-3.3H15v.7h-2.7l-.1 2a2 2 0 0 1 1-.2 2 2 0 0 1 2.1 2.1 2.2 2.2 0 0 1-2.3 2.3 3 3 0 0 1-2.2-.9Zm5.7.3a.6.6 0 0 1 .7-.7.6.6 0 0 1 .6.7.6.6 0 0 1-.6.6.6.6 0 0 1-.7-.6Zm2.5-3c0-2.2.8-3.4 2.1-3.4s2.2 1.2 2.2 3.5-.8 3.5-2.2 3.5-2.1-1.2-2.1-3.5Zm3.5 0c0-2-.6-2.7-1.4-2.7s-1.3.8-1.3 2.8.5 2.8 1.3 2.8 1.4-.8 1.4-2.8Zm1.8 0c0-2.2.8-3.4 2.1-3.4s2.2 1.2 2.2 3.5-.8 3.5-2.2 3.5-2.1-1.2-2.1-3.5Zm3.5 0c0-2-.6-2.7-1.4-2.7s-1.3.8-1.3 2.8.5 2.8 1.3 2.8 1.4-.8 1.4-2.8Z" fill="#939393"/><path data-name="Rectangle 110" fill="#c6c6c6" d="M125.2 110.2H166v4.4h-40.7z"/><path data-name="Rectangle 111" fill="#939393" d="M125.2 123.6H184v7h-58.8z"/><path data-name="Path 191" d="m218.2 118.2-5.5-5.6a3.5 3.5 0 0 1 0-4.9 3.5 3.5 0 0 1 4.9 0l.6.7.7-.7a3.4 3.4 0 0 1 2.4-1 3.4 3.4 0 0 1 2.5 1 3.5 3.5 0 0 1 0 5Zm-3.1-10.7a2.7 2.7 0 0 0-1.9.8 2.7 2.7 0 0 0 0 3.7l5 5 5-5a2.7 2.7 0 0 0 0-3.7 2.6 2.6 0 0 0-1.9-.8 2.6 2.6 0 0 0-1.8.8l-1.3 1.2-1.2-1.2a2.7 2.7 0 0 0-1.9-.8" fill="#939393"/><path data-name="Path 192" d="M127.6 145a3.3 3.3 0 0 1-1.8-.8l.4-.6a2.6 2.6 0 0 0 1.6.7 1 1 0 0 0 1.2-1.1c0-1.7-3-1.4-3-3.4a1.7 1.7 0 0 1 1.6-1.8v-1h.6v1a2.3 2.3 0 0 1 1.5.8l-.4.5a1.7 1.7 0 0 0-1.3-.6 1 1 0 0 0-1.1 1c0 1.6 3 1.1 3 3.4a1.8 1.8 0 0 1-1.7 1.9v1h-.6Zm3.4-3.2c0-2.8 1.3-3.8 2.6-3.8a2.2 2.2 0 0 1 1.7.7l-.5.5a1.5 1.5 0 0 0-1.1-.5c-1 0-1.8.7-1.8 2.9a2.2 2.2 0 0 1 1.6-.9 1.8 1.8 0 0 1 1.9 2.1 2 2 0 0 1-2 2.2c-1.4 0-2.4-1-2.4-3.2Zm2.4 2.5c.6 0 1.2-.6 1.2-1.5s-.5-1.4-1.3-1.4a1.8 1.8 0 0 0-1.4 1c0 1.2.6 2 1.5 2Zm2.7-.2.4-.6a2.3 2.3 0 0 0 1.7.8 1.5 1.5 0 0 0 1.5-1.6 1.4 1.4 0 0 0-1.4-1.5 2 2 0 0 0-1.2.5l-.5-.3.3-3.3h3.4v.7h-2.7l-.1 2a2 2 0 0 1 1-.2 2 2 0 0 1 2.1 2.1 2.2 2.2 0 0 1-2.3 2.3 3 3 0 0 1-2.2-.9Zm5.7.3a.6.6 0 0 1 .7-.7.6.6 0 0 1 .6.7.6.6 0 0 1-.6.6.6.6 0 0 1-.7-.6Zm2.5-3c0-2.2.8-3.4 2.1-3.4s2.2 1.2 2.2 3.5-.8 3.5-2.2 3.5-2.1-1.2-2.1-3.5Zm3.5 0c0-2-.6-2.7-1.4-2.7s-1.3.8-1.3 2.8.6 2.8 1.3 2.8 1.4-.8 1.4-2.8Zm1.8 0c0-2.2.8-3.4 2.2-3.4s2.1 1.2 2.1 3.5-.8 3.5-2.1 3.5-2.2-1.2-2.2-3.5Zm3.5 0c0-2-.6-2.7-1.3-2.7s-1.4.8-1.4 2.8.6 2.8 1.4 2.8 1.3-.8 1.3-2.8Z" fill="#939393"/><path data-name="Rectangle 112" fill="#c6c6c6" d="M250.4 110.2h40.7v4.4h-40.7z"/><path data-name="Rectangle 113" fill="#939393" d="M250.4 123.6h58.8v7h-58.8z"/><path data-name="Path 193" d="m343.4 118.2-5.5-5.6a3.5 3.5 0 0 1 0-4.9 3.5 3.5 0 0 1 4.9 0l.6.7.7-.7a3.4 3.4 0 0 1 2.4-1 3.4 3.4 0 0 1 2.5 1 3.5 3.5 0 0 1 0 5Zm-3-10.7a2.7 2.7 0 0 0-2 .8 2.7 2.7 0 0 0 0 3.7l5 5 5-5a2.7 2.7 0 0 0 0-3.7 2.6 2.6 0 0 0-1.9-.8 2.6 2.6 0 0 0-1.8.8l-1.3 1.2-1.2-1.2a2.7 2.7 0 0 0-1.9-.8" fill="#939393"/><path data-name="Path 194" d="M252.8 145a3.3 3.3 0 0 1-1.8-.8l.4-.6a2.6 2.6 0 0 0 1.6.7 1 1 0 0 0 1.2-1.1c0-1.7-3-1.4-3-3.4a1.7 1.7 0 0 1 1.6-1.8v-1h.6v1a2.3 2.3 0 0 1 1.5.8l-.4.5a1.7 1.7 0 0 0-1.3-.6 1 1 0 0 0-1 1c0 1.6 2.9 1.1 2.9 3.4a1.8 1.8 0 0 1-1.7 1.9v1h-.6Zm3.4-3.2c0-2.8 1.3-3.8 2.6-3.8a2.2 2.2 0 0 1 1.7.7l-.5.5a1.5 1.5 0 0 0-1.1-.5c-1 0-1.8.7-1.8 2.9a2.2 2.2 0 0 1 1.6-.9 1.8 1.8 0 0 1 2 2.1 2 2 0 0 1-2.1 2.2c-1.3 0-2.4-1-2.4-3.2Zm2.4 2.5c.7 0 1.2-.6 1.2-1.5s-.4-1.4-1.3-1.4a1.8 1.8 0 0 0-1.4 1c.1 1.2.6 2 1.5 2Zm2.7-.2.4-.6a2.3 2.3 0 0 0 1.8.8 1.5 1.5 0 0 0 1.4-1.6 1.4 1.4 0 0 0-1.4-1.5 2 2 0 0 0-1.2.5l-.4-.3.2-3.3h3.4v.7h-2.6l-.2 2a2 2 0 0 1 1-.2 2 2 0 0 1 2.1 2.1 2.2 2.2 0 0 1-2.3 2.3 3 3 0 0 1-2.2-.9Zm5.7.3a.6.6 0 0 1 .7-.7.6.6 0 0 1 .6.7.6.6 0 0 1-.6.6.6.6 0 0 1-.7-.6Zm2.5-3c0-2.2.8-3.4 2.2-3.4s2.1 1.2 2.1 3.5-.8 3.5-2.1 3.5-2.2-1.2-2.2-3.5Zm3.5 0c0-2-.6-2.7-1.3-2.7s-1.4.8-1.4 2.8.6 2.8 1.4 2.8 1.3-.8 1.3-2.8Zm1.8 0c0-2.2.8-3.4 2.2-3.4s2.1 1.2 2.1 3.5-.8 3.5-2.1 3.5-2.2-1.2-2.2-3.5Zm3.5 0c0-2-.5-2.7-1.3-2.7s-1.4.8-1.4 2.8.6 2.8 1.4 2.8 1.3-.8 1.3-2.8Z" fill="#939393"/><path data-name="Rectangle 114" fill="#c6c6c6" d="M0 283h40.7v4.4H0z"/><path data-name="Rectangle 115" fill="#939393" d="M0 296.4h58.8v7H0z"/><path data-name="Path 195" d="m93 291-5.6-5.6a3.5 3.5 0 0 1 0-4.9 3.5 3.5 0 0 1 5 0l.6.7.7-.7a3.4 3.4 0 0 1 2.4-1 3.4 3.4 0 0 1 2.5 1 3.5 3.5 0 0 1 0 5Zm-3.1-10.7a2.7 2.7 0 0 0-1.9.8 2.7 2.7 0 0 0 0 3.7l5 5 5-5a2.7 2.7 0 0 0 0-3.7 2.6 2.6 0 0 0-1.9-.8 2.6 2.6 0 0 0-1.9.8l-1.2 1.2-1.2-1.2a2.7 2.7 0 0 0-1.9-.8" fill="#939393"/><path data-name="Path 196" d="M2.4 317.8a3.3 3.3 0 0 1-1.8-.8l.4-.6a2.6 2.6 0 0 0 1.6.7 1 1 0 0 0 1.2-1.1c0-1.7-3-1.4-3-3.4a1.7 1.7 0 0 1 1.6-1.8v-1H3v1a2.3 2.3 0 0 1 1.5.8l-.4.5a1.7 1.7 0 0 0-1.3-.6 1 1 0 0 0-1.1 1c0 1.6 3 1.1 3 3.4a1.8 1.8 0 0 1-1.7 1.9v1h-.6Zm3.4-3.2c0-2.8 1.3-3.8 2.6-3.8a2.2 2.2 0 0 1 1.7.7l-.5.5a1.5 1.5 0 0 0-1.1-.5c-1 0-1.8.7-1.8 2.9a2.2 2.2 0 0 1 1.5-.9 1.8 1.8 0 0 1 2 2.1 2 2 0 0 1-2 2.2c-1.4 0-2.4-1-2.4-3.2Zm2.4 2.5c.6 0 1.2-.6 1.2-1.5s-.5-1.4-1.3-1.4a1.8 1.8 0 0 0-1.4.9c0 1.3.6 2 1.5 2Zm2.7-.2.4-.6a2.3 2.3 0 0 0 1.7.8 1.5 1.5 0 0 0 1.5-1.6 1.4 1.4 0 0 0-1.4-1.5 2 2 0 0 0-1.2.5l-.5-.3.3-3.3H15v.7h-2.7l-.1 2a2 2 0 0 1 1-.2 2 2 0 0 1 2.1 2.1 2.2 2.2 0 0 1-2.3 2.3 3 3 0 0 1-2.2-.9Zm5.7.3a.6.6 0 0 1 .7-.7.6.6 0 0 1 .6.7.6.6 0 0 1-.6.6.6.6 0 0 1-.7-.6Zm2.5-3c0-2.2.8-3.4 2.1-3.4s2.2 1.2 2.2 3.5-.8 3.5-2.2 3.5-2.1-1.2-2.1-3.5Zm3.5 0c0-2-.6-2.7-1.4-2.7s-1.3.8-1.3 2.8.5 2.8 1.3 2.8 1.4-.8 1.4-2.8Zm1.8 0c0-2.2.8-3.4 2.1-3.4s2.2 1.2 2.2 3.5-.8 3.5-2.2 3.5-2.1-1.2-2.1-3.5Zm3.5 0c0-2-.6-2.7-1.4-2.7s-1.3.8-1.3 2.8.5 2.8 1.3 2.8 1.4-.8 1.4-2.8Z" fill="#939393"/><path data-name="Rectangle 116" fill="#c6c6c6" d="M125.2 283H166v4.4h-40.7z"/><path data-name="Rectangle 117" fill="#939393" d="M125.2 296.4H184v7h-58.8z"/><path data-name="Path 197" d="m218.2 291-5.5-5.6a3.5 3.5 0 0 1 0-4.9 3.5 3.5 0 0 1 4.9 0l.6.7.7-.7a3.4 3.4 0 0 1 2.4-1 3.4 3.4 0 0 1 2.5 1 3.5 3.5 0 0 1 0 5Zm-3.1-10.7a2.6 2.6 0 0 0-1.9.8 2.7 2.7 0 0 0 0 3.7l5 5 5-5a2.7 2.7 0 0 0 0-3.7 2.6 2.6 0 0 0-1.9-.8 2.6 2.6 0 0 0-1.8.8l-1.3 1.2-1.2-1.2a2.7 2.7 0 0 0-1.9-.8" fill="#939393"/><path data-name="Path 198" d="M127.6 317.8a3.3 3.3 0 0 1-1.8-.8l.4-.6a2.6 2.6 0 0 0 1.6.7 1 1 0 0 0 1.2-1.1c0-1.7-3-1.4-3-3.4a1.7 1.7 0 0 1 1.6-1.8v-1h.6v1a2.3 2.3 0 0 1 1.5.8l-.4.5a1.7 1.7 0 0 0-1.3-.6 1 1 0 0 0-1.1 1c0 1.6 3 1.1 3 3.4a1.8 1.8 0 0 1-1.7 1.9v1h-.6Zm3.4-3.2c0-2.8 1.3-3.8 2.6-3.8a2.2 2.2 0 0 1 1.7.7l-.5.5a1.5 1.5 0 0 0-1.1-.5c-1 0-1.8.7-1.8 2.9a2.2 2.2 0 0 1 1.6-.9 1.8 1.8 0 0 1 1.9 2.1 2 2 0 0 1-2 2.2c-1.4 0-2.4-1-2.4-3.2Zm2.4 2.5c.6 0 1.2-.6 1.2-1.5s-.5-1.4-1.3-1.4a1.8 1.8 0 0 0-1.4.9c0 1.3.6 2 1.5 2Zm2.7-.2.4-.6a2.3 2.3 0 0 0 1.7.8 1.5 1.5 0 0 0 1.5-1.6 1.4 1.4 0 0 0-1.4-1.5 2 2 0 0 0-1.2.5l-.5-.3.3-3.3h3.4v.7h-2.7l-.1 2a2 2 0 0 1 1-.2 2 2 0 0 1 2.1 2.1 2.2 2.2 0 0 1-2.3 2.3 3 3 0 0 1-2.2-.9Zm5.7.3a.6.6 0 0 1 .7-.7.6.6 0 0 1 .6.7.6.6 0 0 1-.6.6.6.6 0 0 1-.7-.6Zm2.5-3c0-2.2.8-3.4 2.1-3.4s2.2 1.2 2.2 3.5-.8 3.5-2.2 3.5-2.1-1.2-2.1-3.5Zm3.5 0c0-2-.6-2.7-1.4-2.7s-1.3.8-1.3 2.8.6 2.8 1.3 2.8 1.4-.8 1.4-2.8Zm1.8 0c0-2.2.8-3.4 2.2-3.4s2.1 1.2 2.1 3.5-.8 3.5-2.1 3.5-2.2-1.2-2.2-3.5Zm3.5 0c0-2-.6-2.7-1.3-2.7s-1.4.8-1.4 2.8.6 2.8 1.4 2.8 1.3-.8 1.3-2.8Z" fill="#939393"/><path data-name="Rectangle 118" fill="#c6c6c6" d="M250.4 283h40.7v4.4h-40.7z"/><path data-name="Rectangle 119" fill="#939393" d="M250.4 296.4h58.8v7h-58.8z"/><path data-name="Path 199" d="m343.4 291-5.5-5.6a3.5 3.5 0 0 1 0-4.9 3.5 3.5 0 0 1 4.9 0l.6.7.7-.7a3.4 3.4 0 0 1 2.4-1 3.4 3.4 0 0 1 2.5 1 3.5 3.5 0 0 1 0 5Zm-3-10.7a2.7 2.7 0 0 0-2 .8 2.7 2.7 0 0 0 0 3.7l5 5 5-5a2.7 2.7 0 0 0 0-3.7 2.6 2.6 0 0 0-1.9-.8 2.6 2.6 0 0 0-1.8.8l-1.3 1.2-1.2-1.2a2.7 2.7 0 0 0-1.9-.8" fill="#939393"/><path data-name="Path 200" d="M252.8 317.8a3.3 3.3 0 0 1-1.8-.8l.4-.6a2.6 2.6 0 0 0 1.6.7 1 1 0 0 0 1.2-1.1c0-1.7-3-1.4-3-3.4a1.7 1.7 0 0 1 1.6-1.8v-1h.6v1a2.3 2.3 0 0 1 1.5.8l-.4.5a1.7 1.7 0 0 0-1.3-.6 1 1 0 0 0-1 1c0 1.6 2.9 1.1 2.9 3.4a1.8 1.8 0 0 1-1.7 1.9v1h-.6Zm3.4-3.2c0-2.8 1.3-3.8 2.6-3.8a2.2 2.2 0 0 1 1.7.7l-.5.5a1.5 1.5 0 0 0-1.1-.5c-1 0-1.8.7-1.8 2.9a2.2 2.2 0 0 1 1.6-.9 1.8 1.8 0 0 1 2 2.1 2 2 0 0 1-2.1 2.2c-1.3 0-2.4-1-2.4-3.2Zm2.4 2.5c.7 0 1.2-.6 1.2-1.5s-.4-1.4-1.3-1.4a1.8 1.8 0 0 0-1.4.9c.1 1.3.6 2 1.5 2Zm2.7-.2.4-.6a2.3 2.3 0 0 0 1.8.8 1.5 1.5 0 0 0 1.4-1.6 1.4 1.4 0 0 0-1.4-1.5 2 2 0 0 0-1.2.5l-.4-.3.2-3.3h3.4v.7h-2.6l-.2 2a2 2 0 0 1 1-.2 2 2 0 0 1 2.1 2.1 2.2 2.2 0 0 1-2.3 2.3 3 3 0 0 1-2.2-.9Zm5.7.3a.6.6 0 0 1 .7-.7.6.6 0 0 1 .6.7.6.6 0 0 1-.6.6.6.6 0 0 1-.7-.6Zm2.5-3c0-2.2.8-3.4 2.2-3.4s2.1 1.2 2.1 3.5-.8 3.5-2.1 3.5-2.2-1.2-2.2-3.5Zm3.5 0c0-2-.6-2.7-1.3-2.7s-1.4.8-1.4 2.8.6 2.8 1.4 2.8 1.3-.8 1.3-2.8Zm1.8 0c0-2.2.8-3.4 2.2-3.4s2.1 1.2 2.1 3.5-.8 3.5-2.1 3.5-2.2-1.2-2.2-3.5Zm3.5 0c0-2-.5-2.7-1.3-2.7s-1.4.8-1.4 2.8.6 2.8 1.4 2.8 1.3-.8 1.3-2.8Z" fill="#939393"/><path data-name="Rectangle 120" fill="#bcbcbc" d="M0 172.8h99.6v99.6H0z"/><path data-name="Rectangle 121" fill="#bcbcbc" d="M125.2 172.8h99.6v99.6h-99.6z"/><path data-name="Rectangle 122" fill="#bcbcbc" d="M250.4 172.8H350v99.6h-99.6z"/><path data-name="Path 201" d="m51.2 205.4 7.4-8.8-2-.5a3.3 3.3 0 0 0-3.6 1.3l-2.2 3.2a1.3 1.3 0 0 1-2 0l-2.1-3.1A3.4 3.4 0 0 0 43 196c-.6 0-1.2.3-1.8.4h-.1l7.6 9a1.6 1.6 0 0 0 2.4-.1" fill="#d3d3d3"/><path data-name="Path 202" d="M64.2 239.3V235a70.4 70.4 0 0 1-14.5 1.5 69.7 69.7 0 0 1-9.6-.6l-4.7-.9v4.2a68.4 68.4 0 0 0 28.8 0" fill="#d3d3d3"/><path data-name="Path 203" d="M49.7 242.6a69.8 69.8 0 0 1-9.6-.6l-4.7-.9v4.2a2 2 0 0 0 1.7 2.3 47.8 47.8 0 0 0 25.7-.1 1.7 1.7 0 0 0 1.4-2v-4.4a70.3 70.3 0 0 1-14.5 1.5" fill="#d3d3d3"/><path data-name="Path 204" d="M75.8 213 68 200.3c-.3-.4-.5-1-1-1.1l-6.5-2-8.3 9.7a3 3 0 0 1-4.4 0l-8.5-9.8c-2 .6-4.1 1.2-6.2 2a2.2 2.2 0 0 0-1.3 1l-8.1 13c-.5.7-.3 1 .3 1.4L30 219a1.2 1.2 0 0 0 1.6 0c1.2-.9 2.4-1.7 4-2.6v16.9a68.5 68.5 0 0 0 28.7 0v-15a2.5 2.5 0 0 1 .2-1.8L68 219a1.2 1.2 0 0 0 1.8 0l5.7-4.2c.9-.6.8-1 .3-1.8" fill="#d3d3d3"/><path data-name="Path 205" d="M201.6 208.6a54 54 0 0 0-4 7.5c-.7 1.6-1.5 2-3.2 1.4-3.6-1.2-3.6-1.1-3.6 2.7v24c0 2-.6 2.7-2.6 2.7q-13.3-.1-26.5 0c-2 0-2.6-.8-2.6-2.7v-26c0-1.5-.2-1.8-1.6-1.4-4.7 1.4-3.8 2-6.2-2.6l-2.6-5.2c-.6-1-.4-1.9.7-2.3 4.2-1.8 8.2-4.2 12.6-5.4 1.1-.3 1.7-.3 2.2 1 .7 1.6 1.7 3.2 2.5 4.7 2 3.7 3 4.1 7 2v9.3c0 1-.1 2.1 1.3 2 1.3 0 1.3-1 1.3-1.9v-9.1l.4-.2c3.4 2 4.6 1.6 6.4-1.8l2.6-5.2c.5-1 1-1.2 2-.9a78.7 78.7 0 0 1 14 6.2Z" fill="#d3d3d3"/><path data-name="Path 206" d="M183.6 200.3a1 1 0 0 1-.1.5l-1.7 3.1-1 1.7-.3.8c-.2.3-.5 1-.8 1.1s-.8-.2-1-.4c-1.3-1-2.4-2.4-3.7-2.5-1.4-.2-2.5 1.6-3.7 2.5-.8.6-1.3.5-1.7-.4l-3-5.7c-.4-.8.1-1.5.8-2l1-.8c.3-.4.6-.8 1-.8.7-.1 1.3.5 1.7 1 1.2 1.5 2.3 4 4 4 1.2 0 2.5-2.6 3.8-4 .4-.5.8-1.6 1.7-1l1.7 1.3c.5.4 1.3 1 1.3 1.6" fill="#d3d3d3"/><path data-name="Path 207" d="M328 228.6c-.3-5-.5-9.9-.5-14.8a5.3 5.3 0 0 0-3-5c-3.5-2-7.4-2.7-11.4-3-1.3 0-2.4 0-3.3-1.6-1.3-2.3-6.9-2-8.2.3a2.5 2.5 0 0 1-2.5 1.3 36.9 36.9 0 0 0-13.8 4c-2.3 1.2-3.7 2.7-3.7 5.6 0 3-.4 6 0 9a2 2 0 0 1-1.2 2.5l-8 5c10.9.4 20.6 3.1 29 9.6 2.2 1.6 3.8 1.4 5.6-.2l7.5-6.9a5 5 0 0 1 3.5-1.5 33.4 33.4 0 0 0 7.5-1c1.8-.4 2.7-1.3 2.5-3.3m-43.4-2.6c12.6-4.7 23.7 4.6 23.7 4.6a91.8 91.8 0 0 0-23.7-4.6" fill="#d3d3d3"/><path data-name="Path 208" d="M272.4 235c4.3-.8 8.4-.5 12.7 2.3a21.3 21.3 0 0 1-12.7-2.3" fill="#d3d3d3"/></g></g></svg>