<svg xmlns="http://www.w3.org/2000/svg" width="350" height="311.9"><g data-name="Group 254"><path data-name="Rectangle 57" fill="#bcbcbc" d="M0 0h99.6v99.6H0z"/><path data-name="Rectangle 58" fill="#bcbcbc" d="M125.2 0h99.6v99.6h-99.6z"/><path data-name="Rectangle 59" fill="#bcbcbc" d="M250.4 0H350v99.6h-99.6z"/><path data-name="Path 57" d="M55.3 21.3a5.3 5.3 0 0 1-5.2 4.4 5.7 5.7 0 0 1-5.7-4c-.7-2-1-2.1-3.1-1.5L31 23.4a2.5 2.5 0 0 0-1.5 1.1c-3 4.9-6 9.8-9.2 14.6-.5 1-.2 1.2.5 1.7l6.5 4.9a1.3 1.3 0 0 0 1.9 0l4.4-3v32.6a2.2 2.2 0 0 0 1.8 2.5 53.7 53.7 0 0 0 28.9 0 1.9 1.9 0 0 0 1.6-2.3V44.9a2.8 2.8 0 0 1 .2-2l4 2.7a1.4 1.4 0 0 0 2 0l6.5-4.7c1-.7.8-1.2.3-2l-8.8-14c-.3-.5-.5-1.1-1.2-1.3-3.8-1.2-7.6-2.5-11.5-3.6a3.1 3.1 0 0 0-.8-.2c-.7 0-1.2.4-1.4 1.5" fill="#d3d3d3"/><path data-name="Path 58" d="M168.4 24c-2.7.8-5.4 1.8-8.1 2.5a8.2 8.2 0 0 0-5.3 4.3 13.8 13.8 0 0 0-1.7 5.3c-.6 7.1-1.7 14.2-2.8 21.2a43 43 0 0 0-.3 13.5c.6 3.5.7 3.4 4.2 3.4h1.2c.2 0 .5 0 .6-.3l1.2-4.8c.9-4.9 1-9.8 2.2-14.7l1.9-9.4a1.4 1.4 0 0 1 .3 0V70a4.3 4.3 0 0 0 3.6 4.7 42.7 42.7 0 0 0 21 0A4.3 4.3 0 0 0 190 70V45h.3l2.2 11c1 4.8 1 9.7 2.1 14.4.4 1.3.4 3 1.3 3.6a4.7 4.7 0 0 0 2.7.3h1.4a4 4 0 0 0 .4 0 .4.4 0 0 0 .4-.4c0-1.2.6-2.1.8-3.2a44.2 44.2 0 0 0-.3-12.7c-1-6.8-2.2-13.6-2.7-20.6a15.2 15.2 0 0 0-2-6.8 8 8 0 0 0-5-4l-8-2.6a5.9 5.9 0 0 0-1.8-.3c-.5 0-.9.1-1 .7-.8 2.4-2.6 4-4.3 5.6-.3.3-.6.6-1 .2-1.7-1.5-3.5-3-4.2-5-.4-1.2-1-1.5-1.6-1.5a4.9 4.9 0 0 0-1.3.3" fill="#d3d3d3"/><path data-name="Path 59" d="M306.4 42.4a.4.4 0 0 0-.5-.2.4.4 0 0 0-.4.2 4 4 0 0 0-.1 1.2v5.9a4.2 4.2 0 0 0 0 1.2.4.4 0 0 0 .5.3.4.4 0 0 0 .5-.3 3.7 3.7 0 0 0 0-1.1v-6a4.6 4.6 0 0 0 0-1.2m0 0a.4.4 0 0 0-.5-.2.4.4 0 0 0-.4.2 4 4 0 0 0-.1 1.2v5.9a4.2 4.2 0 0 0 0 1.3.4.4 0 0 0 .5.2.4.4 0 0 0 .5-.3 3.7 3.7 0 0 0 0-1.1v-6a4.6 4.6 0 0 0 0-1.2m-3.3 27a74.4 74.4 0 0 1-10.2-.7L288 68v5.4a2 2 0 0 0 1.7 2.4 49.6 49.6 0 0 0 26.7-.1 1.8 1.8 0 0 0 1.5-2V68a81.5 81.5 0 0 1-15 1.4m15-3.8V45.2a2.6 2.6 0 0 1 .2-1.7s-8.7-5.7-3.1-19.7l-5-1.5a2.9 2.9 0 0 0-.7-.2c-.6 0-1.1.3-1.3 1.4a5 5 0 0 1-4.8 4A5.3 5.3 0 0 1 298 24c-.6-1.9-1-2-2.8-1.4l-4.8 1.4c5.8 11.8-2.3 19.4-2.3 19.4v22.1a74.8 74.8 0 0 0 29.8.2m-15.5-21a8 8 0 0 1 .3-2.5 2.5 2.5 0 0 1 1.1-1.3 4 4 0 0 1 2-.5 4.3 4.3 0 0 1 1.8.4 3 3 0 0 1 1.2.8 2.8 2.8 0 0 1 .5 1.1 10.2 10.2 0 0 1 .2 2v4a9.5 9.5 0 0 1-.2 2 2.7 2.7 0 0 1-.6 1.2 2.7 2.7 0 0 1-1.1.8 4.3 4.3 0 0 1-1.5.2 5.5 5.5 0 0 1-1.8-.2 2.5 2.5 0 0 1-1.1-.8 3.3 3.3 0 0 1-.6-1.1 7 7 0 0 1-.2-1.9Zm-6.3-2.1a5.5 5.5 0 0 0 3.3-2h1.8v12h-3v-6.4a11.3 11.3 0 0 0 0-1.7.6.6 0 0 0-.4-.4 3.8 3.8 0 0 0-1.4-.1h-.3ZM306 51a.4.4 0 0 0 .5-.3 3.7 3.7 0 0 0 0-1.1v-6a4.6 4.6 0 0 0 0-1.2.4.4 0 0 0-.5-.2.4.4 0 0 0-.4.2 4 4 0 0 0-.1 1.2v5.9a4.2 4.2 0 0 0 0 1.2.4.4 0 0 0 .5.3" fill="#d3d3d3"/><path data-name="Rectangle 60" fill="#c6c6c6" d="M29.5 123.3h40.7v4.4H29.5z"/><path data-name="Rectangle 61" fill="#939393" d="M12.2 108.1h75.1v6.7h-75z"/><path data-name="Rectangle 62" fill="#c6c6c6" d="M154.7 123.3h40.7v4.4h-40.7z"/><path data-name="Rectangle 63" fill="#939393" d="M137.5 108.1h75v6.7h-75z"/><path data-name="Rectangle 64" fill="#c6c6c6" d="M279.9 123.3h40.7v4.4h-40.7z"/><path data-name="Rectangle 65" fill="#939393" d="M262.7 108.1h75v6.7h-75z"/><path data-name="Path 60" d="m87.2 17.9-5.5-5.6a3.5 3.5 0 0 1 0-4.9 3.5 3.5 0 0 1 4.9 0l.6.7.7-.7a3.4 3.4 0 0 1 2.4-1 3.4 3.4 0 0 1 2.5 1 3.5 3.5 0 0 1 0 5Zm-3-10.7a2.7 2.7 0 0 0-2 .8 2.7 2.7 0 0 0 0 3.8l5 5 5-5a2.7 2.7 0 0 0 0-3.8 2.7 2.7 0 0 0-1.9-.8 2.6 2.6 0 0 0-1.8.8l-1.3 1.2L86 8a2.7 2.7 0 0 0-1.9-.8" fill="#fff"/><path data-name="Path 61" d="m212.2 17.9-5.6-5.6a3.5 3.5 0 0 1 0-4.9 3.5 3.5 0 0 1 5 0l.6.7.7-.7a3.4 3.4 0 0 1 2.4-1 3.4 3.4 0 0 1 2.5 1 3.5 3.5 0 0 1 0 5Zm-3.1-10.7a2.7 2.7 0 0 0-1.9.8 2.7 2.7 0 0 0 0 3.8l5 5 5-5a2.7 2.7 0 0 0 0-3.8 2.6 2.6 0 0 0-1.9-.8 2.6 2.6 0 0 0-1.9.8l-1.2 1.2L211 8a2.7 2.7 0 0 0-1.9-.8" fill="#fff"/><path data-name="Path 62" d="m337.2 17.9-5.6-5.6a3.5 3.5 0 0 1 0-4.9 3.5 3.5 0 0 1 5 0l.6.7.6-.7a3.4 3.4 0 0 1 2.5-1 3.4 3.4 0 0 1 2.4 1 3.5 3.5 0 0 1 0 5ZM334 7.2a2.7 2.7 0 0 0-2 .8 2.7 2.7 0 0 0 0 3.8l5 5 5-5a2.7 2.7 0 0 0 0-3.8 2.6 2.6 0 0 0-1.8-.8 2.6 2.6 0 0 0-1.9.8l-1.2 1.2L336 8a2.6 2.6 0 0 0-2-.8" fill="#fff"/><path data-name="Path 63" d="M39.3 142.2a2.8 2.8 0 0 1-1.6-.7l.4-.5a2.2 2.2 0 0 0 1.4.6.9.9 0 0 0 1-1c0-1.4-2.5-1.1-2.5-2.9a1.5 1.5 0 0 1 1.3-1.5v-1h.5v1a2 2 0 0 1 1.3.7l-.4.4a1.5 1.5 0 0 0-1-.5.8.8 0 0 0-1 .9c0 1.3 2.6 1 2.6 2.9a1.5 1.5 0 0 1-1.5 1.6v1h-.5Zm3-2.8c0-2.3 1-3.3 2.2-3.3a1.9 1.9 0 0 1 1.4.7l-.4.4a1.3 1.3 0 0 0-1-.4c-.8 0-1.5.6-1.5 2.5a1.9 1.9 0 0 1 1.3-.8 1.6 1.6 0 0 1 1.7 1.8 1.8 1.8 0 0 1-1.7 2c-1.2 0-2-1-2-2.9Zm2 2.2c.5 0 1-.5 1-1.3s-.4-1.2-1.1-1.2a1.6 1.6 0 0 0-1.2.8c0 1.1.5 1.7 1.3 1.7Zm2.3-.2.4-.5a2 2 0 0 0 1.4.7 1.3 1.3 0 0 0 1.3-1.3 1.2 1.2 0 0 0-1.2-1.3 1.6 1.6 0 0 0-1 .3l-.4-.2.2-2.8h2.9v.6h-2.3l-.1 1.7a1.8 1.8 0 0 1 .9-.2 1.7 1.7 0 0 1 1.8 1.8 2 2 0 0 1-2 2 2.6 2.6 0 0 1-2-.8Zm5 .2a.6.6 0 0 1 .5-.5.6.6 0 0 1 .5.5.5.5 0 0 1-.5.6.5.5 0 0 1-.6-.6Zm2-2.4c0-2 .7-3 1.9-3s1.9 1 1.9 3-.7 3-2 3-1.8-1-1.8-3Zm3 0c0-1.8-.4-2.4-1.1-2.4s-1.2.6-1.2 2.4.5 2.4 1.2 2.4 1.1-.7 1.1-2.4Zm1.6 0c0-2 .7-3 1.8-3s2 1 2 3-.8 3-2 3-1.8-1-1.8-3Zm3 0c0-1.8-.5-2.4-1.2-2.4s-1.1.6-1.1 2.4.5 2.4 1.1 2.4 1.2-.7 1.2-2.4Z" fill="#939393"/><path data-name="Path 64" d="M289.7 142.2a2.8 2.8 0 0 1-1.5-.7l.3-.5a2.2 2.2 0 0 0 1.4.6.9.9 0 0 0 1-1c0-1.4-2.5-1.1-2.5-2.9a1.5 1.5 0 0 1 1.3-1.5v-1h.6v1a2 2 0 0 1 1.3.7l-.4.4a1.5 1.5 0 0 0-1.1-.5.8.8 0 0 0-1 .9c0 1.3 2.6 1 2.6 2.9a1.5 1.5 0 0 1-1.4 1.6v1h-.6Zm3-2.8c0-2.3 1-3.3 2.2-3.3a1.9 1.9 0 0 1 1.4.7l-.4.4a1.3 1.3 0 0 0-1-.4c-.8 0-1.5.6-1.5 2.5a1.9 1.9 0 0 1 1.4-.8 1.6 1.6 0 0 1 1.6 1.8 1.8 1.8 0 0 1-1.7 2c-1.2 0-2-1-2-2.9Zm2 2.2c.6 0 1-.5 1-1.3s-.3-1.2-1-1.2a1.6 1.6 0 0 0-1.3.8c.1 1.1.6 1.7 1.3 1.7Zm2.3-.2.4-.5a2 2 0 0 0 1.5.7 1.3 1.3 0 0 0 1.2-1.3 1.2 1.2 0 0 0-1.2-1.3 1.6 1.6 0 0 0-1 .3l-.4-.2.2-2.8h3v.6h-2.3l-.2 1.7a1.8 1.8 0 0 1 1-.2 1.7 1.7 0 0 1 1.7 1.8 2 2 0 0 1-2 2 2.6 2.6 0 0 1-1.9-.8Zm5 .2a.6.6 0 0 1 .5-.5.6.6 0 0 1 .5.5.5.5 0 0 1-.5.6.5.5 0 0 1-.6-.6Zm2-2.4c0-2 .7-3 2-3s1.8 1 1.8 3-.7 3-1.9 3-1.9-1-1.9-3Zm3 0c0-1.8-.4-2.4-1-2.4s-1.2.6-1.2 2.4.4 2.4 1.1 2.4 1.2-.7 1.2-2.4Zm1.6 0c0-2 .7-3 1.9-3s1.8 1 1.8 3-.7 3-1.8 3-1.9-1-1.9-3Zm3 0c0-1.8-.4-2.4-1.1-2.4s-1.2.6-1.2 2.4.5 2.4 1.2 2.4 1.1-.7 1.1-2.4Z" fill="#939393"/><path data-name="Path 65" d="M181 142.2a2.8 2.8 0 0 1-1.6-.7l.4-.5a2.2 2.2 0 0 0 1.4.6.9.9 0 0 0 1-1c0-1.4-2.5-1.1-2.5-2.9a1.5 1.5 0 0 1 1.3-1.5v-1h.6v1a2 2 0 0 1 1.3.7l-.4.4a1.5 1.5 0 0 0-1.2-.5.8.8 0 0 0-.9.9c0 1.3 2.6 1 2.6 2.9a1.5 1.5 0 0 1-1.4 1.6v1h-.6Zm3-2.8c0-2.3 1-3.3 2.2-3.3a1.9 1.9 0 0 1 1.4.7l-.4.4a1.3 1.3 0 0 0-1-.4c-.8 0-1.5.6-1.5 2.5a1.9 1.9 0 0 1 1.3-.8 1.6 1.6 0 0 1 1.7 1.8 1.8 1.8 0 0 1-1.7 2c-1.2 0-2-1-2-2.9Zm2 2.2c.6 0 1-.5 1-1.3s-.4-1.2-1-1.2a1.6 1.6 0 0 0-1.3.8c0 1.1.5 1.7 1.3 1.7Zm2.3-.2.4-.5a2 2 0 0 0 1.5.7 1.3 1.3 0 0 0 1.2-1.3 1.2 1.2 0 0 0-1.2-1.3 1.6 1.6 0 0 0-1 .3l-.4-.2.2-2.8h3v.6h-2.4l-.1 1.7a1.8 1.8 0 0 1 .9-.2 1.7 1.7 0 0 1 1.8 1.8 2 2 0 0 1-2 2 2.6 2.6 0 0 1-1.9-.8Zm5 .2a.6.6 0 0 1 .5-.5.6.6 0 0 1 .5.5.5.5 0 0 1-.5.6.5.5 0 0 1-.6-.6Zm2-2.4c0-2 .7-3 1.9-3s1.9 1 1.9 3-.7 3-1.9 3-1.9-1-1.9-3Zm3 0c0-1.8-.4-2.4-1.1-2.4s-1.1.6-1.1 2.4.4 2.4 1.1 2.4 1.1-.7 1.1-2.4Zm1.6 0c0-2 .7-3 1.9-3s1.8 1 1.8 3-.7 3-1.8 3-2-1-2-3Zm3 0c0-1.8-.5-2.4-1.1-2.4s-1.2.6-1.2 2.4.5 2.4 1.2 2.4 1.1-.7 1.1-2.4Z" fill="#939393"/><path data-name="Path 66" d="M149.9 142.2a2.8 2.8 0 0 1-1.6-.7l.4-.5a2.2 2.2 0 0 0 1.4.6.9.9 0 0 0 1-1c0-1.4-2.5-1.1-2.5-2.9a1.5 1.5 0 0 1 1.3-1.5v-1h.5v1a2 2 0 0 1 1.3.7l-.4.4a1.5 1.5 0 0 0-1-.5.8.8 0 0 0-1 .9c0 1.3 2.6 1 2.6 2.9a1.5 1.5 0 0 1-1.5 1.6v1h-.5Zm3-5.3v-.6h3.7v.4a8 8 0 0 0-1.8 5.4h-.8a8.6 8.6 0 0 1 1.7-5.2Zm4.3 4.5.4-.5a2 2 0 0 0 1.4.7 1.3 1.3 0 0 0 1.3-1.3 1.2 1.2 0 0 0-1.2-1.3 1.6 1.6 0 0 0-1 .3l-.4-.2.2-2.8h2.9v.6h-2.3l-.1 1.7a1.8 1.8 0 0 1 .9-.2 1.7 1.7 0 0 1 1.8 1.8 2 2 0 0 1-2 2 2.6 2.6 0 0 1-1.9-.8Zm5 .2a.6.6 0 0 1 .5-.5.6.6 0 0 1 .5.5.5.5 0 0 1-.5.6.5.5 0 0 1-.6-.6Zm2-2.4c0-2 .7-3 1.9-3s1.9 1 1.9 3-.7 3-2 3-1.8-1-1.8-3Zm3 0c0-1.8-.4-2.4-1.1-2.4s-1.1.6-1.1 2.4.4 2.4 1 2.4 1.2-.7 1.2-2.4Zm1.6 0c0-2 .7-3 1.9-3s1.8 1 1.8 3-.7 3-1.8 3-2-1-2-3Zm3 0c0-1.8-.5-2.4-1.1-2.4s-1.2.6-1.2 2.4.5 2.4 1.2 2.4 1-.7 1-2.4Z" fill="#c6c6c6"/><path data-name="Line 1" fill="none" stroke="#c6c6c6" stroke-miterlimit="10" stroke-width=".8" d="M146 139.2h28.8"/><path data-name="Rectangle 66" fill="#bcbcbc" d="M0 168.8h99.6v99.6H0z"/><path data-name="Rectangle 67" fill="#bcbcbc" d="M125.2 168.8h99.6v99.6h-99.6z"/><path data-name="Rectangle 68" fill="#bcbcbc" d="M250.4 168.8H350v99.6h-99.6z"/><path data-name="Rectangle 69" fill="#c6c6c6" d="M29.5 292.2h40.7v4.4H29.5z"/><path data-name="Rectangle 70" fill="#939393" d="M12.2 277h75.1v6.6h-75z"/><path data-name="Rectangle 71" fill="#c6c6c6" d="M154.7 292.2h40.7v4.4h-40.7z"/><path data-name="Rectangle 72" fill="#939393" d="M137.5 277h75v6.6h-75z"/><path data-name="Rectangle 73" fill="#c6c6c6" d="M279.9 292.2h40.7v4.4h-40.7z"/><path data-name="Rectangle 74" fill="#939393" d="M262.7 277h75v6.6h-75z"/><path data-name="Path 67" d="m87.2 186.7-5.5-5.6a3.5 3.5 0 0 1 0-4.8 3.5 3.5 0 0 1 4.9 0l.6.6.7-.6a3.4 3.4 0 0 1 2.4-1 3.4 3.4 0 0 1 2.5 1 3.5 3.5 0 0 1 0 4.8Zm-3-10.7a2.7 2.7 0 0 0-2 .8 2.7 2.7 0 0 0 0 3.8l5 5 5-5a2.7 2.7 0 0 0 0-3.8 2.6 2.6 0 0 0-1.9-.8 2.6 2.6 0 0 0-1.8.8l-1.3 1.2-1.2-1.2a2.7 2.7 0 0 0-1.9-.8" fill="#fff"/><path data-name="Path 68" d="m212.2 186.7-5.6-5.6a3.5 3.5 0 0 1 0-4.8 3.5 3.5 0 0 1 5 0l.6.6.7-.6a3.4 3.4 0 0 1 2.4-1 3.4 3.4 0 0 1 2.5 1 3.5 3.5 0 0 1 0 4.8Zm-3.1-10.7a2.7 2.7 0 0 0-1.9.8 2.7 2.7 0 0 0 0 3.8l5 5 5-5a2.7 2.7 0 0 0 0-3.8 2.6 2.6 0 0 0-1.9-.8 2.6 2.6 0 0 0-1.9.8l-1.2 1.2-1.2-1.2a2.7 2.7 0 0 0-1.9-.8" fill="#fff"/><path data-name="Path 69" d="m337.2 186.7-5.6-5.6a3.5 3.5 0 0 1 0-4.8 3.5 3.5 0 0 1 5 0l.6.6.6-.6a3.4 3.4 0 0 1 2.5-1 3.4 3.4 0 0 1 2.4 1 3.5 3.5 0 0 1 0 4.8ZM334 176a2.7 2.7 0 0 0-2 .8 2.7 2.7 0 0 0 0 3.8l5 5 5-5a2.7 2.7 0 0 0 0-3.8 2.6 2.6 0 0 0-1.8-.8 2.6 2.6 0 0 0-1.9.8l-1.2 1.2-1.2-1.2a2.6 2.6 0 0 0-2-.8" fill="#fff"/><path data-name="Path 70" d="M39.3 311a2.8 2.8 0 0 1-1.6-.7l.4-.5a2.2 2.2 0 0 0 1.4.6.9.9 0 0 0 1-1c0-1.4-2.5-1.1-2.5-2.9a1.5 1.5 0 0 1 1.3-1.5v-1h.5v1a2 2 0 0 1 1.3.7l-.4.4a1.5 1.5 0 0 0-1-.5.8.8 0 0 0-1 .9c0 1.3 2.6 1 2.6 2.9a1.5 1.5 0 0 1-1.5 1.6v1h-.5Zm3-2.8c0-2.3 1-3.2 2.2-3.2a1.9 1.9 0 0 1 1.4.6l-.4.4a1.3 1.3 0 0 0-1-.4c-.8 0-1.5.6-1.5 2.5a1.8 1.8 0 0 1 1.3-.8 1.6 1.6 0 0 1 1.7 1.9 1.8 1.8 0 0 1-1.7 1.8c-1.2 0-2-1-2-2.8Zm2 2.2c.5 0 1-.5 1-1.3s-.4-1.2-1.1-1.2a1.6 1.6 0 0 0-1.2.8c0 1.1.5 1.7 1.3 1.7Zm2.3-.2.4-.5a2 2 0 0 0 1.4.7 1.3 1.3 0 0 0 1.3-1.3 1.2 1.2 0 0 0-1.2-1.3 1.6 1.6 0 0 0-1 .3l-.4-.2.2-2.8h2.9v.6h-2.3l-.1 1.8a1.8 1.8 0 0 1 .9-.3 1.7 1.7 0 0 1 1.8 1.8 2 2 0 0 1-2 2 2.6 2.6 0 0 1-2-.8Zm5 .3a.6.6 0 0 1 .5-.6.6.6 0 0 1 .5.6.5.5 0 0 1-.5.5.5.5 0 0 1-.6-.5Zm2-2.5c0-2 .7-3 1.9-3s1.9 1 1.9 3-.7 3-2 3-1.8-1-1.8-3Zm3 0c0-1.7-.4-2.4-1.1-2.4s-1.2.7-1.2 2.4.5 2.4 1.2 2.4 1.1-.7 1.1-2.4Zm1.6 0c0-2 .7-3 1.8-3s2 1 2 3-.8 3-2 3-1.8-1-1.8-3Zm3 0c0-1.7-.5-2.4-1.2-2.4s-1.1.7-1.1 2.4.5 2.4 1.1 2.4 1.2-.7 1.2-2.4Z" fill="#939393"/><path data-name="Path 71" d="M289.7 311a2.8 2.8 0 0 1-1.5-.7l.3-.5a2.2 2.2 0 0 0 1.4.6.9.9 0 0 0 1-1c0-1.4-2.5-1.1-2.5-2.9a1.5 1.5 0 0 1 1.3-1.5v-1h.6v1a2 2 0 0 1 1.3.7l-.4.4a1.5 1.5 0 0 0-1.1-.5.8.8 0 0 0-1 .9c0 1.3 2.6 1 2.6 2.9a1.5 1.5 0 0 1-1.4 1.6v1h-.6Zm3-2.8c0-2.3 1-3.2 2.2-3.2a1.9 1.9 0 0 1 1.4.6l-.4.4a1.3 1.3 0 0 0-1-.4c-.8 0-1.5.6-1.5 2.5a1.8 1.8 0 0 1 1.4-.8 1.6 1.6 0 0 1 1.6 1.9 1.8 1.8 0 0 1-1.7 1.8c-1.2 0-2-1-2-2.8Zm2 2.2c.6 0 1-.5 1-1.3s-.3-1.2-1-1.2a1.6 1.6 0 0 0-1.3.8c.1 1.1.6 1.7 1.3 1.7Zm2.3-.2.4-.5a2 2 0 0 0 1.5.7 1.3 1.3 0 0 0 1.2-1.3 1.2 1.2 0 0 0-1.2-1.3 1.6 1.6 0 0 0-1 .3l-.4-.2.2-2.8h3v.6h-2.3l-.2 1.8a1.8 1.8 0 0 1 1-.3 1.7 1.7 0 0 1 1.7 1.8 2 2 0 0 1-2 2 2.6 2.6 0 0 1-1.9-.8Zm5 .3a.6.6 0 0 1 .5-.6.6.6 0 0 1 .5.6.5.5 0 0 1-.5.5.5.5 0 0 1-.6-.5Zm2-2.5c0-2 .7-3 2-3s1.8 1 1.8 3-.7 3-1.9 3-1.9-1-1.9-3Zm3 0c0-1.7-.4-2.4-1-2.4s-1.2.7-1.2 2.4.4 2.4 1.1 2.4 1.2-.7 1.2-2.4Zm1.6 0c0-2 .7-3 1.9-3s1.8 1 1.8 3-.7 3-1.8 3-1.9-1-1.9-3Zm3 0c0-1.7-.4-2.4-1.1-2.4s-1.2.7-1.2 2.4.5 2.4 1.2 2.4 1.1-.7 1.1-2.4Z" fill="#939393"/><path data-name="Path 72" d="M181 311a2.8 2.8 0 0 1-1.6-.7l.4-.5a2.2 2.2 0 0 0 1.4.6.9.9 0 0 0 1-1c0-1.4-2.5-1.1-2.5-2.9a1.5 1.5 0 0 1 1.3-1.5v-1h.6v1a2 2 0 0 1 1.3.7l-.4.4a1.5 1.5 0 0 0-1.2-.5.8.8 0 0 0-.9.9c0 1.3 2.6 1 2.6 2.9a1.5 1.5 0 0 1-1.4 1.6v1h-.6Zm3-2.8c0-2.3 1-3.2 2.2-3.2a1.9 1.9 0 0 1 1.4.6l-.4.4a1.3 1.3 0 0 0-1-.4c-.8 0-1.5.6-1.5 2.5a1.9 1.9 0 0 1 1.3-.8 1.6 1.6 0 0 1 1.7 1.9 1.8 1.8 0 0 1-1.7 1.8c-1.2 0-2-1-2-2.8Zm2 2.2c.6 0 1-.5 1-1.3s-.4-1.2-1-1.2a1.6 1.6 0 0 0-1.3.8c0 1.1.5 1.7 1.3 1.7Zm2.3-.2.4-.5a2 2 0 0 0 1.5.7 1.3 1.3 0 0 0 1.2-1.3 1.2 1.2 0 0 0-1.2-1.3 1.6 1.6 0 0 0-1 .3l-.4-.2.2-2.8h3v.6h-2.4l-.1 1.8a1.8 1.8 0 0 1 .9-.3 1.7 1.7 0 0 1 1.8 1.8 2 2 0 0 1-2 2 2.6 2.6 0 0 1-1.9-.8Zm5 .3a.6.6 0 0 1 .5-.6.6.6 0 0 1 .5.6.5.5 0 0 1-.5.5.5.5 0 0 1-.6-.5Zm2-2.5c0-2 .7-3 1.9-3s1.9 1 1.9 3-.7 3-1.9 3-1.9-1-1.9-3Zm3 0c0-1.7-.4-2.4-1.1-2.4s-1.1.7-1.1 2.4.4 2.4 1.1 2.4 1.1-.7 1.1-2.4Zm1.6 0c0-2 .7-3 1.9-3s1.8 1 1.8 3-.7 3-1.8 3-2-1-2-3Zm3 0c0-1.7-.5-2.4-1.1-2.4s-1.2.7-1.2 2.4.5 2.4 1.2 2.4 1.1-.7 1.1-2.4Z" fill="#939393"/><path data-name="Path 73" d="M149.9 311a2.8 2.8 0 0 1-1.6-.7l.4-.5a2.2 2.2 0 0 0 1.4.6.9.9 0 0 0 1-1c0-1.4-2.5-1.1-2.5-2.9a1.5 1.5 0 0 1 1.3-1.5v-1h.5v1a2 2 0 0 1 1.3.7l-.4.4a1.5 1.5 0 0 0-1-.5.8.8 0 0 0-1 .9c0 1.3 2.6 1 2.6 2.9a1.5 1.5 0 0 1-1.5 1.6v1h-.5Zm3-5.3v-.6h3.7v.4a8 8 0 0 0-1.8 5.4h-.8a8.6 8.6 0 0 1 1.7-5.2Zm4.3 4.5.4-.5a2 2 0 0 0 1.4.7 1.3 1.3 0 0 0 1.3-1.3 1.2 1.2 0 0 0-1.2-1.3 1.6 1.6 0 0 0-1 .3l-.4-.2.2-2.8h2.9v.6h-2.3l-.1 1.8a1.8 1.8 0 0 1 .9-.3 1.7 1.7 0 0 1 1.8 1.8 2 2 0 0 1-2 2 2.6 2.6 0 0 1-1.9-.8Zm5 .3a.6.6 0 0 1 .5-.6.6.6 0 0 1 .5.6.5.5 0 0 1-.5.5.5.5 0 0 1-.6-.5Zm2-2.5c0-2 .7-3 1.9-3s1.9 1 1.9 3-.7 3-2 3-1.8-1-1.8-3Zm3 0c0-1.7-.4-2.4-1.1-2.4s-1.1.7-1.1 2.4.4 2.4 1 2.4 1.2-.7 1.2-2.4Zm1.6 0c0-2 .7-3 1.9-3s1.8 1 1.8 3-.7 3-1.8 3-2-1-2-3Zm3 0c0-1.7-.5-2.4-1.1-2.4s-1.2.7-1.2 2.4.5 2.4 1.2 2.4 1-.7 1-2.4Z" fill="#c6c6c6"/><path data-name="Line 2" fill="none" stroke="#c6c6c6" stroke-miterlimit="10" stroke-width=".8" d="M146 308h28.8"/><path data-name="Path 74" d="m51.2 201.4 7.4-8.8-2-.5a3.3 3.3 0 0 0-3.6 1.3l-2.2 3.2a1.3 1.3 0 0 1-2 0l-2.1-3.1A3.4 3.4 0 0 0 43 192l-1.8.5h-.1l7.6 8.9a1.6 1.6 0 0 0 2.4 0" fill="#d3d3d3"/><path data-name="Path 75" d="M64.2 235.3V231a70.5 70.5 0 0 1-14.5 1.5 69.7 69.7 0 0 1-9.6-.7l-4.7-.8v4.1a68.4 68.4 0 0 0 28.8 0" fill="#d3d3d3"/><path data-name="Path 76" d="M49.7 238.6a69.7 69.7 0 0 1-9.6-.7l-4.7-.8v4.2a2 2 0 0 0 1.7 2.3 47.8 47.8 0 0 0 25.7-.1 1.7 1.7 0 0 0 1.4-2v-4.4a70.3 70.3 0 0 1-14.5 1.5" fill="#d3d3d3"/><path data-name="Path 77" d="M75.8 208.9 68 196.4c-.3-.4-.5-1-1-1.1l-6.5-2.1-8.3 9.8a3 3 0 0 1-4.4 0l-8.5-9.8L33 195a2.2 2.2 0 0 0-1.3 1l-8.1 13c-.5.8-.3 1 .3 1.5L30 215a1.2 1.2 0 0 0 1.6 0l4-2.6v17a68.5 68.5 0 0 0 28.7 0v-15a2.5 2.5 0 0 1 .2-1.8c1.3.8 2.5 1.5 3.6 2.4a1.2 1.2 0 0 0 1.8 0c1.9-1.5 3.8-3 5.7-4.2.9-.6.8-1 .3-1.8" fill="#d3d3d3"/><path data-name="Path 78" d="M202 205a54.6 54.6 0 0 0-4 7.6c-.8 1.6-1.7 2-3.4 1.4-3.6-1.2-3.6-1.1-3.6 2.7V241c0 2-.6 2.7-2.7 2.7h-26.7c-2 0-2.7-.8-2.7-2.8v-26.3c.1-1.4-.1-1.7-1.6-1.3-4.7 1.4-3.8 2-6.3-2.6l-2.6-5.3c-.6-1-.4-2 .7-2.4 4.3-1.8 8.3-4.2 12.8-5.4 1-.3 1.7-.3 2.2 1 .7 1.6 1.7 3.2 2.5 4.8 2 3.8 3.1 4.1 7 2v9.4c0 1 0 2.2 1.4 2.1 1.3 0 1.3-1 1.3-2v-9.2l.4-.2c3.5 2 4.6 1.6 6.5-1.8.9-1.8 1.9-3.5 2.7-5.3.4-1 .9-1.2 1.9-.9a79.6 79.6 0 0 1 14.1 6.3Z" fill="#d3d3d3"/><path data-name="Path 79" d="M183.7 196.6a1 1 0 0 1-.1.5l-1.7 3.1-1 1.8-.4.8c-.2.3-.4 1-.8 1.1s-.8-.2-1-.4c-1.3-1-2.4-2.5-3.7-2.6-1.4-.1-2.5 1.6-3.7 2.6-.9.6-1.3.5-1.8-.4l-3-5.8c-.4-.8.1-1.5.8-2l1-.9c.3-.3.6-.7 1.1-.8.7 0 1.2.5 1.6 1 1.3 1.6 2.4 4.2 4 4.2 1.4 0 2.6-2.7 4-4.1.4-.5.7-1.7 1.7-1l1.7 1.3c.5.4 1.3 1 1.3 1.6" fill="#d3d3d3"/><path data-name="Path 80" d="M328 224.5c-.3-4.9-.5-9.8-.5-14.7a5.3 5.3 0 0 0-3-5c-3.5-2-7.4-2.7-11.4-3-1.3 0-2.4 0-3.3-1.6-1.3-2.3-6.9-2-8.2.3a2.5 2.5 0 0 1-2.5 1.3 36.9 36.9 0 0 0-13.8 4c-2.3 1.2-3.7 2.7-3.7 5.6 0 3-.4 6 0 9a2 2 0 0 1-1.2 2.5l-8 5c10.9.4 20.6 3 29 9.6 2.2 1.6 3.8 1.3 5.6-.2l7.5-6.9a5 5 0 0 1 3.5-1.5 33.5 33.5 0 0 0 7.5-1c1.8-.4 2.7-1.3 2.5-3.4m-43.4-2.5c12.6-4.7 23.7 4.6 23.7 4.6a91.8 91.8 0 0 0-23.7-4.6" fill="#d3d3d3"/><path data-name="Path 81" d="M272.4 231c4.3-.8 8.4-.5 12.7 2.2a21.3 21.3 0 0 1-12.7-2.2" fill="#d3d3d3"/></g></svg>