<svg xmlns="http://www.w3.org/2000/svg" width="350" height="242.8"><g data-name="Group 262"><g data-name="Group 256"><path data-name="Rectangle 93" fill="#bcbcbc" d="M0 0h64.2v64.2H0z"/><path data-name="Path 135" d="M35.4 15.1a3.2 3.2 0 0 1-3.1 2.6 3.4 3.4 0 0 1-3.5-2.3c-.4-1.2-.5-1.3-1.8-1l-6 2a1.5 1.5 0 0 0-1 .6c-1.7 3-3.5 5.9-5.4 8.7-.3.6-.1.8.3 1l3.9 3a.8.8 0 0 0 1 0l2.7-1.8v19.3a1.3 1.3 0 0 0 1 1.6 32 32 0 0 0 17.3 0 1.1 1.1 0 0 0 1-1.4V29.1a1.7 1.7 0 0 1 0-1.1l2.5 1.6a.8.8 0 0 0 1.2 0c1.2-1 2.5-2 3.8-2.8.6-.4.5-.7.2-1.2l-5.2-8.4c-.2-.3-.4-.6-.7-.7l-7-2.2a1.9 1.9 0 0 0-.4 0c-.4 0-.7.1-.8.8" fill="#d3d3d3"/><path data-name="Rectangle 94" fill="#bcbcbc" d="M0 89.3h64.2v64.2H0z"/><path data-name="Path 136" d="m27.8 104.7-5.2 1.7a5.3 5.3 0 0 0-3.4 2.8 8.9 8.9 0 0 0-1 3.4c-.5 4.6-1.2 9.1-1.9 13.6a27.7 27.7 0 0 0-.2 8.7c.4 2.2.4 2.2 2.7 2.2h.8c.1 0 .3 0 .3-.2l.8-3c.6-3.2.8-6.4 1.4-9.6l1.3-6a.8.8 0 0 1 .2 0v16a2.8 2.8 0 0 0 2.3 3 27.5 27.5 0 0 0 13.6 0 2.8 2.8 0 0 0 2.2-2.9v-16.1h.2l1.5 7c.6 3.1.6 6.3 1.3 9.4.2.8.3 2 .8 2.3a3 3 0 0 0 1.8.2h.9a2.7 2.7 0 0 0 .3 0 .2.2 0 0 0 .2-.3 9.4 9.4 0 0 1 .5-2 28.5 28.5 0 0 0-.1-8.2c-.7-4.4-1.5-8.8-1.8-13.3A9.8 9.8 0 0 0 46 109a5.2 5.2 0 0 0-3.2-2.6c-1.8-.4-3.5-1-5.2-1.6a3.8 3.8 0 0 0-1.2-.2c-.3 0-.5 0-.6.4a8.3 8.3 0 0 1-2.8 3.6c-.2.2-.3.4-.6.1a8.4 8.4 0 0 1-2.7-3.2c-.2-.7-.6-1-1-1a3.1 3.1 0 0 0-.9.2" fill="#d3d3d3"/><path data-name="Rectangle 95" fill="#bcbcbc" d="M207.2 89.3h64.2v64.2h-64.2z"/><path data-name="Path 137" d="M243.3 116.6a.3.3 0 0 0-.3-.1.3.3 0 0 0-.3.1 2.5 2.5 0 0 0 0 .8v3.8a2.8 2.8 0 0 0 0 .8.3.3 0 0 0 .3.1.3.3 0 0 0 .3-.1 2.3 2.3 0 0 0 0-.8v-3.8a3 3 0 0 0 0-.8m0 0a.3.3 0 0 0-.3-.1.3.3 0 0 0-.3.1 2.5 2.5 0 0 0 0 .8v3.8a2.8 2.8 0 0 0 0 .8.3.3 0 0 0 .3.1.3.3 0 0 0 .3-.1 2.3 2.3 0 0 0 0-.8v-3.8a3 3 0 0 0 0-.8M241 134a48 48 0 0 1-6.5-.4l-3.1-.6v3.5a1.3 1.3 0 0 0 1.1 1.6 32 32 0 0 0 17.2 0 1.1 1.1 0 0 0 1-1.4V133a52.5 52.5 0 0 1-9.7 1m9.6-2.5v-13.2a1.7 1.7 0 0 1 .2-1s-5.6-3.7-2-12.8l-3.2-1a1.9 1.9 0 0 0-.5 0c-.4 0-.7.2-.8.9a3.2 3.2 0 0 1-3.1 2.5 3.4 3.4 0 0 1-3.4-2.3c-.4-1.2-.6-1.3-1.9-1l-3 1c3.7 7.6-1.5 12.5-1.5 12.5v14.3a48.2 48.2 0 0 0 19.2 0m-10-13.5a5.2 5.2 0 0 1 .2-1.6 1.6 1.6 0 0 1 .7-.8 2.6 2.6 0 0 1 1.3-.3 2.8 2.8 0 0 1 1.2.2 1.9 1.9 0 0 1 .7.5 1.8 1.8 0 0 1 .4.8 6.5 6.5 0 0 1 0 1.2v2.6a6.2 6.2 0 0 1 0 1.3 1.8 1.8 0 0 1-.4.8 1.7 1.7 0 0 1-.8.5 2.8 2.8 0 0 1-1 .1 3.5 3.5 0 0 1-1-.1 1.6 1.6 0 0 1-.8-.5 2.1 2.1 0 0 1-.4-.7 4.5 4.5 0 0 1-.1-1.2Zm-4-1.3a3.5 3.5 0 0 0 2.1-1.3h1.1v7.8H238V119a7.4 7.4 0 0 0 0-1 .4.4 0 0 0-.3-.3 2.5 2.5 0 0 0-.8-.1h-.2Zm6.3 5.4a.3.3 0 0 0 .3-.1 2.3 2.3 0 0 0 0-.8v-3.8a3 3 0 0 0 0-.8.3.3 0 0 0-.3-.1.3.3 0 0 0-.3.1 2.5 2.5 0 0 0 0 .8v3.8a2.8 2.8 0 0 0 0 .8.3.3 0 0 0 .3.1" fill="#d3d3d3"/><path data-name="Path 138" d="M113.8 35a2.8 2.8 0 0 1-1.6-.6l.3-.6a2.2 2.2 0 0 0 1.5.7 1 1 0 0 0 1-1c0-1.5-2.6-1.2-2.6-3a1.5 1.5 0 0 1 1.4-1.5v-1h.5v1a2 2 0 0 1 1.3.7l-.4.4a1.5 1.5 0 0 0-1.1-.5.9.9 0 0 0-1 .9c0 1.3 2.6 1 2.6 3a1.6 1.6 0 0 1-1.4 1.6v1h-.5Zm3-2.7c0-2.4 1-3.3 2.2-3.3a1.9 1.9 0 0 1 1.4.6l-.4.5a1.3 1.3 0 0 0-1-.5c-.8 0-1.5.6-1.5 2.5a1.9 1.9 0 0 1 1.3-.7 1.6 1.6 0 0 1 1.7 1.8 1.8 1.8 0 0 1-1.7 1.9c-1.2 0-2-1-2-2.8Zm2 2.2c.6 0 1-.5 1-1.3s-.4-1.3-1-1.3a1.6 1.6 0 0 0-1.3.8c0 1.2.5 1.8 1.3 1.8Zm2.3-.2.4-.5a2 2 0 0 0 1.5.7 1.3 1.3 0 0 0 1.3-1.4 1.2 1.2 0 0 0-1.3-1.3 1.7 1.7 0 0 0-1 .4l-.4-.3.2-2.8h3v.6h-2.3l-.2 1.8a1.8 1.8 0 0 1 1-.3 1.7 1.7 0 0 1 1.8 1.9 2 2 0 0 1-2 2 2.6 2.6 0 0 1-2-.8Zm5 .2a.6.6 0 0 1 .6-.6.6.6 0 0 1 .5.6.6.6 0 0 1-.5.6.6.6 0 0 1-.6-.6Zm2.1-2.5c0-2 .7-3 2-3s1.8 1 1.8 3-.7 3.1-1.9 3.1-1.9-1.1-1.9-3Zm3 0c0-1.7-.4-2.4-1-2.4s-1.2.7-1.2 2.4.4 2.5 1.1 2.5 1.2-.8 1.2-2.5Zm1.6 0c0-2 .7-3 2-3s1.8 1 1.8 3-.7 3.1-1.9 3.1-1.9-1.1-1.9-3Zm3 0c0-1.7-.4-2.4-1-2.4s-1.2.7-1.2 2.4.4 2.5 1.1 2.5 1.2-.8 1.2-2.5Z" fill="#939393"/><path data-name="Path 139" d="M82.3 35a2.8 2.8 0 0 1-1.5-.6l.3-.6a2.2 2.2 0 0 0 1.4.7 1 1 0 0 0 1-1c0-1.5-2.5-1.2-2.5-3a1.5 1.5 0 0 1 1.3-1.5v-1h.6v1a2 2 0 0 1 1.3.7l-.4.4a1.5 1.5 0 0 0-1.1-.5.9.9 0 0 0-1 .9c0 1.3 2.6 1 2.6 3A1.6 1.6 0 0 1 83 35v1h-.6Zm3-5.3v-.6H89v.4a8.1 8.1 0 0 0-1.8 5.5h-.8a8.7 8.7 0 0 1 1.7-5.3Zm4.4 4.6.4-.5a2 2 0 0 0 1.5.7 1.3 1.3 0 0 0 1.3-1.4 1.2 1.2 0 0 0-1.3-1.3 1.7 1.7 0 0 0-1 .4l-.4-.3.2-2.8h3v.6H91l-.2 1.8a1.8 1.8 0 0 1 1-.3 1.7 1.7 0 0 1 1.8 1.9 2 2 0 0 1-2 2 2.6 2.6 0 0 1-2-.8Zm5 .2a.6.6 0 0 1 .5-.6.6.6 0 0 1 .6.6.6.6 0 0 1-.6.6.6.6 0 0 1-.5-.6Zm2.1-2.5c0-2 .7-3 1.9-3s1.9 1 1.9 3-.7 3.1-1.9 3.1-1.9-1.1-1.9-3Zm3 0c0-1.7-.4-2.4-1.1-2.4s-1.2.7-1.2 2.4.5 2.5 1.2 2.5 1.2-.8 1.2-2.5Zm1.6 0c0-2 .7-3 1.9-3s1.9 1 1.9 3-.7 3.1-1.9 3.1-1.9-1.1-1.9-3Zm3 0c0-1.7-.4-2.4-1.1-2.4s-1.2.7-1.2 2.4.5 2.5 1.2 2.5 1.2-.8 1.2-2.5Z" fill="#c6c6c6"/><path data-name="Line 3" fill="none" stroke="#c6c6c6" stroke-miterlimit="10" stroke-width=".8" d="M78.4 32h29"/><path data-name="Path 140" d="m80 52 .6-2.7-2.2-2 3-.4 1.3-2.5 1.4 2.5 3 .4-2.2 2 .5 2.7-2.7-1.3Zm2.7-1.8 2 1-.4-2.1 1.6-1.4-2.2-.3-1-1.9-1 1.9-2.2.3 1.6 1.4-.4 2Z" fill="#939393"/><path data-name="Path 141" d="m91 52 .5-2.7-2.2-2 3-.4 1.4-2.5 1.3 2.5 3 .4-2.2 2 .5 2.7-2.6-1.3Zm2.7-1.8 2 1-.4-2.1 1.6-1.4-2.3-.3-1-1.9-1 1.9-2.1.3L92 49l-.4 2Z" fill="#939393"/><path data-name="Path 142" d="m107.3 52-2.7-1.3-2.7 1.3.5-2.7-2.1-2 3-.4 1.3-2.5 1.3 2.5 3 .4-2.1 2Zm-6-4.3L103 49l-.4 2 2-1 2 1-.4-2 1.6-1.4-2.2-.3-1-1.9-1 1.9Z" fill="#939393"/><path data-name="Path 143" d="m112.8 52 .6-2.7-2.2-2 3-.4 1.3-2.5 1.4 2.5 3 .4-2.2 2 .5 2.7-2.7-1.3Zm2.7-1.8 2 1-.4-2.1 1.6-1.4-2.2-.3-1-1.9-1 1.9-2.2.3L114 49l-.4 2Z" fill="#939393"/><path data-name="Path 144" d="m129.1 52-2.6-1.3-2.7 1.3.5-2.7-2.2-2 3-.4 1.4-2.5 1.3 2.5 3 .4-2.2 2Zm-5.8-4.3 1.6 1.4-.4 2 2-1 2 1-.4-2 1.6-1.4-2.3-.3-1-1.9-1 1.9Z" fill="#939393"/><path data-name="Path 145" d="m285.2 52 .5-2.7-2.2-2 3-.4 1.4-2.5 1.3 2.5 3 .4-2.1 2 .5 2.7-2.7-1.3Zm2.7-1.8 2 1-.4-2.1 1.6-1.4-2.2-.3-1-1.9-1 1.9-2.2.3 1.6 1.4-.4 2Z" fill="#939393"/><path data-name="Path 146" d="m296.1 52 .5-2.7-2.1-2 3-.4 1.3-2.5 1.4 2.5 3 .4-2.2 2 .5 2.7-2.7-1.3Zm2.7-1.8 2 1-.4-2.1 1.6-1.4-2.2-.3-1-1.9-1 1.9-2.2.3 1.6 1.4-.4 2Z" fill="#939393"/><path data-name="Path 147" d="m312.4 52-2.6-1.3L307 52l.5-2.7-2.2-2 3-.4 1.4-2.5 1.3 2.5 3 .4-2.2 2Zm-5.8-4.3 1.6 1.4-.4 2 2-1 2 1-.4-2 1.6-1.4-2.3-.3-1-1.9-1 1.9Z" fill="#939393"/><path data-name="Path 148" d="m318 52 .5-2.7-2.2-2 3-.4 1.4-2.5 1.3 2.5 3 .4-2.1 2 .5 2.7-2.7-1.3Zm2.7-1.8 2 1-.4-2.1 1.6-1.4-2.2-.3-1-1.9-1 1.9-2.2.3L319 49l-.4 2Z" fill="#939393"/><path data-name="Path 149" d="m334.3 52-2.7-1.3L329 52l.5-2.7-2.1-2 3-.4 1.3-2.5 1.4 2.5 3 .4-2.2 2Zm-5.9-4.3L330 49l-.4 2 2-1 2 1-.4-2 1.6-1.4-2.2-.3-1-1.9-1 1.9Z" fill="#939393"/><path data-name="Path 150" d="m80 139.9.6-2.8-2.2-2 3-.4 1.3-2.5 1.4 2.5 3 .4-2.2 2 .5 2.8-2.7-1.3Zm2.7-1.9 2 1-.4-2 1.6-1.5-2.2-.3-1-1.9-1 1.9-2.2.3 1.6 1.4-.4 2Z" fill="#939393"/><path data-name="Path 151" d="m91 139.9.5-2.8-2.2-2 3-.4 1.4-2.5 1.3 2.5 3 .4-2.2 2 .5 2.8-2.6-1.3Zm2.7-1.9 2 1-.4-2 1.6-1.5-2.3-.3-1-1.9-1 1.9-2.1.3 1.6 1.4-.4 2Z" fill="#939393"/><path data-name="Path 152" d="m107.3 139.9-2.7-1.3-2.7 1.3.5-2.8-2.1-2 3-.4 1.3-2.5 1.3 2.5 3 .4-2.1 2Zm-6-4.4 1.7 1.4-.4 2 2-.9 2 1-.4-2 1.6-1.5-2.2-.3-1-1.9-1 1.9Z" fill="#939393"/><path data-name="Path 153" d="m112.8 139.9.6-2.8-2.2-2 3-.4 1.3-2.5 1.4 2.5 3 .4-2.2 2 .5 2.8-2.7-1.3Zm2.7-1.9 2 1-.4-2 1.6-1.5-2.2-.3-1-1.9-1 1.9-2.2.3 1.6 1.4-.4 2Z" fill="#939393"/><path data-name="Path 154" d="m129.1 139.9-2.6-1.3-2.7 1.3.5-2.8-2.2-2 3-.4 1.4-2.5 1.3 2.5 3 .4-2.2 2Zm-5.8-4.4 1.6 1.4-.4 2 2-.9 2 1-.4-2 1.6-1.5-2.3-.3-1-1.9-1 1.9Z" fill="#939393"/><path data-name="Path 155" d="m285.2 139.9.5-2.8-2.2-2 3-.4 1.4-2.5 1.3 2.5 3 .4-2.1 2 .5 2.8-2.7-1.3Zm2.7-1.9 2 1-.4-2 1.6-1.5-2.2-.3-1-1.9-1 1.9-2.2.3 1.6 1.4-.4 2Z" fill="#939393"/><path data-name="Path 156" d="m296.1 139.9.5-2.8-2.1-2 3-.4 1.3-2.5 1.4 2.5 3 .4-2.2 2 .5 2.8-2.7-1.3Zm2.7-1.9 2 1-.4-2 1.6-1.5-2.2-.3-1-1.9-1 1.9-2.2.3 1.6 1.4-.4 2Z" fill="#939393"/><path data-name="Path 157" d="m312.4 139.9-2.6-1.3-2.7 1.3.5-2.8-2.2-2 3-.4 1.4-2.5 1.3 2.5 3 .4-2.2 2Zm-5.8-4.4 1.6 1.4-.4 2 2-.9 2 1-.4-2 1.6-1.5-2.3-.3-1-1.9-1 1.9Z" fill="#939393"/><path data-name="Path 158" d="m318 139.9.5-2.8-2.2-2 3-.4 1.4-2.5 1.3 2.5 3 .4-2.1 2 .5 2.8-2.7-1.3Zm2.7-1.9 2 1-.4-2 1.6-1.5-2.2-.3-1-1.9-1 1.9-2.2.3 1.6 1.4-.4 2Z" fill="#939393"/><path data-name="Path 159" d="m334.3 139.9-2.7-1.3-2.7 1.3.5-2.8-2.1-2 3-.4 1.3-2.5 1.4 2.5 3 .4-2.2 2Zm-5.9-4.4 1.6 1.4-.4 2 2-.9 2 1-.4-2 1.6-1.5-2.2-.3-1-1.9-1 1.9Z" fill="#939393"/><path data-name="Path 160" d="m80 229 .6-2.7-2.2-2 3-.4 1.3-2.5 1.4 2.5 3 .4-2.2 2 .5 2.8-2.7-1.3Zm2.7-1.8 2 1-.4-2 1.6-1.5-2.2-.3-1-1.9-1 1.9-2.2.3 1.6 1.4-.4 2Z" fill="#939393"/><path data-name="Path 161" d="m91 229 .5-2.7-2.2-2 3-.4 1.4-2.5L95 224l3 .4-2.2 2 .5 2.8-2.6-1.3Zm2.7-1.8 2 1-.4-2 1.6-1.5-2.3-.3-1-1.9-1 1.9-2.1.3L92 226l-.4 2Z" fill="#939393"/><path data-name="Path 162" d="m107.3 229-2.7-1.2-2.7 1.3.5-2.8-2.1-2 3-.4 1.3-2.5 1.3 2.5 3 .4-2.1 2Zm-6-4.3 1.7 1.4-.4 2 2-.9 2 1-.4-2 1.6-1.5-2.2-.3-1-1.9-1 1.9Z" fill="#939393"/><path data-name="Path 163" d="m112.8 229 .6-2.7-2.2-2 3-.4 1.3-2.5 1.4 2.5 3 .4-2.2 2 .5 2.8-2.7-1.3Zm2.7-1.8 2 1-.4-2 1.6-1.5-2.2-.3-1-1.9-1 1.9-2.2.3 1.6 1.4-.4 2Z" fill="#939393"/><path data-name="Path 164" d="m129.1 229-2.6-1.2-2.7 1.3.5-2.8-2.2-2 3-.4 1.4-2.5 1.3 2.5 3 .4-2.2 2Zm-5.8-4.3 1.6 1.4-.4 2 2-.9 2 1-.4-2 1.6-1.5-2.3-.3-1-1.9-1 1.9Z" fill="#939393"/><path data-name="Path 165" d="m285.2 229 .5-2.7-2.2-2 3-.4 1.4-2.5 1.3 2.5 3 .4-2.1 2 .5 2.8-2.7-1.3Zm2.7-1.8 2 1-.4-2 1.6-1.5-2.2-.3-1-1.9-1 1.9-2.2.3 1.6 1.4-.4 2Z" fill="#939393"/><path data-name="Path 166" d="m296.1 229 .5-2.7-2.1-2 3-.4 1.3-2.5 1.4 2.5 3 .4-2.2 2 .5 2.8-2.7-1.3Zm2.7-1.8 2 1-.4-2 1.6-1.5-2.2-.3-1-1.9-1 1.9-2.2.3 1.6 1.4-.4 2Z" fill="#939393"/><path data-name="Path 167" d="m312.4 229-2.6-1.2-2.7 1.3.5-2.8-2.2-2 3-.4 1.4-2.5 1.3 2.5 3 .4-2.2 2Zm-5.8-4.3 1.6 1.4-.4 2 2-.9 2 1-.4-2 1.6-1.5-2.3-.3-1-1.9-1 1.9Z" fill="#939393"/><path data-name="Path 168" d="m318 229 .5-2.7-2.2-2 3-.4 1.4-2.5 1.3 2.5 3 .4-2.1 2 .5 2.8-2.7-1.3Zm2.7-1.8 2 1-.4-2 1.6-1.5-2.2-.3-1-1.9-1 1.9-2.2.3 1.6 1.4-.4 2Z" fill="#939393"/><path data-name="Path 169" d="m334.3 229-2.7-1.2-2.7 1.3.5-2.8-2.1-2 3-.4 1.3-2.5 1.4 2.5 3 .4-2.2 2Zm-5.9-4.3 1.6 1.4-.4 2 2-.9 2 1-.4-2 1.6-1.5-2.2-.3-1-1.9-1 1.9Z" fill="#939393"/><path data-name="Rectangle 96" fill="#9e9e9e" d="M78.4 10.5h67V17h-67z"/><path data-name="Path 170" d="M319 35.1a2.8 2.8 0 0 1-1.7-.7l.4-.5a2.2 2.2 0 0 0 1.4.6 1 1 0 0 0 1-1c0-1.5-2.5-1.1-2.5-3a1.5 1.5 0 0 1 1.3-1.5v-1h.6v1a2 2 0 0 1 1.3.7l-.4.5a1.5 1.5 0 0 0-1.1-.6.9.9 0 0 0-1 1c0 1.3 2.6.9 2.6 2.9a1.6 1.6 0 0 1-1.4 1.6v1h-.6Zm3-2.8c0-2.4 1-3.3 2.2-3.3a1.9 1.9 0 0 1 1.4.6l-.4.5a1.3 1.3 0 0 0-1-.5c-.8 0-1.5.7-1.6 2.6a1.9 1.9 0 0 1 1.4-.8 1.6 1.6 0 0 1 1.7 1.8 1.8 1.8 0 0 1-1.8 2c-1.1 0-2-1-2-3Zm2 2.2c.5 0 1-.5 1-1.3s-.4-1.2-1.1-1.2a1.6 1.6 0 0 0-1.3.8c.1 1.1.6 1.7 1.3 1.7Zm2.3-.2.4-.5a2 2 0 0 0 1.5.7 1.3 1.3 0 0 0 1.3-1.4 1.2 1.2 0 0 0-1.3-1.3 1.7 1.7 0 0 0-1 .4l-.4-.2.2-2.9h3v.7h-2.3l-.2 1.7a1.8 1.8 0 0 1 .9-.2 1.7 1.7 0 0 1 1.8 1.8 2 2 0 0 1-2 2 2.6 2.6 0 0 1-2-.8Zm5 .3a.6.6 0 0 1 .5-.6.6.6 0 0 1 .6.6.6.6 0 0 1-.6.5.6.6 0 0 1-.5-.6Zm2-2.6c0-2 .8-3 2-3s1.9 1 1.9 3-.7 3.1-2 3.1-1.8-1-1.8-3Zm3.1 0c0-1.7-.4-2.4-1.1-2.4s-1.2.7-1.2 2.4.5 2.5 1.2 2.5 1.1-.7 1.1-2.5Zm1.6 0c0-2 .7-3 1.9-3s1.9 1 1.9 3-.7 3.1-2 3.1-1.8-1-1.8-3Zm3 0c0-1.7-.4-2.4-1.1-2.4s-1.2.7-1.2 2.4.5 2.5 1.2 2.5 1.1-.7 1.1-2.5Z" fill="#939393"/><path data-name="Path 171" d="M287.5 35.1a2.8 2.8 0 0 1-1.6-.7l.4-.5a2.2 2.2 0 0 0 1.4.6 1 1 0 0 0 1-1c0-1.5-2.5-1.1-2.5-3a1.5 1.5 0 0 1 1.3-1.5v-1h.6v1a2 2 0 0 1 1.3.7l-.4.5a1.5 1.5 0 0 0-1.2-.6.9.9 0 0 0-.9 1c0 1.3 2.6.9 2.6 2.9A1.6 1.6 0 0 1 288 35v1h-.6Zm3-5.3V29h3.8v.5a8 8 0 0 0-1.8 5.4h-.8a8.7 8.7 0 0 1 1.7-5.2Zm4.4 4.5.4-.5a2 2 0 0 0 1.4.7A1.3 1.3 0 0 0 298 33a1.2 1.2 0 0 0-1.2-1.3 1.7 1.7 0 0 0-1 .4l-.4-.2.2-2.9h3v.7h-2.4l-.1 1.7a1.8 1.8 0 0 1 .9-.2 1.7 1.7 0 0 1 1.8 1.8 2 2 0 0 1-2 2 2.6 2.6 0 0 1-2-.8Zm5 .3a.6.6 0 0 1 .5-.6.6.6 0 0 1 .6.6.6.6 0 0 1-.6.5.6.6 0 0 1-.5-.6Zm2-2.6c0-2 .8-3 2-3s1.9 1 1.9 3-.8 3.1-2 3.1-1.8-1-1.8-3Zm3.1 0c0-1.7-.5-2.4-1.1-2.4s-1.2.7-1.2 2.4.5 2.5 1.2 2.5 1.1-.7 1.1-2.5Zm1.6 0c0-2 .7-3 1.9-3s1.9 1 1.9 3-.8 3.1-2 3.1-1.8-1-1.8-3Zm3 0c0-1.7-.5-2.4-1.1-2.4s-1.2.7-1.2 2.4.5 2.5 1.2 2.5 1.1-.7 1.1-2.5Z" fill="#c6c6c6"/><path data-name="Line 4" fill="none" stroke="#c6c6c6" stroke-miterlimit="10" stroke-width=".8" d="M283.5 32h29.1"/><path data-name="Rectangle 97" fill="#9e9e9e" d="M283.5 10.6h46.7V17h-46.7z"/><path data-name="Path 172" d="M80.4 124.4a2.8 2.8 0 0 1-1.5-.7l.3-.5a2.2 2.2 0 0 0 1.5.6 1 1 0 0 0 1-1c0-1.5-2.6-1.1-2.6-3a1.5 1.5 0 0 1 1.3-1.5v-1h.6v1a2 2 0 0 1 1.3.7l-.4.4a1.5 1.5 0 0 0-1.1-.5.9.9 0 0 0-1 1c0 1.3 2.6.9 2.6 2.9a1.6 1.6 0 0 1-1.4 1.6v1h-.6Zm3-2.8c0-2.4 1.1-3.3 2.3-3.3a1.9 1.9 0 0 1 1.4.6l-.4.5a1.3 1.3 0 0 0-1-.5c-.8 0-1.5.7-1.5 2.5a1.9 1.9 0 0 1 1.3-.7 1.6 1.6 0 0 1 1.7 1.8 1.8 1.8 0 0 1-1.7 2c-1.2 0-2-1-2-3Zm2 2.2c.6 0 1.1-.5 1.1-1.3s-.4-1.2-1-1.2a1.6 1.6 0 0 0-1.3.7c0 1.2.5 1.8 1.3 1.8Zm2.4-.2.4-.5a2 2 0 0 0 1.5.7 1.3 1.3 0 0 0 1.3-1.4 1.2 1.2 0 0 0-1.3-1.3 1.7 1.7 0 0 0-1 .4l-.4-.3.2-2.8h3v.6h-2.3l-.2 1.8a1.8 1.8 0 0 1 1-.2 1.7 1.7 0 0 1 1.8 1.8 2 2 0 0 1-2 2 2.6 2.6 0 0 1-2-.8Zm5 .2a.6.6 0 0 1 .5-.5.6.6 0 0 1 .6.5.6.6 0 0 1-.6.6.6.6 0 0 1-.5-.6Zm2.1-2.5c0-2 .7-3 1.9-3s1.9 1 1.9 3-.7 3.1-1.9 3.1-1.9-1-1.9-3Zm3 0c0-1.7-.4-2.4-1.1-2.4s-1.2.7-1.2 2.4.5 2.5 1.2 2.5 1.2-.7 1.2-2.5Zm1.6 0c0-2 .7-3 1.9-3s1.9 1 1.9 3-.7 3.1-1.9 3.1-1.9-1-1.9-3Zm3 0c0-1.7-.4-2.4-1.1-2.4s-1.1.7-1.1 2.4.4 2.5 1.1 2.5 1.2-.7 1.2-2.5Z" fill="#939393"/><path data-name="Rectangle 98" fill="#9e9e9e" d="M78.4 99.9h50.5v6.5H78.4z"/><path data-name="Path 173" d="M285.6 124.4a2.8 2.8 0 0 1-1.6-.7l.4-.5a2.2 2.2 0 0 0 1.4.6 1 1 0 0 0 1-1c0-1.4-2.5-1.1-2.5-3a1.5 1.5 0 0 1 1.3-1.5v-.9h.6v1a2 2 0 0 1 1.3.6l-.4.5a1.5 1.5 0 0 0-1.2-.5.9.9 0 0 0-.9.8c0 1.4 2.6 1 2.6 3a1.6 1.6 0 0 1-1.4 1.6v1h-.6Zm3-2.8c0-2.4 1-3.3 2.2-3.3a1.9 1.9 0 0 1 1.5.6l-.5.5a1.3 1.3 0 0 0-1-.4c-.8 0-1.5.6-1.5 2.5a1.9 1.9 0 0 1 1.4-.8 1.6 1.6 0 0 1 1.7 1.9 1.8 1.8 0 0 1-1.8 1.9c-1.1 0-2-1-2-2.9Zm2 2.3c.6 0 1-.6 1-1.3s-.3-1.3-1-1.3a1.6 1.6 0 0 0-1.3.8c.1 1.1.6 1.7 1.3 1.7Zm2.4-.3.4-.5a2 2 0 0 0 1.4.7 1.3 1.3 0 0 0 1.3-1.3 1.2 1.2 0 0 0-1.2-1.3 1.7 1.7 0 0 0-1 .3l-.4-.2.2-2.9h3v.7h-2.4l-.1 1.7a1.8 1.8 0 0 1 .9-.2 1.7 1.7 0 0 1 1.8 1.8 2 2 0 0 1-2 2 2.6 2.6 0 0 1-2-.8Zm5 .3a.6.6 0 0 1 .5-.6.6.6 0 0 1 .6.6.6.6 0 0 1-.6.6.6.6 0 0 1-.5-.6Zm2-2.5c0-2 .8-3 2-3s1.9 1 1.9 3-.8 3-2 3-1.8-1-1.8-3Zm3.1 0c0-1.8-.5-2.5-1.1-2.5s-1.2.7-1.2 2.5.5 2.4 1.2 2.4 1.1-.7 1.1-2.4Zm1.6 0c0-2 .7-3 1.9-3s1.9 1 1.9 3-.8 3-2 3-1.8-1-1.8-3Zm3 0c0-1.8-.5-2.5-1.1-2.5s-1.2.7-1.2 2.5.5 2.4 1.2 2.4 1.1-.7 1.1-2.4Z" fill="#939393"/><path data-name="Rectangle 99" fill="#9e9e9e" d="M283.5 99.9h46.7v6.5h-46.7z"/><path data-name="Path 174" d="M113.8 213.7a2.8 2.8 0 0 1-1.6-.7l.3-.5a2.2 2.2 0 0 0 1.5.6 1 1 0 0 0 1-1c0-1.5-2.6-1.1-2.6-3a1.5 1.5 0 0 1 1.4-1.5v-1h.5v1a2 2 0 0 1 1.3.7l-.4.5a1.5 1.5 0 0 0-1.1-.6.9.9 0 0 0-1 1c0 1.3 2.6.9 2.6 2.9a1.6 1.6 0 0 1-1.4 1.6v1h-.5Zm3-2.8c0-2.4 1-3.3 2.2-3.3a1.9 1.9 0 0 1 1.4.6l-.4.5a1.3 1.3 0 0 0-1-.5c-.8 0-1.5.7-1.5 2.5a1.9 1.9 0 0 1 1.3-.7 1.6 1.6 0 0 1 1.7 1.8 1.8 1.8 0 0 1-1.7 2c-1.2 0-2-1-2-3Zm2 2.2c.6 0 1-.5 1-1.3s-.4-1.2-1-1.2a1.6 1.6 0 0 0-1.3.8c0 1.1.5 1.7 1.3 1.7Zm2.3-.2.4-.5a2 2 0 0 0 1.5.7 1.3 1.3 0 0 0 1.3-1.4 1.2 1.2 0 0 0-1.3-1.3 1.7 1.7 0 0 0-1 .4l-.4-.3.2-2.8h3v.6h-2.3l-.2 1.8a1.8 1.8 0 0 1 1-.2 1.7 1.7 0 0 1 1.8 1.8 2 2 0 0 1-2 2 2.6 2.6 0 0 1-2-.8Zm5 .2a.6.6 0 0 1 .6-.5.6.6 0 0 1 .5.5.6.6 0 0 1-.5.6.6.6 0 0 1-.6-.6Zm2.1-2.5c0-2 .7-3 2-3s1.8 1 1.8 3-.7 3.1-1.9 3.1-1.9-1-1.9-3Zm3 0c0-1.7-.4-2.4-1-2.4s-1.2.7-1.2 2.4.4 2.5 1.1 2.5 1.2-.7 1.2-2.5Zm1.6 0c0-2 .7-3 2-3s1.8 1 1.8 3-.7 3.1-1.9 3.1-1.9-1-1.9-3Zm3 0c0-1.7-.4-2.4-1-2.4s-1.2.7-1.2 2.4.4 2.5 1.1 2.5 1.2-.7 1.2-2.5Z" fill="#939393"/><path data-name="Path 175" d="M82.3 213.7a2.8 2.8 0 0 1-1.5-.7l.3-.5a2.2 2.2 0 0 0 1.4.6 1 1 0 0 0 1-1c0-1.5-2.5-1.1-2.5-3a1.5 1.5 0 0 1 1.3-1.5v-1h.6v1a2 2 0 0 1 1.3.7l-.4.5a1.5 1.5 0 0 0-1.1-.6.9.9 0 0 0-1 1c0 1.3 2.6.9 2.6 2.9a1.6 1.6 0 0 1-1.4 1.6v1h-.6Zm3-5.3v-.7H89v.5a8.1 8.1 0 0 0-1.8 5.4h-.8a8.7 8.7 0 0 1 1.7-5.2Zm4.4 4.5.4-.5a2 2 0 0 0 1.5.7 1.3 1.3 0 0 0 1.3-1.4 1.2 1.2 0 0 0-1.3-1.3 1.7 1.7 0 0 0-1 .4l-.4-.3.2-2.8h3v.6H91l-.2 1.8a1.8 1.8 0 0 1 1-.2 1.7 1.7 0 0 1 1.8 1.8 2 2 0 0 1-2 2 2.6 2.6 0 0 1-2-.8Zm5 .2a.6.6 0 0 1 .5-.5.6.6 0 0 1 .6.5.6.6 0 0 1-.6.6.6.6 0 0 1-.5-.6Zm2.1-2.5c0-2 .7-3 1.9-3s1.9 1 1.9 3-.7 3.1-1.9 3.1-1.9-1-1.9-3Zm3 0c0-1.7-.4-2.4-1.1-2.4s-1.2.7-1.2 2.4.5 2.5 1.2 2.5 1.2-.7 1.2-2.5Zm1.6 0c0-2 .7-3 1.9-3s1.9 1 1.9 3-.7 3.1-1.9 3.1-1.9-1-1.9-3Zm3 0c0-1.7-.4-2.4-1.1-2.4s-1.2.7-1.2 2.4.5 2.5 1.2 2.5 1.2-.7 1.2-2.5Z" fill="#c6c6c6"/><path data-name="Line 5" fill="none" stroke="#c6c6c6" stroke-miterlimit="10" stroke-width=".8" d="M78.4 210.6h29"/><path data-name="Rectangle 100" fill="#9e9e9e" d="M78.4 189.2h53.8v6.5H78.4z"/><path data-name="Path 176" d="M319 213.7a2.8 2.8 0 0 1-1.7-.7l.4-.5a2.2 2.2 0 0 0 1.4.6 1 1 0 0 0 1-1c0-1.4-2.5-1.1-2.5-3a1.5 1.5 0 0 1 1.3-1.5v-.9h.6v1a2 2 0 0 1 1.3.6l-.4.5a1.5 1.5 0 0 0-1.1-.5.9.9 0 0 0-1 .9c0 1.3 2.6 1 2.6 3a1.6 1.6 0 0 1-1.4 1.5v1h-.6Zm3-2.8c0-2.4 1-3.3 2.2-3.3a1.9 1.9 0 0 1 1.4.6l-.4.5a1.3 1.3 0 0 0-1-.4c-.8 0-1.5.6-1.6 2.5a1.9 1.9 0 0 1 1.4-.8 1.6 1.6 0 0 1 1.7 1.9 1.8 1.8 0 0 1-1.8 1.9c-1.1 0-2-1-2-2.9Zm2 2.3c.5 0 1-.6 1-1.3s-.4-1.3-1.1-1.3a1.6 1.6 0 0 0-1.3.8c.1 1.1.6 1.7 1.3 1.7Zm2.3-.3.4-.5a2 2 0 0 0 1.5.7 1.3 1.3 0 0 0 1.3-1.3 1.2 1.2 0 0 0-1.3-1.3 1.7 1.7 0 0 0-1 .3l-.4-.2.2-2.9h3v.7h-2.3l-.2 1.7a1.8 1.8 0 0 1 .9-.2 1.7 1.7 0 0 1 1.8 1.8 2 2 0 0 1-2 2 2.6 2.6 0 0 1-2-.8Zm5 .3a.6.6 0 0 1 .5-.6.6.6 0 0 1 .6.6.6.6 0 0 1-.6.6.6.6 0 0 1-.5-.6Zm2-2.5c0-2 .8-3 2-3s1.9 1 1.9 3-.7 3-2 3-1.8-1-1.8-3Zm3.1 0c0-1.8-.4-2.5-1.1-2.5s-1.2.7-1.2 2.5.5 2.4 1.2 2.4 1.1-.7 1.1-2.4Zm1.6 0c0-2 .7-3 1.9-3s1.9 1 1.9 3-.7 3-2 3-1.8-1-1.8-3Zm3 0c0-1.8-.4-2.5-1.1-2.5s-1.2.7-1.2 2.5.5 2.4 1.2 2.4 1.1-.7 1.1-2.4Z" fill="#939393"/><path data-name="Path 177" d="M287.5 213.7a2.8 2.8 0 0 1-1.6-.7l.4-.5a2.2 2.2 0 0 0 1.4.6 1 1 0 0 0 1-1c0-1.4-2.5-1.1-2.5-3a1.5 1.5 0 0 1 1.3-1.5v-.9h.6v1a2 2 0 0 1 1.3.6l-.4.5a1.5 1.5 0 0 0-1.2-.5.9.9 0 0 0-.9.9c0 1.3 2.6 1 2.6 3a1.6 1.6 0 0 1-1.4 1.5v1h-.6Zm3-5.3v-.7h3.8v.5a8 8 0 0 0-1.8 5.4h-.8a8.7 8.7 0 0 1 1.7-5.2Zm4.4 4.5.4-.5a2 2 0 0 0 1.4.7 1.3 1.3 0 0 0 1.3-1.3 1.2 1.2 0 0 0-1.2-1.3 1.7 1.7 0 0 0-1 .3l-.4-.2.2-2.9h3v.7h-2.4l-.1 1.7a1.8 1.8 0 0 1 .9-.2 1.7 1.7 0 0 1 1.8 1.8 2 2 0 0 1-2 2 2.6 2.6 0 0 1-2-.8Zm5 .3a.6.6 0 0 1 .5-.6.6.6 0 0 1 .6.6.6.6 0 0 1-.6.6.6.6 0 0 1-.5-.6Zm2-2.5c0-2 .8-3 2-3s1.9 1 1.9 3-.8 3-2 3-1.8-1-1.8-3Zm3.1 0c0-1.8-.5-2.5-1.1-2.5s-1.2.7-1.2 2.5.5 2.4 1.2 2.4 1.1-.7 1.1-2.4Zm1.6 0c0-2 .7-3 1.9-3s1.9 1 1.9 3-.8 3-2 3-1.8-1-1.8-3Zm3 0c0-1.8-.5-2.5-1.1-2.5s-1.2.7-1.2 2.5.5 2.4 1.2 2.4 1.1-.7 1.1-2.4Z" fill="#c6c6c6"/><path data-name="Line 6" fill="none" stroke="#c6c6c6" stroke-miterlimit="10" stroke-width=".8" d="M283.5 210.7h29.1"/><path data-name="Rectangle 101" fill="#9e9e9e" d="M283.5 189.2H350v6.5h-66.5z"/><path data-name="Rectangle 102" fill="#bcbcbc" d="M0 178.6h64.2v64.2H0z"/><path data-name="Path 178" d="m33 199.6 4.7-5.7-1.2-.3a2.1 2.1 0 0 0-2.4.8l-1.3 2a.8.8 0 0 1-1.4 0l-1.3-2a2.2 2.2 0 0 0-2.3-.8l-1.2.3 4.8 5.7a1 1 0 0 0 1.6 0" fill="#d3d3d3"/><path data-name="Path 179" d="M41.4 221.4v-2.7a45.4 45.4 0 0 1-9.3 1 44.8 44.8 0 0 1-6.2-.4l-3-.6v2.7a44 44 0 0 0 18.5 0" fill="#d3d3d3"/><path data-name="Path 180" d="M32 223.6a44.7 44.7 0 0 1-6.1-.5l-3-.5-.1 2.7a1.3 1.3 0 0 0 1.1 1.5 30.8 30.8 0 0 0 16.5 0 1 1 0 0 0 1-1.4v-2.8a45.3 45.3 0 0 1-9.3 1" fill="#d3d3d3"/><path data-name="Path 181" d="m48.8 204.4-5-8c-.2-.3-.3-.6-.7-.8l-4.1-1.3-5.3 6.3a1.9 1.9 0 0 1-3 0l-5.4-6.3-4 1.2a1.4 1.4 0 0 0-.8.7l-5.3 8.4c-.3.5 0 .7.3 1 1.3.8 2.5 1.8 3.8 2.7a.8.8 0 0 0 1 0l2.5-1.6V217.5a44.1 44.1 0 0 0 18.6 0V208a1.6 1.6 0 0 1 .1-1.1l2.3 1.5a.8.8 0 0 0 1.2 0c1.2-1 2.4-1.9 3.7-2.7.5-.4.5-.7.1-1.2" fill="#d3d3d3"/><path data-name="Rectangle 103" fill="#bcbcbc" d="M207.2 0h64.2v64.2h-64.2z"/><path data-name="Path 182" d="M256.5 23a34.7 34.7 0 0 0-2.6 4.9 1.5 1.5 0 0 1-2.1.9c-2.3-.8-2.3-.7-2.3 1.7V46c0 1.2-.4 1.7-1.7 1.7h-17c-1.4 0-1.8-.5-1.7-1.7V29.2c0-1-.2-1.1-1.1-.8-3 .8-2.4 1.3-4-1.7-.6-1.1-1-2.3-1.7-3.4-.3-.7-.2-1.2.5-1.5 2.7-1.1 5.3-2.7 8.1-3.4.7-.2 1.1-.2 1.5.6l1.5 3c1.3 2.4 2 2.7 4.5 1.3v6c0 .7 0 1.4 1 1.3.7 0 .7-.6.7-1.2v-6h.3c2.2 1.2 3 1 4-1.2l1.8-3.3c.3-.6.6-.8 1.2-.6a50.7 50.7 0 0 1 9 4Z" fill="#d3d3d3"/><path data-name="Path 183" d="M244.8 17.7a.6.6 0 0 1 0 .3l-1.1 2-.6 1.1-.3.5c-.1.2-.3.7-.5.8s-.5-.2-.7-.3c-.7-.6-1.5-1.6-2.3-1.6-.9-.1-1.6 1-2.4 1.6-.5.4-.8.3-1.1-.3l-1.9-3.6c-.3-.6 0-1 .5-1.4l.6-.5.7-.5c.5 0 .8.3 1 .6.8 1 1.6 2.7 2.6 2.7.9 0 1.6-1.7 2.5-2.6.3-.3.5-1 1.1-.6l1.1.8c.3.3.8.6.8 1" fill="#d3d3d3"/><path data-name="Rectangle 104" fill="#bcbcbc" d="M207.2 178.6h64.2v64.2h-64.2z"/><path data-name="Path 184" d="M257.2 214.5c-.2-3.1-.3-6.3-.3-9.5a3.4 3.4 0 0 0-2-3.2 16 16 0 0 0-7.3-2c-.8 0-1.5 0-2.1-1-.9-1.5-4.4-1.3-5.3.2a1.6 1.6 0 0 1-1.6.9 23.8 23.8 0 0 0-8.9 2.5 3.8 3.8 0 0 0-2.4 3.6 39.6 39.6 0 0 0 0 5.9 1.3 1.3 0 0 1-.8 1.5l-5.1 3.3c7 .2 13.3 2 18.7 6.1a2.4 2.4 0 0 0 3.5 0l4.9-4.5a3.2 3.2 0 0 1 2.2-1 21.5 21.5 0 0 0 5-.6 1.8 1.8 0 0 0 1.5-2.2m-28-1.6c8.1-3 15.3 3 15.3 3a59 59 0 0 0-15.2-3" fill="#d3d3d3"/><path data-name="Path 185" d="M221.4 218.7a10.5 10.5 0 0 1 8.1 1.4 13.8 13.8 0 0 1-8.1-1.4" fill="#d3d3d3"/></g></g></svg>