<svg xmlns="http://www.w3.org/2000/svg" width="350" height="297.7"><g data-name="Group 255"><path data-name="Path 82" d="m61 129.4.4-2.3-1.6-1.6 2.3-.3 1-2 1 2 2.3.3-1.7 1.6.4 2.3-2-1Zm2-1.5 1.6.8-.3-1.7 1.2-1.2-1.7-.3-.7-1.5-.8 1.5-1.7.3L62 127l-.3 1.7Z" fill="#939393"/><path data-name="Path 83" d="m69.4 129.4.4-2.3-1.7-1.6 2.3-.3 1-2 1 2 2.3.3-1.6 1.6.3 2.3-2-1Zm2-1.5 1.5.8-.3-1.7 1.2-1.2-1.6-.3-.8-1.5-.8 1.5-1.6.3 1.2 1.2-.3 1.7Z" fill="#939393"/><path data-name="Path 84" d="m81.8 129.4-2-1-2.1 1 .4-2.3-1.7-1.6 2.3-.3 1-2 1 2 2.3.3-1.6 1.6Zm-4.5-3.6 1.2 1.2-.3 1.7 1.5-.8 1.5.8-.3-1.7 1.3-1.2-1.7-.2-.8-1.6-.7 1.6Z" fill="#939393"/><path data-name="Path 85" d="m86 129.4.4-2.3-1.7-1.6 2.3-.3 1-2 1 2 2.3.3-1.6 1.6.4 2.3-2-1Zm2-1.5 1.6.8-.3-1.7 1.2-1.2-1.7-.3-.8-1.5-.7 1.5-1.7.3 1.2 1.2-.3 1.7Z" fill="#939393"/><path data-name="Path 86" d="m98.4 129.4-2-1-2 1 .3-2.3-1.6-1.6 2.2-.3 1-2 1 2 2.4.3-1.7 1.6Zm-4.5-3.6 1.2 1.2-.2 1.7 1.5-.8 1.5.8-.3-1.7 1.2-1.2-1.7-.2-.7-1.6-.8 1.6Z" fill="#939393"/><path data-name="Rectangle 75" fill="#bcbcbc" d="M.2 0h99.5v99.5H.2z"/><path data-name="Rectangle 76" fill="#bcbcbc" d="M125.3 0h99.5v99.5h-99.5z"/><path data-name="Rectangle 77" fill="#bcbcbc" d="M250.4 0H350v99.5h-99.5z"/><path data-name="Path 87" d="M55.4 21.3a5.3 5.3 0 0 1-5.2 4.3 5.7 5.7 0 0 1-5.7-3.9c-.7-2-1-2.2-3-1.5l-10.2 3.2a2.5 2.5 0 0 0-1.6 1.1l-9.1 14.6c-.6.9-.2 1.2.4 1.7 2.2 1.6 4.5 3.2 6.6 4.9a1.3 1.3 0 0 0 1.8 0l4.4-3v32.5a2.2 2.2 0 0 0 1.9 2.6 53.6 53.6 0 0 0 28.8-.1 1.9 1.9 0 0 0 1.6-2.2V44.8a2.8 2.8 0 0 1 .2-1.9c1.4 1 2.8 1.7 4 2.7a1.4 1.4 0 0 0 2 0c2.2-1.7 4.3-3.3 6.5-4.8 1-.6.8-1 .3-2l-8.8-14c-.3-.4-.5-1-1.1-1.2-3.9-1.3-7.7-2.5-11.6-3.6a3.1 3.1 0 0 0-.8-.2c-.7 0-1.2.4-1.4 1.5" fill="#d3d3d3"/><path data-name="Path 88" d="M168.4 24c-2.7.8-5.4 1.8-8 2.5a8.2 8.2 0 0 0-5.3 4.3 13.8 13.8 0 0 0-1.7 5.3c-.6 7-1.7 14.1-2.8 21.2a42.9 42.9 0 0 0-.3 13.4c.6 3.5.6 3.5 4.1 3.5h1.3c.2 0 .4 0 .5-.4.4-1.6 1-3.1 1.2-4.7 1-5 1.1-9.9 2.2-14.7l2-9.4a1.5 1.5 0 0 1 .2 0v24.8a4.3 4.3 0 0 0 3.7 4.7 42.6 42.6 0 0 0 21 0A4.3 4.3 0 0 0 190 70V45h.3l2.2 11c1 4.7 1 9.6 2.2 14.4.3 1.2.4 3 1.2 3.6a4.7 4.7 0 0 0 2.8.3l1.3-.1a3.9 3.9 0 0 0 .4 0 .4.4 0 0 0 .4-.4c0-1.1.6-2 .8-3.1a44.2 44.2 0 0 0-.2-12.7c-1-6.9-2.3-13.7-2.8-20.6a15.2 15.2 0 0 0-2-6.8 8 8 0 0 0-5-4l-8-2.6a5.9 5.9 0 0 0-1.8-.3c-.5 0-.8.1-1 .7-.7 2.4-2.5 4-4.3 5.6-.3.3-.5.6-1 .1-1.6-1.4-3.4-2.8-4.1-5-.4-1-1-1.4-1.6-1.4a4.8 4.8 0 0 0-1.4.3" fill="#d3d3d3"/><path data-name="Path 89" d="M306.3 42.4a.4.4 0 0 0-.4-.3.4.4 0 0 0-.5.3 4 4 0 0 0 0 1.2v5.9a4.3 4.3 0 0 0 0 1.2.4.4 0 0 0 .5.2.4.4 0 0 0 .4-.2 3.7 3.7 0 0 0 .1-1.2v-6a4.6 4.6 0 0 0 0-1.1m0 0a.4.4 0 0 0-.5-.3.4.4 0 0 0-.5.3 4 4 0 0 0 0 1.2v5.9a4.3 4.3 0 0 0 0 1.2.4.4 0 0 0 .5.2.4.4 0 0 0 .4-.2 3.7 3.7 0 0 0 .1-1.2v-6a4.6 4.6 0 0 0 0-1.1m-3.4 27a74.5 74.5 0 0 1-10.2-.7l-4.7-.8v5.4a2 2 0 0 0 1.7 2.3 49.6 49.6 0 0 0 26.6 0 1.8 1.8 0 0 0 1.5-2.1V68a81.4 81.4 0 0 1-14.9 1.4m14.9-3.8V45.2a2.6 2.6 0 0 1 .2-1.8s-8.7-5.6-3.1-19.7l-5-1.5a3 3 0 0 0-.7 0c-.6 0-1 .2-1.3 1.3a4.9 4.9 0 0 1-4.8 4 5.3 5.3 0 0 1-5.3-3.6c-.6-1.9-.9-2-2.8-1.5l-4.7 1.5c5.7 11.7-2.3 19.4-2.3 19.4v22a74.8 74.8 0 0 0 29.8.3m-15.6-21a8.1 8.1 0 0 1 .3-2.5 2.5 2.5 0 0 1 1.1-1.3 4 4 0 0 1 2.1-.5 4.3 4.3 0 0 1 1.8.3 3 3 0 0 1 1.1.9 2.8 2.8 0 0 1 .6 1.1 10.2 10.2 0 0 1 .1 2v4a9.5 9.5 0 0 1-.1 2 2.8 2.8 0 0 1-.7 1.2 2.7 2.7 0 0 1-1 .7 4.3 4.3 0 0 1-1.6.3 5.5 5.5 0 0 1-1.8-.3 2.5 2.5 0 0 1-1.1-.7 3.3 3.3 0 0 1-.6-1.2 7 7 0 0 1-.2-1.8Zm-6.2-2.2a5.5 5.5 0 0 0 3.3-1.9h1.8v12h-3v-6.4a11.5 11.5 0 0 0-.1-1.7.6.6 0 0 0-.4-.4 3.8 3.8 0 0 0-1.3-.2h-.3Zm9.8 8.5a.4.4 0 0 0 .4-.2 3.7 3.7 0 0 0 .1-1.2v-6a4.6 4.6 0 0 0 0-1.1.4.4 0 0 0-.5-.3.4.4 0 0 0-.5.3 4 4 0 0 0 0 1.2v5.9a4.3 4.3 0 0 0 0 1.2.4.4 0 0 0 .5.2" fill="#d3d3d3"/><path data-name="Rectangle 78" fill="#c6c6c6" d="M0 110.1h40.6v4.4H0z"/><path data-name="Rectangle 79" fill="#939393" d="M0 123.5h46.8v5.6H0z"/><path data-name="Path 90" d="m87.3 17.9-5.5-5.6a3.5 3.5 0 0 1 0-4.9 3.5 3.5 0 0 1 4.9 0l.6.7.7-.7a3.4 3.4 0 0 1 2.4-1 3.4 3.4 0 0 1 2.5 1 3.5 3.5 0 0 1 0 5Zm-3-10.7a2.7 2.7 0 0 0-2 .8 2.7 2.7 0 0 0 0 3.8l5 5 5-5a2.7 2.7 0 0 0 0-3.8 2.6 2.6 0 0 0-1.9-.8 2.6 2.6 0 0 0-1.8.8l-1.3 1.2L86.1 8a2.7 2.7 0 0 0-1.9-.8" fill="#fff"/><path data-name="Path 91" d="m212.2 17.9-5.5-5.6a3.5 3.5 0 0 1 0-4.9 3.5 3.5 0 0 1 4.9 0l.6.7.7-.7a3.4 3.4 0 0 1 2.4-1 3.4 3.4 0 0 1 2.5 1 3.5 3.5 0 0 1 0 5Zm-3-10.7a2.7 2.7 0 0 0-2 .8 2.7 2.7 0 0 0 0 3.8l5 5 5-5a2.7 2.7 0 0 0 0-3.8 2.6 2.6 0 0 0-1.9-.8 2.6 2.6 0 0 0-1.8.8l-1.3 1.2L211 8a2.7 2.7 0 0 0-1.9-.8" fill="#fff"/><path data-name="Path 92" d="m337.1 17.9-5.6-5.6a3.5 3.5 0 0 1 0-4.9 3.5 3.5 0 0 1 5 0l.6.7.7-.7a3.4 3.4 0 0 1 2.4-1 3.4 3.4 0 0 1 2.5 1 3.5 3.5 0 0 1 0 5ZM334 7.2a2.7 2.7 0 0 0-1.9.8 2.7 2.7 0 0 0 0 3.8l5 5 5-5a2.7 2.7 0 0 0 0-3.8 2.6 2.6 0 0 0-1.9-.8 2.6 2.6 0 0 0-1.9.8l-1.2 1.2L336 8a2.7 2.7 0 0 0-1.9-.8" fill="#fff"/><path data-name="Path 93" d="M72.9 115.4a3.3 3.3 0 0 1-1.8-.9l.4-.6a2.6 2.6 0 0 0 1.6.7 1 1 0 0 0 1.2-1c0-1.8-3-1.4-3-3.5a1.7 1.7 0 0 1 1.6-1.8v-1h.6v1a2.3 2.3 0 0 1 1.5.8l-.4.5a1.7 1.7 0 0 0-1.3-.6 1 1 0 0 0-1.1 1c0 1.6 3 1.2 3 3.5a1.8 1.8 0 0 1-1.7 1.8v1.1H73Zm3.4-3.3c0-2.7 1.3-3.8 2.6-3.8a2.2 2.2 0 0 1 1.7.7l-.5.6a1.5 1.5 0 0 0-1.2-.6c-1 0-1.7.8-1.8 3a2.2 2.2 0 0 1 1.6-1 1.8 1.8 0 0 1 2 2.2 2 2 0 0 1-2 2.2c-1.4 0-2.4-1.1-2.4-3.3Zm2.4 2.6c.6 0 1.1-.6 1.1-1.5s-.4-1.5-1.2-1.5a1.8 1.8 0 0 0-1.4 1c0 1.3.6 2 1.5 2Zm2.7-.3.4-.5a2.3 2.3 0 0 0 1.7.7 1.5 1.5 0 0 0 1.5-1.5 1.4 1.4 0 0 0-1.4-1.5 2 2 0 0 0-1.2.4l-.5-.3.2-3.3h3.5v.8h-2.7l-.2 2a2 2 0 0 1 1-.3 2 2 0 0 1 2.2 2.2 2.2 2.2 0 0 1-2.3 2.3 3 3 0 0 1-2.2-1Zm5.7.3a.6.6 0 0 1 .6-.7.6.6 0 0 1 .7.7.6.6 0 0 1-.7.7.6.6 0 0 1-.6-.7Zm2.4-2.9c0-2.3.9-3.5 2.2-3.5s2.2 1.2 2.2 3.5-.8 3.6-2.2 3.6-2.2-1.3-2.2-3.6Zm3.5 0c0-2-.5-2.8-1.3-2.8s-1.3.8-1.3 2.8.5 2.9 1.3 2.9 1.3-.9 1.3-2.9Zm1.8 0c0-2.3.9-3.5 2.2-3.5s2.2 1.2 2.2 3.5-.8 3.6-2.2 3.6-2.2-1.3-2.2-3.6Zm3.5 0c0-2-.5-2.8-1.3-2.8s-1.3.8-1.3 2.8.5 2.9 1.3 2.9 1.4-.9 1.4-2.9Z" fill="#939393"/><path data-name="Path 94" d="m186.2 129.4.4-2.3-1.6-1.6 2.3-.3 1-2 1 2 2.3.3-1.7 1.6.4 2.3-2-1Zm2-1.5 1.6.8-.3-1.7 1.2-1.2-1.7-.3-.7-1.5-.8 1.5-1.7.3 1.3 1.2-.3 1.7Z" fill="#939393"/><path data-name="Path 95" d="m194.6 129.4.4-2.3-1.7-1.6 2.3-.3 1-2 1 2 2.3.3-1.6 1.6.3 2.3-2-1Zm2-1.5 1.5.8-.3-1.7 1.2-1.2-1.6-.3-.8-1.5-.7 1.5-1.7.3 1.2 1.2-.3 1.7Z" fill="#939393"/><path data-name="Path 96" d="m207 129.4-2-1-2.1 1 .4-2.3-1.7-1.6 2.3-.3 1-2 1 2 2.3.3-1.6 1.6Zm-4.5-3.6 1.2 1.2-.3 1.7 1.5-.8 1.5.8-.3-1.7 1.3-1.2-1.7-.2-.8-1.6-.7 1.6Z" fill="#939393"/><path data-name="Path 97" d="m211.2 129.4.4-2.3-1.7-1.6 2.3-.3 1-2 1 2 2.4.3-1.7 1.6.4 2.3-2-1Zm2-1.5 1.6.8-.3-1.7 1.2-1.2-1.7-.3-.7-1.5-.8 1.5-1.7.3 1.2 1.2-.3 1.7Z" fill="#939393"/><path data-name="Path 98" d="m223.6 129.4-2-1-2 1 .3-2.3-1.6-1.6 2.3-.3 1-2 1 2 2.3.3-1.7 1.6Zm-4.5-3.6 1.3 1.2-.3 1.7 1.5-.8 1.5.8-.3-1.7 1.2-1.2-1.7-.2-.7-1.6-.8 1.6Z" fill="#939393"/><path data-name="Rectangle 80" fill="#c6c6c6" d="M125.2 110.1h40.6v4.4h-40.6z"/><path data-name="Rectangle 81" fill="#939393" d="M125.2 123.5H172v5.6h-46.8z"/><path data-name="Path 99" d="M198 115.4a3.3 3.3 0 0 1-1.7-.9l.4-.6a2.6 2.6 0 0 0 1.6.7 1 1 0 0 0 1.2-1c0-1.8-3-1.4-3-3.5a1.7 1.7 0 0 1 1.6-1.8v-1h.6v1a2.3 2.3 0 0 1 1.5.8l-.4.5a1.7 1.7 0 0 0-1.3-.6 1 1 0 0 0-1.1 1c0 1.6 3 1.2 3 3.5a1.8 1.8 0 0 1-1.7 1.8v1.1h-.6Zm3.5-3.3c0-2.7 1.3-3.8 2.6-3.8a2.2 2.2 0 0 1 1.7.7l-.5.6a1.5 1.5 0 0 0-1.2-.6c-1 0-1.7.8-1.7 3a2.2 2.2 0 0 1 1.5-1 1.8 1.8 0 0 1 2 2.2 2 2 0 0 1-2 2.2c-1.4 0-2.4-1.1-2.4-3.3Zm2.4 2.6c.6 0 1.2-.6 1.2-1.5s-.5-1.5-1.3-1.5a1.8 1.8 0 0 0-1.4 1c0 1.3.6 2 1.5 2Zm2.7-.3.4-.5a2.3 2.3 0 0 0 1.7.7 1.5 1.5 0 0 0 1.5-1.5 1.4 1.4 0 0 0-1.4-1.5 2 2 0 0 0-1.2.4l-.5-.3.3-3.3h3.4v.8H208l-.2 2a2 2 0 0 1 1-.3 2 2 0 0 1 2.2 2.2 2.2 2.2 0 0 1-2.3 2.3 3 3 0 0 1-2.2-1Zm5.7.3a.6.6 0 0 1 .6-.7.6.6 0 0 1 .7.7.6.6 0 0 1-.7.7.6.6 0 0 1-.6-.7Zm2.4-2.9c0-2.3.9-3.5 2.2-3.5s2.2 1.2 2.2 3.5-.8 3.6-2.2 3.6-2.2-1.3-2.2-3.6Zm3.6 0c0-2-.6-2.8-1.4-2.8s-1.3.8-1.3 2.8.5 2.9 1.3 2.9 1.4-.9 1.4-2.9Zm1.7 0c0-2.3.9-3.5 2.2-3.5s2.2 1.2 2.2 3.5-.8 3.6-2.2 3.6-2.2-1.3-2.2-3.6Zm3.6 0c0-2-.6-2.8-1.4-2.8s-1.3.8-1.3 2.8.5 2.9 1.3 2.9 1.4-.9 1.4-2.9Z" fill="#939393"/><path data-name="Path 100" d="m311.4 129.4.4-2.3-1.7-1.6 2.3-.3 1-2 1 2 2.3.3-1.6 1.6.3 2.3-2-1Zm2-1.5 1.5.8-.3-1.7 1.2-1.2-1.6-.3-.8-1.5-.7 1.5-1.7.3 1.2 1.2-.3 1.7Z" fill="#939393"/><path data-name="Path 101" d="m319.7 129.4.4-2.3-1.7-1.6 2.3-.3 1-2 1 2 2.3.3-1.6 1.6.4 2.3-2-1Zm2-1.5 1.5.8-.3-1.7 1.3-1.2-1.7-.3-.8-1.5-.7 1.5-1.7.3 1.2 1.2-.3 1.7Z" fill="#939393"/><path data-name="Path 102" d="m332 129.4-2-1-2 1 .4-2.3-1.6-1.6 2.2-.3 1-2 1 2 2.4.3-1.7 1.6Zm-4.4-3.6 1.2 1.2-.3 1.7 1.6-.8 1.5.8-.3-1.7 1.2-1.2-1.7-.2-.7-1.6-.8 1.6Z" fill="#939393"/><path data-name="Path 103" d="m336.3 129.4.4-2.3-1.6-1.6 2.3-.3 1-2 1 2 2.3.3-1.7 1.6.4 2.3-2-1Zm2-1.5 1.6.8-.3-1.7 1.2-1.2-1.7-.3-.7-1.5-.8 1.5-1.7.3 1.3 1.2-.3 1.7Z" fill="#939393"/><path data-name="Path 104" d="m348.7 129.4-2-1-2 1 .3-2.3-1.6-1.6 2.3-.3 1-2 1 2 2.3.3-1.7 1.6Zm-4.4-3.6 1.2 1.2-.3 1.7 1.5-.8 1.5.8-.3-1.7 1.2-1.2-1.7-.2-.7-1.6-.8 1.6Z" fill="#939393"/><path data-name="Rectangle 82" fill="#c6c6c6" d="M250.3 110.1H291v4.4h-40.6z"/><path data-name="Rectangle 83" fill="#939393" d="M250.3 123.5h46.8v5.6h-46.8z"/><path data-name="Path 105" d="M323.2 115.4a3.3 3.3 0 0 1-1.8-.9l.4-.6a2.6 2.6 0 0 0 1.6.7 1 1 0 0 0 1.2-1c0-1.8-3-1.4-3-3.5a1.7 1.7 0 0 1 1.6-1.8v-1h.6v1a2.3 2.3 0 0 1 1.6.8l-.5.5a1.7 1.7 0 0 0-1.3-.6 1 1 0 0 0-1 1c0 1.6 2.9 1.2 2.9 3.5a1.8 1.8 0 0 1-1.7 1.8v1.1h-.6Zm3.4-3.3c0-2.7 1.3-3.8 2.6-3.8a2.2 2.2 0 0 1 1.7.7l-.5.6a1.5 1.5 0 0 0-1.1-.6c-1 0-1.8.8-1.8 3a2.2 2.2 0 0 1 1.6-1 1.8 1.8 0 0 1 1.9 2.2 2 2 0 0 1-2 2.2c-1.3 0-2.4-1.1-2.4-3.3Zm2.4 2.6c.7 0 1.2-.6 1.2-1.5s-.4-1.5-1.3-1.5a1.8 1.8 0 0 0-1.4 1c.1 1.3.6 2 1.5 2Zm2.7-.3.4-.5a2.3 2.3 0 0 0 1.7.7 1.5 1.5 0 0 0 1.5-1.5 1.4 1.4 0 0 0-1.4-1.5 2 2 0 0 0-1.2.4l-.4-.3.2-3.3h3.4v.8h-2.7l-.1 2a2 2 0 0 1 1-.3 2 2 0 0 1 2.1 2.2 2.2 2.2 0 0 1-2.3 2.3 3 3 0 0 1-2.2-1Zm5.7.3a.6.6 0 0 1 .7-.7.6.6 0 0 1 .6.7.6.6 0 0 1-.6.7.6.6 0 0 1-.7-.7Zm2.5-2.9c0-2.3.8-3.5 2.1-3.5s2.2 1.2 2.2 3.5-.8 3.6-2.2 3.6-2.1-1.3-2.1-3.6Zm3.5 0c0-2-.6-2.8-1.4-2.8s-1.3.8-1.3 2.8.6 2.9 1.3 2.9 1.4-.9 1.4-2.9Zm1.8 0c0-2.3.8-3.5 2.1-3.5s2.2 1.2 2.2 3.5-.8 3.6-2.2 3.6-2.1-1.3-2.1-3.6Zm3.5 0c0-2-.6-2.8-1.4-2.8s-1.3.8-1.3 2.8.6 2.9 1.3 2.9 1.4-.9 1.4-2.9Z" fill="#939393"/><path data-name="Path 106" d="m61 297.7.4-2.3-1.6-1.6 2.3-.3 1-2.1 1 2 2.3.4-1.7 1.6.4 2.3-2-1.1Zm2-1.6 1.6.8-.3-1.6 1.2-1.2-1.7-.3-.7-1.5-.8 1.5-1.7.3 1.3 1.2-.3 1.6Z" fill="#939393"/><path data-name="Path 107" d="m69.4 297.7.4-2.3-1.7-1.6 2.3-.3 1-2.1 1 2 2.3.4-1.6 1.6.3 2.3-2-1.1Zm2-1.6 1.5.8-.3-1.6 1.2-1.2-1.6-.3-.8-1.5-.8 1.5-1.6.3 1.2 1.2-.3 1.6Z" fill="#939393"/><path data-name="Path 108" d="m81.8 297.7-2-1.1-2.1 1 .4-2.2-1.7-1.6 2.3-.3 1-2.1 1 2 2.3.4-1.6 1.6Zm-4.5-3.6 1.2 1.2-.3 1.6 1.5-.7 1.5.7-.3-1.6 1.3-1.2-1.7-.3-.8-1.5-.7 1.5Z" fill="#939393"/><path data-name="Path 109" d="m86 297.7.4-2.3-1.7-1.6 2.3-.3 1-2.1 1 2 2.3.4-1.6 1.6.4 2.3-2-1.1Zm2-1.6 1.6.8-.3-1.6 1.2-1.2-1.7-.3-.8-1.5-.7 1.5-1.7.3 1.2 1.2-.3 1.6Z" fill="#939393"/><path data-name="Path 110" d="m98.4 297.7-2-1.1-2 1 .3-2.2-1.6-1.6 2.2-.3 1-2.1 1 2 2.4.4-1.7 1.6ZM94 294l1.2 1.2-.2 1.6 1.5-.7 1.5.7-.3-1.6 1.2-1.2-1.7-.3-.7-1.5-.8 1.5Z" fill="#939393"/><path data-name="Rectangle 84" fill="#c6c6c6" d="M0 278.4h40.6v4.4H0z"/><path data-name="Rectangle 85" fill="#939393" d="M0 291.8h46.8v5.6H0z"/><path data-name="Path 111" d="M72.9 283.6a3.3 3.3 0 0 1-1.8-.8l.4-.6a2.6 2.6 0 0 0 1.6.7 1 1 0 0 0 1.2-1c0-1.8-3-1.4-3-3.5a1.7 1.7 0 0 1 1.6-1.8v-1h.6v1a2.3 2.3 0 0 1 1.5.8l-.4.5a1.7 1.7 0 0 0-1.3-.6 1 1 0 0 0-1.1 1c0 1.6 3 1.2 3 3.5a1.8 1.8 0 0 1-1.7 1.8v1.1H73Zm3.4-3.2c0-2.8 1.3-3.8 2.6-3.8a2.2 2.2 0 0 1 1.7.7l-.5.6a1.5 1.5 0 0 0-1.2-.6c-1 0-1.7.8-1.8 3a2.2 2.2 0 0 1 1.6-1 1.8 1.8 0 0 1 2 2.2 2 2 0 0 1-2 2.2c-1.4 0-2.4-1.1-2.4-3.3Zm2.4 2.6c.6 0 1.1-.6 1.1-1.5s-.4-1.5-1.2-1.5a1.8 1.8 0 0 0-1.4 1c0 1.3.6 2 1.5 2Zm2.7-.3.4-.6a2.3 2.3 0 0 0 1.7.8 1.5 1.5 0 0 0 1.5-1.5 1.4 1.4 0 0 0-1.4-1.5 2 2 0 0 0-1.2.4l-.5-.3.2-3.3h3.5v.8h-2.7l-.2 2a2 2 0 0 1 1-.3 2 2 0 0 1 2.2 2.1 2.2 2.2 0 0 1-2.3 2.3 3 3 0 0 1-2.2-.9Zm5.7.3a.6.6 0 0 1 .6-.7.6.6 0 0 1 .7.7.6.6 0 0 1-.7.7.6.6 0 0 1-.6-.7Zm2.4-2.9c0-2.3.9-3.5 2.2-3.5s2.2 1.2 2.2 3.5-.8 3.6-2.2 3.6-2.2-1.3-2.2-3.6Zm3.5 0c0-2-.5-2.8-1.3-2.8s-1.3.8-1.3 2.8.5 2.8 1.3 2.8 1.3-.8 1.3-2.8Zm1.8 0c0-2.3.9-3.5 2.2-3.5s2.2 1.2 2.2 3.5-.8 3.6-2.2 3.6-2.2-1.3-2.2-3.6Zm3.5 0c0-2-.5-2.8-1.3-2.8s-1.3.8-1.3 2.8.5 2.8 1.3 2.8 1.4-.8 1.4-2.8Z" fill="#939393"/><path data-name="Path 112" d="m186.2 297.7.4-2.3-1.6-1.6 2.3-.3 1-2.1 1 2 2.3.4-1.7 1.6.4 2.3-2-1.1Zm2-1.6 1.6.8-.3-1.6 1.2-1.2-1.7-.3-.7-1.5-.8 1.5-1.7.3 1.3 1.2-.3 1.6Z" fill="#939393"/><path data-name="Path 113" d="m194.6 297.7.4-2.3-1.7-1.6 2.3-.3 1-2.1 1 2 2.3.4-1.6 1.6.3 2.3-2-1.1Zm2-1.6 1.5.8-.3-1.6 1.2-1.2-1.6-.3-.8-1.5-.7 1.5-1.7.3 1.2 1.2-.3 1.6Z" fill="#939393"/><path data-name="Path 114" d="m207 297.7-2-1.1-2.1 1 .4-2.2-1.7-1.6 2.3-.3 1-2.1 1 2 2.3.4-1.6 1.6Zm-4.5-3.6 1.2 1.2-.3 1.6 1.5-.7 1.5.7-.3-1.6 1.3-1.2-1.7-.3-.8-1.5-.7 1.5Z" fill="#939393"/><path data-name="Path 115" d="m211.2 297.7.4-2.3-1.7-1.6 2.3-.3 1-2.1 1 2 2.4.4-1.7 1.6.4 2.3-2-1.1Zm2-1.6 1.6.8-.3-1.6 1.2-1.2-1.7-.3-.7-1.5-.8 1.5-1.7.3 1.2 1.2-.3 1.6Z" fill="#939393"/><path data-name="Path 116" d="m223.6 297.7-2-1.1-2 1 .3-2.2-1.6-1.6 2.3-.3 1-2.1 1 2 2.3.4-1.7 1.6Zm-4.5-3.6 1.3 1.2-.3 1.6 1.5-.7 1.5.7-.3-1.6 1.2-1.2-1.7-.3-.7-1.5-.8 1.5Z" fill="#939393"/><path data-name="Rectangle 86" fill="#c6c6c6" d="M125.2 278.4h40.6v4.4h-40.6z"/><path data-name="Rectangle 87" fill="#939393" d="M125.2 291.8H172v5.6h-46.8z"/><path data-name="Path 117" d="M198 283.6a3.3 3.3 0 0 1-1.7-.8l.4-.6a2.6 2.6 0 0 0 1.6.7 1 1 0 0 0 1.2-1c0-1.8-3-1.4-3-3.5a1.7 1.7 0 0 1 1.6-1.8v-1h.6v1a2.3 2.3 0 0 1 1.5.8l-.4.5a1.7 1.7 0 0 0-1.3-.6 1 1 0 0 0-1.1 1c0 1.6 3 1.2 3 3.5a1.8 1.8 0 0 1-1.7 1.8v1.1h-.6Zm3.5-3.2c0-2.8 1.3-3.8 2.6-3.8a2.2 2.2 0 0 1 1.7.7l-.5.6a1.5 1.5 0 0 0-1.2-.6c-1 0-1.7.8-1.7 3a2.2 2.2 0 0 1 1.5-1 1.8 1.8 0 0 1 2 2.2 2 2 0 0 1-2 2.2c-1.4 0-2.4-1.1-2.4-3.3Zm2.4 2.6c.6 0 1.2-.6 1.2-1.5s-.5-1.5-1.3-1.5a1.8 1.8 0 0 0-1.4 1c0 1.3.6 2 1.5 2Zm2.7-.3.4-.6a2.3 2.3 0 0 0 1.7.8 1.5 1.5 0 0 0 1.5-1.5 1.4 1.4 0 0 0-1.4-1.5 1.9 1.9 0 0 0-1.2.4l-.5-.3.3-3.3h3.4v.8H208l-.2 2a2 2 0 0 1 1-.3 2 2 0 0 1 2.2 2.1 2.2 2.2 0 0 1-2.3 2.3 3 3 0 0 1-2.2-.9Zm5.7.3a.6.6 0 0 1 .6-.7.6.6 0 0 1 .7.7.6.6 0 0 1-.7.7.6.6 0 0 1-.6-.7Zm2.4-2.9c0-2.3.9-3.5 2.2-3.5s2.2 1.2 2.2 3.5-.8 3.6-2.2 3.6-2.2-1.3-2.2-3.6Zm3.6 0c0-2-.6-2.8-1.4-2.8s-1.3.8-1.3 2.8.5 2.8 1.3 2.8 1.4-.8 1.4-2.8Zm1.7 0c0-2.3.9-3.5 2.2-3.5s2.2 1.2 2.2 3.5-.8 3.6-2.2 3.6-2.2-1.3-2.2-3.6Zm3.6 0c0-2-.6-2.8-1.4-2.8s-1.3.8-1.3 2.8.5 2.8 1.3 2.8 1.4-.8 1.4-2.8Z" fill="#939393"/><path data-name="Path 118" d="m311.4 297.7.4-2.3-1.7-1.6 2.3-.3 1-2.1 1 2 2.3.4-1.6 1.6.3 2.3-2-1.1Zm2-1.6 1.5.8-.3-1.6 1.2-1.2-1.6-.3-.8-1.5-.7 1.5-1.7.3 1.2 1.2-.3 1.6Z" fill="#939393"/><path data-name="Path 119" d="m319.7 297.7.4-2.3-1.7-1.6 2.3-.3 1-2.1 1 2 2.3.4-1.6 1.6.4 2.3-2-1.1Zm2-1.6 1.5.8-.3-1.6 1.3-1.2-1.7-.3-.8-1.5-.7 1.5-1.7.3 1.2 1.2-.3 1.6Z" fill="#939393"/><path data-name="Path 120" d="m332 297.7-2-1.1-2 1 .4-2.2-1.6-1.6 2.2-.3 1-2.1 1 2 2.4.4-1.7 1.6Zm-4.4-3.6 1.2 1.2-.3 1.6 1.6-.7 1.5.7-.3-1.6 1.2-1.2-1.7-.3-.7-1.5-.8 1.5Z" fill="#939393"/><path data-name="Path 121" d="m336.3 297.7.4-2.3-1.6-1.6 2.3-.3 1-2.1 1 2 2.3.4-1.7 1.6.4 2.3-2-1.1Zm2-1.6 1.6.8-.3-1.6 1.2-1.2-1.7-.3-.7-1.5-.8 1.5-1.7.3 1.3 1.2-.3 1.6Z" fill="#939393"/><path data-name="Path 122" d="m348.7 297.7-2-1.1-2 1 .3-2.2-1.6-1.6 2.3-.3 1-2.1 1 2 2.3.4-1.7 1.6Zm-4.4-3.6 1.2 1.2-.3 1.6 1.5-.7 1.5.7-.3-1.6 1.2-1.2-1.7-.3-.7-1.5-.8 1.5Z" fill="#939393"/><path data-name="Rectangle 88" fill="#c6c6c6" d="M250.3 278.4H291v4.4h-40.6z"/><path data-name="Rectangle 89" fill="#939393" d="M250.3 291.8h46.8v5.6h-46.8z"/><path data-name="Path 123" d="M323.2 283.6a3.3 3.3 0 0 1-1.8-.8l.4-.6a2.6 2.6 0 0 0 1.6.7 1 1 0 0 0 1.2-1c0-1.8-3-1.4-3-3.5a1.7 1.7 0 0 1 1.6-1.8v-1h.6v1a2.3 2.3 0 0 1 1.6.8l-.5.5a1.7 1.7 0 0 0-1.3-.6 1 1 0 0 0-1 1c0 1.6 2.9 1.2 2.9 3.5a1.8 1.8 0 0 1-1.7 1.8v1.1h-.6Zm3.4-3.2c0-2.8 1.3-3.8 2.6-3.8a2.2 2.2 0 0 1 1.7.7l-.5.6a1.5 1.5 0 0 0-1.1-.6c-1 0-1.8.8-1.8 3a2.2 2.2 0 0 1 1.6-1 1.8 1.8 0 0 1 1.9 2.2 2 2 0 0 1-2 2.2c-1.3 0-2.4-1.1-2.4-3.3Zm2.4 2.6c.7 0 1.2-.6 1.2-1.5s-.4-1.5-1.3-1.5a1.8 1.8 0 0 0-1.4 1c.1 1.3.6 2 1.5 2Zm2.7-.3.4-.6a2.3 2.3 0 0 0 1.7.8 1.5 1.5 0 0 0 1.5-1.5 1.4 1.4 0 0 0-1.4-1.5 1.9 1.9 0 0 0-1.2.4l-.4-.3.2-3.3h3.4v.8h-2.7l-.1 2a2 2 0 0 1 1-.3 2 2 0 0 1 2.1 2.1 2.2 2.2 0 0 1-2.3 2.3 3 3 0 0 1-2.2-.9Zm5.7.3a.6.6 0 0 1 .7-.7.6.6 0 0 1 .6.7.6.6 0 0 1-.6.7.6.6 0 0 1-.7-.7Zm2.5-2.9c0-2.3.8-3.5 2.1-3.5s2.2 1.2 2.2 3.5-.8 3.6-2.2 3.6-2.1-1.3-2.1-3.6Zm3.5 0c0-2-.6-2.8-1.4-2.8s-1.3.8-1.3 2.8.6 2.8 1.3 2.8 1.4-.8 1.4-2.8Zm1.8 0c0-2.3.8-3.5 2.1-3.5s2.2 1.2 2.2 3.5-.8 3.6-2.2 3.6-2.1-1.3-2.1-3.6Zm3.5 0c0-2-.6-2.8-1.4-2.8s-1.3.8-1.3 2.8.6 2.8 1.3 2.8 1.4-.8 1.4-2.8Z" fill="#939393"/><path data-name="Rectangle 90" fill="#bcbcbc" d="M.2 168.7h99.5v99.5H.2z"/><path data-name="Rectangle 91" fill="#bcbcbc" d="M125.3 168.7h99.5v99.5h-99.5z"/><path data-name="Rectangle 92" fill="#bcbcbc" d="M250.4 168.7H350v99.5h-99.5z"/><path data-name="Path 124" d="m87.3 186.6-5.5-5.6a3.5 3.5 0 0 1 0-4.9 3.5 3.5 0 0 1 4.9 0l.6.7.7-.7a3.4 3.4 0 0 1 2.4-1 3.4 3.4 0 0 1 2.5 1 3.5 3.5 0 0 1 0 5Zm-3-10.7a2.7 2.7 0 0 0-2 .8 2.7 2.7 0 0 0 0 3.7l5 5 5-5a2.7 2.7 0 0 0 0-3.7 2.6 2.6 0 0 0-1.9-.8 2.6 2.6 0 0 0-1.8.8l-1.3 1.2-1.2-1.2a2.7 2.7 0 0 0-1.9-.8" fill="#fff"/><path data-name="Path 125" d="m211.8 186.4-5.5-5.5a3.4 3.4 0 0 1 0-4.9 3.4 3.4 0 0 1 4.8 0l.7.7.7-.7a3.4 3.4 0 0 1 2.4-1 3.4 3.4 0 0 1 2.4 1 3.4 3.4 0 0 1 0 4.9Zm-3-10.6a2.6 2.6 0 0 0-2 .8 2.6 2.6 0 0 0 0 3.7l5 5 5-5a2.6 2.6 0 0 0 0-3.7 2.6 2.6 0 0 0-2-.8 2.6 2.6 0 0 0-1.8.8l-1.2 1.2-1.2-1.2a2.6 2.6 0 0 0-1.9-.8" fill="#fff"/><path data-name="Path 126" d="m337.1 186.6-5.6-5.6a3.5 3.5 0 0 1 0-4.9 3.5 3.5 0 0 1 5 0l.6.7.7-.7a3.4 3.4 0 0 1 2.4-1 3.4 3.4 0 0 1 2.5 1 3.5 3.5 0 0 1 0 5Zm-3.1-10.7a2.7 2.7 0 0 0-1.9.8 2.7 2.7 0 0 0 0 3.7l5 5 5-5a2.7 2.7 0 0 0 0-3.7 2.6 2.6 0 0 0-1.9-.8 2.6 2.6 0 0 0-1.9.8l-1.2 1.2-1.2-1.2a2.7 2.7 0 0 0-1.9-.8" fill="#fff"/><path data-name="Path 127" d="m51.4 201.2 7.3-8.7-2-.6a3.3 3.3 0 0 0-3.6 1.4l-2.1 3.1a1.3 1.3 0 0 1-2.1 0l-2-3a3.4 3.4 0 0 0-3.7-1.5l-1.8.5h-.1l7.6 8.9a1.6 1.6 0 0 0 2.5 0" fill="#d3d3d3"/><path data-name="Path 128" d="M64.3 235v-4a70.3 70.3 0 0 1-14.4 1.4 69.6 69.6 0 0 1-9.6-.6l-4.7-.8v4a68.3 68.3 0 0 0 28.7 0" fill="#d3d3d3"/><path data-name="Path 129" d="M49.9 238.4a69.6 69.6 0 0 1-9.6-.6 67 67 0 0 1-4.7-.9v4.2a2 2 0 0 0 1.6 2.3 47.7 47.7 0 0 0 25.7 0 1.7 1.7 0 0 0 1.4-2v-4.5a70.2 70.2 0 0 1-14.4 1.5" fill="#d3d3d3"/><path data-name="Path 130" d="M76 208.8 68 196.3c-.3-.5-.5-1-1-1.2l-6.5-2-8.2 9.7a3 3 0 0 1-4.5 0l-8.5-9.8-6.1 2a2.2 2.2 0 0 0-1.4 1c-2.7 4.3-5.3 8.7-8.1 13-.5.7-.2 1 .4 1.5 2 1.4 4 2.8 5.8 4.3a1.2 1.2 0 0 0 1.7 0c1.1-.9 2.4-1.7 3.9-2.6V229a68.4 68.4 0 0 0 28.7 0v-15a2.5 2.5 0 0 1 .3-1.8l3.5 2.4a1.2 1.2 0 0 0 1.8 0c1.9-1.4 3.8-2.9 5.8-4.2.8-.6.7-1 .2-1.8" fill="#d3d3d3"/><path data-name="Path 131" d="M201.6 204.5a54.2 54.2 0 0 0-3.9 7.4c-.8 1.6-1.6 2-3.3 1.4-3.6-1.2-3.6-1-3.6 2.8V240c0 2-.6 2.7-2.6 2.7h-26.4c-2 0-2.7-.8-2.6-2.7v-26c0-1.5-.2-1.7-1.7-1.3-4.6 1.3-3.7 2-6.1-2.6-1-1.8-1.7-3.5-2.7-5.2-.5-1.1-.3-2 .8-2.4 4.2-1.8 8.1-4.1 12.6-5.3 1-.3 1.7-.3 2.2.9l2.4 4.8c2 3.7 3.1 4 7 1.9v9.4c0 1 0 2 1.4 2 1.2 0 1.2-1 1.2-2v-9.1l.4-.1c3.5 1.9 4.6 1.6 6.4-1.9l2.7-5.1c.4-1 .9-1.2 1.9-1a78.8 78.8 0 0 1 14 6.2Z" fill="#d3d3d3"/><path data-name="Path 132" d="M183.6 196.2a1 1 0 0 1-.1.4l-1.7 3.1-.9 1.7-.4.8c-.2.4-.4 1-.8 1.2s-.8-.3-1-.5c-1.2-.9-2.4-2.4-3.7-2.5-1.3-.1-2.4 1.6-3.6 2.5-.9.7-1.3.6-1.8-.3l-3-5.7c-.4-.9.2-1.6.8-2.1l1-.8c.3-.3.6-.7 1.1-.8.7 0 1.2.5 1.6 1 1.2 1.5 2.3 4.1 4 4.1 1.3 0 2.5-2.6 3.8-4 .5-.5.8-1.7 1.7-1l1.8 1.3c.5.4 1.2.9 1.2 1.6" fill="#d3d3d3"/><path data-name="Path 133" d="M328 224.4c-.4-5-.6-9.8-.6-14.7a5.3 5.3 0 0 0-3-5c-3.4-2-7.3-2.7-11.3-3-1.4 0-2.4 0-3.3-1.6-1.4-2.3-6.9-2-8.3.3a2.5 2.5 0 0 1-2.4 1.3 36.9 36.9 0 0 0-13.8 3.9c-2.3 1.2-3.8 2.8-3.7 5.6 0 3-.4 6 0 9a2 2 0 0 1-1.2 2.5l-8 5c10.8.4 20.6 3.1 29 9.6 2.2 1.7 3.8 1.4 5.5-.2l7.5-6.8a5 5 0 0 1 3.5-1.5 33.4 33.4 0 0 0 7.6-1c1.7-.5 2.6-1.4 2.4-3.4m-43.3-2.6h-.1c12.6-4.7 23.8 4.7 23.8 4.7a91.7 91.7 0 0 0-23.7-4.7" fill="#d3d3d3"/><path data-name="Path 134" d="M272.4 230.8c4.3-.8 8.4-.5 12.6 2.3a21.3 21.3 0 0 1-12.6-2.3" fill="#d3d3d3"/></g></svg>