<svg xmlns="http://www.w3.org/2000/svg" width="350" height="284.2"><g data-name="Group 264"><g data-name="Group 260"><path data-name="Rectangle 139" fill="#dbdbdb" d="M0 0h350v284.2H0z"/><path data-name="Path 226" d="M112 121.7H49.3a1.6 1.6 0 0 1-1.6-1.5v-63a1.6 1.6 0 0 1 1.6-1.5H112a1.6 1.6 0 0 1 1.5 1.5v63a1.6 1.6 0 0 1-1.5 1.5" fill="#bcbcbc"/><path data-name="Path 227" d="M206.5 121.7h-63a1.6 1.6 0 0 1-1.5-1.5v-63a1.6 1.6 0 0 1 1.5-1.5h63a1.6 1.6 0 0 1 1.5 1.5v63a1.6 1.6 0 0 1-1.5 1.5" fill="#bcbcbc"/><path data-name="Path 228" d="M300.8 121.7H238a1.6 1.6 0 0 1-1.5-1.5v-63a1.6 1.6 0 0 1 1.5-1.5h63a1.6 1.6 0 0 1 1.5 1.5v63a1.6 1.6 0 0 1-1.6 1.5" fill="#bcbcbc"/><path data-name="Path 229" d="M48.8 28.2h2.6c2 0 3.5.6 3.5 2.6s-1.4 2.8-3.4 2.8H50v3.6h-1.2Zm4.9 2.6c0-1.3-.8-1.7-2.4-1.7H50v3.6h1.4c1.5 0 2.3-.6 2.3-1.9Zm2.9-.3h1v1.2a2.3 2.3 0 0 1 2-1.4 1.6 1.6 0 0 1 .7.2l-.2 1a1.9 1.9 0 0 0-.7-.1c-.5 0-1.2.4-1.7 1.5v4.3h-1.1Zm4.2 3.4a3.2 3.2 0 0 1 3-3.6A3.2 3.2 0 0 1 67 34a3.2 3.2 0 0 1-3.1 3.5 3.2 3.2 0 0 1-3.1-3.5Zm5 0c0-1.6-.8-2.6-2-2.6s-1.9 1-1.9 2.6.8 2.6 2 2.6 2-1 2-2.6Zm2.5 0c0-2.2 1.4-3.6 2.9-3.6a2.8 2.8 0 0 1 1.9.8v-3.7h1v9.8h-.9v-.8H73a3 3 0 0 1-2 1c-1.7 0-2.8-1.3-2.8-3.5Zm4.7 1.6V32a2.4 2.4 0 0 0-1.6-.7c-1 0-2 1-2 2.6s.7 2.6 2 2.6a2.3 2.3 0 0 0 1.6-1Zm3.4-.7v-4.3h1.1v4.1c0 1.3.4 1.8 1.3 1.8.7 0 1.1-.3 1.8-1.1v-4.8h1.1v6.7h-1v-1a2.9 2.9 0 0 1-2.3 1.2c-1.4 0-2-.9-2-2.6Zm7.1-1a3.3 3.3 0 0 1 3.2-3.5 2.8 2.8 0 0 1 2 .8l-.6.8a2 2 0 0 0-1.3-.6c-1.2 0-2.1 1-2.1 2.6s.8 2.6 2 2.6a2.4 2.4 0 0 0 1.6-.7l.5.8a3.3 3.3 0 0 1-2.1.8c-1.8 0-3.2-1.3-3.2-3.5Zm6.9 1.4v-3.8h-1v-.8h1l.2-2h1v2h1.7v.8h-1.8v3.8c0 .8.3 1.3 1 1.3a2.2 2.2 0 0 0 .8-.2l.3.9a4 4 0 0 1-1.3.2c-1.4 0-2-.9-2-2.2Zm3.6 1.3.5-.8a3 3 0 0 0 2 .8c1 0 1.4-.4 1.4-1 0-.7-.8-1-1.6-1.3-1-.3-2-.8-2-2 0-1 .9-1.9 2.3-1.9a3.4 3.4 0 0 1 2.1.8l-.5.7a2.5 2.5 0 0 0-1.6-.6c-.8 0-1.2.5-1.2 1 0 .6.7.9 1.5 1.2 1 .3 2 .7 2 2 0 1.1-.8 2-2.4 2a4 4 0 0 1-2.5-1Z" fill="#757575"/><path data-name="Path 230" d="M83.6 73.2a2.9 2.9 0 0 1-2.8 2.4 3.1 3.1 0 0 1-3.1-2.2c-.4-1-.6-1.2-1.7-.8l-5.6 1.7a1.3 1.3 0 0 0-.8.6l-5 8c-.3.5-.1.7.3 1l3.5 2.6a.7.7 0 0 0 1 0l2.4-1.6v17.7a1.2 1.2 0 0 0 1 1.4 29.3 29.3 0 0 0 15.8 0 1 1 0 0 0 .8-1.3V86a1.6 1.6 0 0 1 .2-1l2.2 1.4a.7.7 0 0 0 1 0 77 77 0 0 1 3.6-2.6c.5-.3.4-.6.1-1L91.8 75c-.2-.2-.3-.6-.7-.7l-6.3-2a1.7 1.7 0 0 0-.4 0c-.4 0-.7.2-.8.8" fill="#d3d3d3"/><path data-name="Path 231" d="m171 75-4.3 1.4a4.4 4.4 0 0 0-2.7 2.3 7.3 7.3 0 0 0-1 2.8c-.3 3.7-.8 7.5-1.4 11.2a22.7 22.7 0 0 0-.2 7.1c.3 1.9.4 1.9 2.2 1.9h.7c.1 0 .2 0 .3-.2l.6-2.5c.5-2.6.6-5.3 1.2-7.8l1-5a.7.7 0 0 1 .1 0v13.2a2.3 2.3 0 0 0 2 2.4 22.6 22.6 0 0 0 11.1 0 2.3 2.3 0 0 0 1.9-2.4V86.2h.1l1.2 5.8c.5 2.5.5 5.1 1.1 7.6.2.7.2 1.7.7 2a2.5 2.5 0 0 0 1.4.1h.8a2.2 2.2 0 0 0 .2 0 .2.2 0 0 0 .2-.2 7.6 7.6 0 0 1 .4-1.7 23.4 23.4 0 0 0-.1-6.7c-.5-3.7-1.2-7.3-1.5-11a8 8 0 0 0-1-3.5 4.3 4.3 0 0 0-2.7-2.2l-4.2-1.3a3 3 0 0 0-1-.2c-.2 0-.4 0-.5.4a6.8 6.8 0 0 1-2.3 3c-.1 0-.3.3-.5 0a7 7 0 0 1-2.2-2.6c-.2-.6-.5-.8-.9-.8a2.6 2.6 0 0 0-.7.1" fill="#d3d3d3"/><path data-name="Path 232" d="M271.3 84.4a.2.2 0 0 0-.3-.2.3.3 0 0 0-.2.2 2.4 2.4 0 0 0-.1.7v3.4a2.5 2.5 0 0 0 0 .8.3.3 0 0 0 .3.1.3.3 0 0 0 .3-.1 2.2 2.2 0 0 0 0-.7V85a2.7 2.7 0 0 0 0-.7m0 0a.2.2 0 0 0-.3-.2.3.3 0 0 0-.2.2 2.4 2.4 0 0 0-.1.7v3.4a2.5 2.5 0 0 0 0 .8.3.3 0 0 0 .3.1.3.3 0 0 0 .3-.1 2.2 2.2 0 0 0 0-.7V85a2.7 2.7 0 0 0 0-.7m-2 15.9a43.9 43.9 0 0 1-6-.4l-2.8-.5v3.2a1.2 1.2 0 0 0 1 1.4 29.2 29.2 0 0 0 15.7 0 1 1 0 0 0 1-1.3v-3.2a48 48 0 0 1-8.9.8m8.8-2.3V86a1.5 1.5 0 0 1 .2-1s-5.2-3.3-1.9-11.6l-2.9-1a1.7 1.7 0 0 0-.4 0c-.4 0-.7.2-.8.8a2.9 2.9 0 0 1-2.8 2.4 3.1 3.1 0 0 1-3.2-2.2c-.3-1-.5-1.1-1.6-.8l-2.8.9a9.7 9.7 0 0 1-1.4 11.4v13a44.1 44.1 0 0 0 17.6.1M269 85.7a4.8 4.8 0 0 1 .2-1.5 1.5 1.5 0 0 1 .7-.8 2.4 2.4 0 0 1 1.2-.3 2.5 2.5 0 0 1 1 .2 1.8 1.8 0 0 1 .7.5 1.6 1.6 0 0 1 .3.7 6 6 0 0 1 .1 1.2V88a5.6 5.6 0 0 1 0 1.2 1.6 1.6 0 0 1-.4.7 1.6 1.6 0 0 1-.7.5 2.6 2.6 0 0 1-.9 0 3.2 3.2 0 0 1-1 0 1.5 1.5 0 0 1-.7-.5 2 2 0 0 1-.4-.7 4 4 0 0 1 0-1Zm-3.7-1.3a3.2 3.2 0 0 0 2-1.1h1v7h-1.7v-3.7a6.7 6.7 0 0 0 0-1 .4.4 0 0 0-.3-.3 2.2 2.2 0 0 0-.8 0h-.2Zm5.8 5a.3.3 0 0 0 .3-.1 2.2 2.2 0 0 0 0-.7V85a2.7 2.7 0 0 0 0-.7.2.2 0 0 0-.3-.2.3.3 0 0 0-.2.2 2.4 2.4 0 0 0 0 .7v3.4a2.5 2.5 0 0 0 0 .8.3.3 0 0 0 .2.1" fill="#d3d3d3"/><path data-name="Rectangle 140" fill="#bcbcbc" d="M62.8 129h35.6v4.4H62.8z"/><path data-name="Rectangle 141" fill="#bcbcbc" d="M72 139h17.2v4.3H72z"/><path data-name="Rectangle 142" fill="#bcbcbc" d="M157.2 129h35.6v4.4h-35.6z"/><path data-name="Rectangle 143" fill="#bcbcbc" d="M166.4 139h17.2v4.3h-17.2z"/><path data-name="Rectangle 144" fill="#bcbcbc" d="M251.6 129h35.6v4.4h-35.6z"/><path data-name="Rectangle 145" fill="#bcbcbc" d="M260.8 139H278v4.3h-17.2z"/><path data-name="Path 233" d="M112 235.9H49.3a1.6 1.6 0 0 1-1.6-1.6v-63a1.6 1.6 0 0 1 1.6-1.5H112a1.6 1.6 0 0 1 1.5 1.6v63a1.6 1.6 0 0 1-1.5 1.5" fill="#bcbcbc"/><path data-name="Path 234" d="M206.5 235.9h-63a1.6 1.6 0 0 1-1.5-1.6v-63a1.6 1.6 0 0 1 1.5-1.5h63a1.6 1.6 0 0 1 1.5 1.6v63a1.6 1.6 0 0 1-1.5 1.5" fill="#bcbcbc"/><path data-name="Path 235" d="M300.8 235.9H238a1.6 1.6 0 0 1-1.5-1.6v-63a1.6 1.6 0 0 1 1.5-1.5h63a1.6 1.6 0 0 1 1.5 1.6v63a1.6 1.6 0 0 1-1.6 1.5" fill="#bcbcbc"/><path data-name="Rectangle 146" fill="#bcbcbc" d="M62.8 243.2h35.6v4.4H62.8z"/><path data-name="Rectangle 147" fill="#bcbcbc" d="M72 253h17.2v4.5H72z"/><path data-name="Rectangle 148" fill="#bcbcbc" d="M157.2 243.2h35.6v4.4h-35.6z"/><path data-name="Rectangle 149" fill="#bcbcbc" d="M166.4 253h17.2v4.5h-17.2z"/><path data-name="Rectangle 150" fill="#bcbcbc" d="M251.6 243.2h35.6v4.4h-35.6z"/><path data-name="Rectangle 151" fill="#bcbcbc" d="M260.8 253H278v4.5h-17.2z"/><path data-name="Rectangle 152" fill="#bcbcbc" d="M47.6 41.5h254.8v1.1H47.6z"/><path data-name="Path 236" d="m81.5 192.5 4.4-5.3-1.1-.4a2 2 0 0 0-2.3.8l-1.2 2a.8.8 0 0 1-1.3 0l-1.3-2a2 2 0 0 0-2.1-.8l-1.1.3 4.5 5.4a1 1 0 0 0 1.5 0" fill="#d3d3d3"/><path data-name="Path 237" d="M89.3 213v-2.6a42.5 42.5 0 0 1-8.7 1 42 42 0 0 1-5.8-.5l-2.8-.5v2.5a41.3 41.3 0 0 0 17.3 0" fill="#d3d3d3"/><path data-name="Path 238" d="M80.6 215a42.2 42.2 0 0 1-5.8-.5l-2.9-.5v2.6a1.2 1.2 0 0 0 1 1.3 28.9 28.9 0 0 0 15.6 0 1 1 0 0 0 .8-1.2V214a42.4 42.4 0 0 1-8.7 1" fill="#d3d3d3"/><path data-name="Path 239" d="m96.3 197-4.7-7.6c-.1-.2-.3-.5-.6-.6l-4-1.3-4.9 6a1.8 1.8 0 0 1-2.7 0l-5.1-6-3.7 1.2a1.3 1.3 0 0 0-.8.6l-5 7.8c-.3.5 0 .7.3 1l3.5 2.5a.7.7 0 0 0 1 0l2.4-1.5v10.2a41.3 41.3 0 0 0 17.3 0v-9.1a1.5 1.5 0 0 1 .2-1l2.1 1.4a.7.7 0 0 0 1.1 0l3.5-2.6c.5-.3.4-.6.1-1" fill="#d3d3d3"/><path data-name="Path 240" d="M190.9 194.9a32 32 0 0 0-2.4 4.4 1.4 1.4 0 0 1-2 .8c-2-.7-2.1-.6-2.1 1.7V216c0 1.2-.4 1.6-1.6 1.6h-15.7c-1.2 0-1.6-.4-1.6-1.6v-15.5c0-.8 0-1-1-.8-2.7.8-2.2 1.3-3.6-1.5l-1.6-3.1c-.3-.7-.2-1.1.5-1.4 2.5-1 4.8-2.5 7.5-3.2.6-.2 1-.2 1.3.5l1.5 3c1.1 2.1 1.8 2.3 4 1v5.6c0 .6 0 1.3 1 1.3.7 0 .7-.7.7-1.2v-5.5h.2c2 1.1 2.7 1 3.8-1.1l1.6-3.1c.3-.6.5-.7 1.1-.6a47 47 0 0 1 8.4 3.7Z" fill="#d3d3d3"/><path data-name="Path 241" d="M180.1 190a.6.6 0 0 1 0 .2l-1 1.8-.6 1c0 .2-.2.4-.3.5 0 .2-.2.6-.4.7s-.5-.1-.6-.3c-.8-.5-1.5-1.4-2.2-1.5-.8 0-1.5 1-2.2 1.5-.5.4-.8.4-1-.2l-1.8-3.4c-.3-.5 0-.9.4-1.2l.6-.5c.2-.2.4-.4.7-.4.4-.1.7.2 1 .5.7 1 1.3 2.5 2.3 2.5.8 0 1.5-1.6 2.3-2.4.3-.3.5-1 1-.6l1 .7c.4.3.8.6.8 1" fill="#d3d3d3"/><path data-name="Path 242" d="M285.4 206.3c-.2-2.8-.3-5.7-.3-8.5a3 3 0 0 0-1.7-2.9 14.3 14.3 0 0 0-6.6-1.7c-.8 0-1.4 0-1.9-1-.8-1.3-4-1.1-4.7.2a1.4 1.4 0 0 1-1.4.8 21.3 21.3 0 0 0-8 2.2 3.4 3.4 0 0 0-2.1 3.3 35.6 35.6 0 0 0 0 5.2 1.2 1.2 0 0 1-.7 1.4l-4.6 3a28 28 0 0 1 16.7 5.4 2.1 2.1 0 0 0 3.2 0l4.3-4a2.9 2.9 0 0 1 2-.9 19.3 19.3 0 0 0 4.3-.6 1.6 1.6 0 0 0 1.5-2m-25-1.4c7.2-2.7 13.7 2.7 13.7 2.7-5.5-2.2-13-2.7-13.7-2.7" fill="#d3d3d3"/><path data-name="Path 243" d="M253.4 210a9.4 9.4 0 0 1 7.3 1.3 12.3 12.3 0 0 1-7.3-1.3" fill="#d3d3d3"/></g></g></svg>