<svg id="Layer_1" data-name="Layer 1" xmlns="http://www.w3.org/2000/svg" width="6.479" height="12.033" viewBox="0 0 6.479 12.033">
  <path id="Path_42" data-name="Path 42" d="M573.816,479.44a14.641,14.641,0,0,1,1.987-.023.307.307,0,0,1,.2.328c-.006.555,0,1.11,0,1.665,0,.252-.077.328-.326.331-.394.006-.788-.017-1.182.016a.764.764,0,0,0-.4.126.634.634,0,0,0-.234.549c-.008.406,0,.813,0,1.219,0,.026-.011.055.018.083.576,0,1.157,0,1.738,0,.224,0,.311.087.311.312q0,.92,0,1.841c0,.227-.084.31-.311.31h-1.627a.207.207,0,0,0-.13.016V491.1c0,.236-.09.326-.325.326H571.67c-.268,0-.343-.074-.343-.339q0-2.375,0-4.749a.219.219,0,0,0-.017-.141h-.127c-.46,0-.921,0-1.381,0a.241.241,0,0,1-.276-.211l0-2.022c.033-.165.113-.23.3-.23H571.2a.2.2,0,0,0,.129-.017c0-.427,0-.856,0-1.285a3.563,3.563,0,0,1,.181-1.208,2.665,2.665,0,0,1,1.631-1.62A3.323,3.323,0,0,1,573.816,479.44Z" transform="translate(-569.522 -479.393)" fill="#020202"/>
</svg>
