<svg xmlns="http://www.w3.org/2000/svg" xmlns:xlink="http://www.w3.org/1999/xlink" width="24" height="12" viewBox="0 0 24 12"><defs><clipPath id="a"><rect width="24" height="12" transform="translate(-14202 4338)" fill="none"/></clipPath></defs><g transform="translate(14202 -4338)" clip-path="url(#a)"><g transform="translate(-14648.84 3993.984)"><path d="M468.67,356.667h-7.66a1.2,1.2,0,0,1-1.17-1.227v-7.19h10v7.19A1.2,1.2,0,0,1,468.67,356.667Z" transform="translate(0 -1.257)" fill="none" stroke="#fff" stroke-miterlimit="10" stroke-width="0.764"/><path d="M463.433,346.993a1.977,1.977,0,1,1,3.954,0" transform="translate(-0.57)" fill="none" stroke="#fff" stroke-miterlimit="10" stroke-width="0.764"/></g><g transform="translate(-14660.84 3993.984)"><path d="M468.67,356.667h-7.66a1.2,1.2,0,0,1-1.17-1.227v-7.19h10v7.19A1.2,1.2,0,0,1,468.67,356.667Z" transform="translate(0 -1.257)" fill="none" stroke="#020202" stroke-miterlimit="10" stroke-width="0.764"/><path d="M463.433,346.993a1.977,1.977,0,1,1,3.954,0" transform="translate(-0.57)" fill="none" stroke="#020202" stroke-miterlimit="10" stroke-width="0.764"/></g></g></svg>