<svg xmlns="http://www.w3.org/2000/svg" xmlns:xlink="http://www.w3.org/1999/xlink" width="28" height="12" viewBox="0 0 28 12"><defs><clipPath id="a"><rect width="28" height="12" transform="translate(2885 -817)" fill="none"/></clipPath></defs><g transform="translate(-2885 817)" clip-path="url(#a)"><g transform="translate(2887 -815)"><path d="M496.94,353.193v.78a.976.976,0,0,1-.976.976h-6.394a.976.976,0,0,1-.976-.976V348.25h8.347v1.608" transform="translate(-488.593 -346.273)" fill="none" stroke="#000" stroke-linejoin="round" stroke-width="0.764"/><path d="M492.186,346.993a1.977,1.977,0,1,1,3.954,0" transform="translate(-489.989 -345.016)" fill="none" stroke="#000" stroke-linejoin="round" stroke-width="0.764"/><path d="M495.419,353.267H501.9l-1.7-.726" transform="translate(-491.246 -347.941)" fill="none" stroke="#000" stroke-linecap="round" stroke-linejoin="round" stroke-width="0.764"/><line x1="1.704" y2="0.737" transform="translate(8.95 5.327)" fill="none" stroke="#000" stroke-linecap="round" stroke-linejoin="round" stroke-width="0.764"/><g transform="translate(13)"><path d="M496.94,353.193v.78a.976.976,0,0,1-.976.976h-6.394a.976.976,0,0,1-.976-.976V348.25h8.347v1.608" transform="translate(-488.593 -346.273)" fill="none" stroke="#fff" stroke-linejoin="round" stroke-width="0.764"/><path d="M492.186,346.993a1.977,1.977,0,1,1,3.954,0" transform="translate(-489.989 -345.016)" fill="none" stroke="#fff" stroke-linejoin="round" stroke-width="0.764"/><path d="M495.419,353.267H501.9l-1.7-.726" transform="translate(-491.246 -347.941)" fill="none" stroke="#fff" stroke-linecap="round" stroke-linejoin="round" stroke-width="0.764"/><line x1="1.704" y2="0.737" transform="translate(8.95 5.327)" fill="none" stroke="#fff" stroke-linecap="round" stroke-linejoin="round" stroke-width="0.764"/></g></g></g></svg>