<svg xmlns="http://www.w3.org/2000/svg" width="17.568" height="14.567" viewBox="0 0 17.568 14.567">
  <g id="Group_860" data-name="Group 860" transform="translate(0.382 0.382)">
    <path id="Path_3551" data-name="Path 3551" d="M423.353,398.541a3.132,3.132,0,0,1,3.133-3.133v-2.087a1.682,1.682,0,0,0-1.682-1.682h-13.44a1.682,1.682,0,0,0-1.682,1.682v2.087a3.133,3.133,0,0,1,0,6.266v2.087a1.682,1.682,0,0,0,1.682,1.681H424.8a1.682,1.682,0,0,0,1.682-1.681v-2.087A3.133,3.133,0,0,1,423.353,398.541Z" transform="translate(-409.682 -391.639)" fill="none" stroke="#020202" stroke-linejoin="round" stroke-width="0.764"/>
    <circle id="Ellipse_190" data-name="Ellipse 190" cx="1.369" cy="1.369" r="1.369" transform="translate(4.966 3.466)" fill="none" stroke="#020202" stroke-linejoin="round" stroke-width="0.764"/>
    <circle id="Ellipse_191" data-name="Ellipse 191" cx="1.369" cy="1.369" r="1.369" transform="translate(9.101 7.601)" fill="none" stroke="#020202" stroke-linejoin="round" stroke-width="0.764"/>
    <line id="Line_1194" data-name="Line 1194" x1="6.872" y2="6.872" transform="translate(4.966 3.466)" fill="none" stroke="#020202" stroke-linejoin="round" stroke-width="0.764"/>
  </g>
</svg>
