<svg xmlns="http://www.w3.org/2000/svg" width="17.049" height="10.45" viewBox="0 0 17.049 10.45"><g transform="translate(-428.894 -347.884)"><path d="M435.441,351.835c0-.314,0-.65,0-.985,0-.237-.029-.476-.013-.711a1.561,1.561,0,0,1,.7-1.131,4.629,4.629,0,0,1,1.742-.786,11.328,11.328,0,0,1,5.637.036,4.475,4.475,0,0,1,1.86.894,1.409,1.409,0,0,1,.572,1.24c-.019.2-.023.393-.024.589-.008,1.322-.016,3.643-.021,4.964a1.4,1.4,0,0,1-.341.923,3.1,3.1,0,0,1-1.235.842,9.151,9.151,0,0,1-3.6.623q-5.841-.02-11.682-.059c-.05,0-.105.018-.137-.011.009-1.819.018-4.626.027-6.42Zm-4.331,5.718c-.007-.252-.016-1.516-.024-1.782l.735.016c-.011.245-.024,1.508-.035,1.759l1.278-.005c0-.531-.006-2.1-.009-2.666l.707.01c0,.547-.008,2.113-.011,2.658l1.229.006c0-.23-.009-1.5-.013-1.761l.752.005c-.009.263-.017,1.527-.025,1.779l1.26.005c0-.551,0-2.122.005-2.693l.692.007c0,.56-.008,2.126-.011,2.67l1.223.006c-.006-.225-.013-1.49-.02-1.753l.724.007c0,.252-.008,1.515-.012,1.763l1.224.007c0-.546,0-2.117.007-2.692l.707.018c-.005.545-.009,2.11-.014,2.683a9.588,9.588,0,0,0,1.278-.171c-.012-.2-.024-1.4-.035-1.589l.755,0c-.013.125-.028,1.262-.047,1.437a3.389,3.389,0,0,0,1.637-.911.533.533,0,0,0,.135-.332c.008-1.17.012-3.34.016-4.516a9.02,9.02,0,0,1-5.032,1.073q-5.261-.033-10.521-.058c-.011,0-.023,0-.014,0-.007,1.338-.014,3.675-.021,5.019Zm12.532-8.525a10.062,10.062,0,0,0-6.132.046,2.78,2.78,0,0,0-1.124.63.643.643,0,0,0-.017,1,2.543,2.543,0,0,0,.867.564,8.478,8.478,0,0,0,3.06.62,9.887,9.887,0,0,0,3.264-.36,3.66,3.66,0,0,0,1.346-.693c.413-.354.426-.736-.025-1.173A3.123,3.123,0,0,0,443.642,349.028Zm-7.172,2.636c-.1-.068-.2-.129-.312-.2a1.66,1.66,0,0,0-.014.386l.6-.01C436.694,351.75,436.566,351.73,436.47,351.664Z" fill="#040404"/><path d="M438.614,349.738a1.345,1.345,0,0,1,.654-.4,4.816,4.816,0,0,1,1.749-.2,3.241,3.241,0,0,1,1.494.394.778.778,0,0,1,.067,1.395,1.989,1.989,0,0,1-.69.314,4.718,4.718,0,0,1-2.568-.064,1.59,1.59,0,0,1-.608-.317A.755.755,0,0,1,438.614,349.738Zm3.352.3a3.631,3.631,0,0,0-2.559-.006.537.537,0,0,0-.269.178c.389.576,2.585.626,3.141.058A.6.6,0,0,0,441.966,350.037Z" fill="#040404"/></g></svg>