<svg xmlns="http://www.w3.org/2000/svg" width="11.39" height="11.028" viewBox="0 0 11.39 11.028"><g transform="translate(0.382 0.461)"><path d="M502.111,395.7v4.433a1.178,1.178,0,0,1-1.178,1.177H493.62a1.178,1.178,0,0,1-1.178-1.177v-7.312a1.178,1.178,0,0,1,1.178-1.178h5.056" transform="translate(-492.442 -391.121)" fill="none" stroke="#020202" stroke-linejoin="round" stroke-width="0.764"/><g transform="translate(3.611)"><path d="M499.352,397.378l-1.755.459.459-1.755,4.914-4.914a.916.916,0,0,1,1.3,0h0a.917.917,0,0,1,0,1.3Z" transform="translate(-497.597 -390.9)" fill="none" stroke="#020202" stroke-linejoin="round" stroke-width="0.764"/><line x2="1.295" y2="1.295" transform="translate(0.576 5.066)" fill="none" stroke="#020202" stroke-linejoin="round" stroke-width="0.764"/></g></g></svg>