<svg xmlns="http://www.w3.org/2000/svg" width="8.271" height="14.704" viewBox="0 0 8.271 14.704"><path d="M595.186,425.461a16.868,16.868,0,0,1,2.3-.027.355.355,0,0,1,.229.38c-.006.642,0,1.286,0,1.93,0,.293-.09.38-.378.384-.457.006-.914-.02-1.37.018a.891.891,0,0,0-.458.146.733.733,0,0,0-.271.636c-.009.47-.005.942-.005,1.413,0,.029-.013.063.021.1h2.014c.26,0,.361.1.361.361q0,1.068,0,2.134c0,.263-.1.359-.359.36-.629,0-1.258,0-1.886,0a.238.238,0,0,0-.15.018v5.663c0,.274-.1.377-.376.377H592.7c-.311,0-.4-.085-.4-.393q0-2.751,0-5.5a.245.245,0,0,0-.02-.162h-.147c-.533,0-1.067,0-1.6,0a.278.278,0,0,1-.32-.245l0-2.343c.038-.191.131-.266.343-.267.533,0,1.067,0,1.6,0a.228.228,0,0,0,.149-.019c0-.5,0-.992,0-1.489a4.112,4.112,0,0,1,.21-1.4,3.088,3.088,0,0,1,1.891-1.878A3.835,3.835,0,0,1,595.186,425.461Z" transform="translate(-589.829 -425.028)" fill="none" stroke="#020202" stroke-linejoin="round" stroke-width="0.764"/></svg>