<svg xmlns="http://www.w3.org/2000/svg" width="15.385" height="15.384" viewBox="0 0 15.385 15.384"><path d="M497.3,424.737h-6.546a4.037,4.037,0,0,0-4.038,4.037v6.546a4.037,4.037,0,0,0,4.038,4.037h3.379v-5.538h-1.832v-2.105h1.832v-1.747a2.583,2.583,0,0,1,2.733-2.578l1.578.091v1.881h-1.32a.835.835,0,0,0-.836.835v1.518h2.06l-.258,2.105h-1.8v5.538H497.3a4.036,4.036,0,0,0,4.037-4.037v-6.546A4.036,4.036,0,0,0,497.3,424.737Z" transform="translate(-486.339 -424.355)" fill="none" stroke="#fff" stroke-linejoin="round" stroke-width="0.764"/></svg>