<svg xmlns="http://www.w3.org/2000/svg" width="13.718" height="13.976" viewBox="0 0 13.718 13.976"><path d="M574.879,425.454a6.439,6.439,0,0,1,4.7,1.643c.027.025.071.04.069.092l-1.777,1.709c-.023-.019-.04-.03-.054-.044a3.9,3.9,0,0,0-4.49-.49,4.074,4.074,0,0,0-2.156,4.109,3.93,3.93,0,0,0,1.224,2.574,4,4,0,0,0,3.47,1.13,3.558,3.558,0,0,0,2.723-1.736,2.891,2.891,0,0,0,.393-1.073h-3.734v-2.259c.413-.013,6.065-.007,6.21.007a.3.3,0,0,1,.038.141,7.264,7.264,0,0,1-.055,2.408,5.932,5.932,0,0,1-5.319,4.941,6.607,6.607,0,0,1-2.229-13.016A6.222,6.222,0,0,1,574.879,425.454Z" transform="translate(-568.236 -425.058)" fill="#fff" stroke="#020202" stroke-linejoin="round" stroke-width="0.764"/></svg>