<svg xmlns="http://www.w3.org/2000/svg" width="16.114" height="16.056" viewBox="0 0 16.114 16.056"><path d="M460.58,487.906v-.228c0-.752,0-1.5,0-2.257a.341.341,0,0,0-.147-.3,6.765,6.765,0,0,1-2.587-4.159,6.561,6.561,0,0,1,1.921-6.077,7.534,7.534,0,0,1,5.042-2.251,7.666,7.666,0,0,1,6.524,2.6,6.719,6.719,0,0,1-1.148,10.007,8,8,0,0,1-6.8,1.318.482.482,0,0,0-.373.049c-.738.411-1.48.816-2.22,1.22A.389.389,0,0,1,460.58,487.906Zm-.095-5.84a.406.406,0,0,0,.258-.092q1.646-.9,3.289-1.8a.2.2,0,0,1,.3.045c.568.616,1.144,1.226,1.718,1.836.034.035.056.093.128.089l4.019-4.269-.04-.052-3.573,1.976-2-2.081Z" transform="translate(-457.34 -472.232)" fill="none" stroke="#020202" stroke-linejoin="round" stroke-width="0.764"/></svg>