<?xml version="1.0" encoding="utf-8"?>
<!-- Generator: Adobe Illustrator 25.3.0, SVG Export Plug-In . SVG Version: 6.00 Build 0)  -->
<svg version="1.1" id="Layer_1" xmlns="http://www.w3.org/2000/svg" xmlns:xlink="http://www.w3.org/1999/xlink" x="0px" y="0px"
	 viewBox="0 0 128 128" style="enable-background:new 0 0 128 128;" xml:space="preserve">
<style type="text/css">
	.st0{fill-rule:evenodd;clip-rule:evenodd;fill:url(#SVGID_1_);}
	.st1{fill-rule:evenodd;clip-rule:evenodd;fill:url(#SVGID_2_);}
	.st2{fill-rule:evenodd;clip-rule:evenodd;fill:#FFFFFF;}
	.st3{fill:none;}
	.st4{fill-rule:evenodd;clip-rule:evenodd;fill:#297BFF;}
	.st5{fill-rule:evenodd;clip-rule:evenodd;fill:#BC66FF;}
	.st6{fill-rule:evenodd;clip-rule:evenodd;fill:#FF6E6E;}
	.st7{fill:#5CCC74;}
	.st8{fill:#FFFFFF;}
</style>
<g>
	<g>
		<linearGradient id="SVGID_1_" gradientUnits="userSpaceOnUse" x1="2.4276" y1="1.33" x2="125.9111" y2="127.0305">
			<stop  offset="0" style="stop-color:#526BFF"/>
			<stop  offset="0.524" style="stop-color:#CC7DFF"/>
			<stop  offset="1" style="stop-color:#FF817B"/>
		</linearGradient>
		<rect x="-0.2" y="-0.2" class="st0" width="128" height="128"/>
	</g>
	<linearGradient id="SVGID_2_" gradientUnits="userSpaceOnUse" x1="125.2876" y1="129.8708" x2="59.4445" y2="57.3769">
		<stop  offset="0" style="stop-color:#000000;stop-opacity:0"/>
		<stop  offset="0.9224" style="stop-color:#000000;stop-opacity:0.1845"/>
		<stop  offset="1" style="stop-color:#000000;stop-opacity:0.2"/>
	</linearGradient>
	<polygon class="st1" points="127.8,64.2 127.8,127.8 64.2,127.8 32,95.6 95.6,32 	"/>
	<g>
		<path class="st2" d="M108.8,63.8c0,2.3-0.2,4.6-0.5,6.9c-0.1,0.5-0.2,1.1-0.3,1.6c-1.7,9-6.1,17.1-12.4,23.3
			c-6.1,6.1-13.8,10.4-22.6,12.2c-0.3,0-0.5,0.1-0.8,0.2c-2.7,0.5-5.6,0.8-8.5,0.8c-12.4,0-23.7-5-31.8-13.2
			c-8.1-8.1-13.2-19.4-13.2-31.8S23.8,40.1,32,32c8.1-8.1,19.4-13.2,31.8-13.2C88.7,18.8,108.8,39,108.8,63.8z"/>
	</g>
	<line class="st3" x1="95.6" y1="32" x2="32" y2="95.6"/>
	<g>
		<path class="st4" d="M90.4,60.8L90.4,60.8c3.8,0,6.9-3.1,6.9-6.9v0c0-3.8-3.1-6.9-6.9-6.9h0c-3.8,0-6.9,3.1-6.9,6.9v0
			C83.6,57.7,86.6,60.8,90.4,60.8z"/>
		<path class="st5" d="M63.8,68L63.8,68c7.8,0,14.1-6.3,14.1-14.1v0c0-7.8-6.3-14.1-14.1-14.1h0c-7.8,0-14.1,6.3-14.1,14.1v0
			C49.8,61.7,56,68,63.8,68z"/>
		<path class="st6" d="M37.2,60.8L37.2,60.8c3.8,0,6.9-3.1,6.9-6.9v0c0-3.8-3.1-6.9-6.9-6.9h0c-3.8,0-6.9,3.1-6.9,6.9v0
			C30.3,57.7,33.4,60.8,37.2,60.8z"/>
		<g>
			<g>
				<path class="st7" d="M79.4,74.2c0-0.7-0.2-1.5-0.5-2.1c-0.4-0.7-0.7-1-1.4-1.3c-1.4-0.6-2.6,0-2.6,0s-1.7-2.5-4.7-1.2
					c-0.7-2-1.3-2.4-3.3-2.4c-0.7,0-1-0.2-0.9-1c0-3,0-6,0-9c0-1.5-0.8-2.7-2-3.1c-2.1-0.8-4.2,0.7-4.2,3.2c0,5.5,0,11.1,0,16.6
					c0,0.5,0.3,1.1-0.3,1.3c-0.6,0.3-0.8-0.4-1.2-0.7c-0.8-0.7-1.5-1.5-2.3-2.3c-1.3-1.2-3.1-1.3-4.4-0.2c-1.3,1.2-1.4,3-0.2,4.4
					c1.9,2.3,3.8,4.6,5.7,6.9c0.6,0.7,1.2,1.5,2.1,2c1.7,1.1,2.5,2.6,2.5,4.7c0,1.6,0.3,1.9,1.9,1.9c3.3,0,6.5,0,9.8,0
					c3.4,0,3.4,0.1,3.3-3.4c0-1.4,0.3-2.5,1.4-3.5c0.9-0.8,1.3-2.2,1.3-3.4c0-1.7,0-3.5,0-5.2C79.4,75.8,79.5,75,79.4,74.2z"/>
				<path class="st8" d="M74.4,92.7c-0.2,0-0.4,0-0.7,0l-0.3,0c-2,0-3.9,0-5.9,0c-1.3,0-2.6,0-4,0c-0.9,0-1.6-0.1-2-0.5
					c-0.4-0.5-0.5-1.1-0.5-2c0-1.9-0.7-3.2-2.2-4.1c-0.9-0.5-1.5-1.3-2.1-2.1l-0.1-0.1c-1.9-2.3-3.8-4.6-5.7-6.9
					c-1.4-1.7-1.3-3.9,0.3-5.3c1.5-1.3,3.7-1.2,5.2,0.2c0.4,0.4,0.8,0.7,1.1,1.1c0.4,0.4,0.8,0.8,1.2,1.2c0.1,0.1,0.2,0.2,0.3,0.3
					c0,0,0.1,0.1,0.1,0.1c0-0.1,0-0.2,0-0.2c0-0.2,0-0.3,0-0.4c0-2.7,0-5.5,0-8.2c0-2.8,0-5.6,0-8.4c0-1.4,0.6-2.7,1.7-3.4
					c1-0.7,2.2-0.8,3.4-0.4c1.5,0.6,2.4,2,2.4,3.7v0.2c0,2.9,0,5.9,0,8.8c0,0.2,0,0.3,0,0.3c0,0,0.1,0,0.3,0c2.1,0,2.9,0.5,3.7,2.2
					c2.1-0.7,3.7,0.3,4.5,1.2c0.6-0.2,1.5-0.3,2.6,0.2c0.9,0.4,1.3,0.9,1.7,1.6c0.4,0.6,0.5,1.4,0.6,2.4l0,0c0,0.5,0,1,0,1.5
					c0,0.3,0,0.6,0,0.9l0,5.2c0,1.6-0.5,3.1-1.5,3.9c-0.8,0.7-1.2,1.6-1.1,2.9c0.1,1.9,0.1,2.9-0.5,3.5
					C76.4,92.6,75.7,92.7,74.4,92.7z M70.2,91.4c1.1,0,2.2,0,3.2,0l0.3,0c1.1,0,2,0,2.2-0.2c0.2-0.2,0.2-1.3,0.2-2.5
					c0-1.7,0.5-3,1.6-4c0.9-0.8,1-2.3,1-2.9l0-5.2c0-0.3,0-0.6,0-1c0-0.5,0-1,0-1.4l0,0c0-0.8-0.2-1.4-0.4-1.8
					c-0.3-0.6-0.6-0.8-1.1-1.1c-1-0.5-1.9,0-2,0l-0.5,0.3l-0.3-0.5c-0.1-0.1-1.4-2-3.9-0.9L70,70.5l-0.2-0.7c-0.7-1.8-1-2-2.7-2
					c-0.3,0-0.9,0-1.2-0.4c-0.4-0.4-0.4-0.9-0.4-1.2c0-2.9,0-5.9,0-8.8l0-0.2c0-1.2-0.6-2.1-1.6-2.5c-0.8-0.3-1.6-0.2-2.2,0.2
					c-0.7,0.5-1.1,1.3-1.1,2.3c0,2.8,0,5.6,0,8.4c0,2.7,0,5.5,0,8.2c0,0.1,0,0.2,0,0.3c0.1,0.4,0.2,1.2-0.7,1.6
					c-0.9,0.4-1.5-0.3-1.7-0.6C58,75.1,58,75.1,57.9,75c-0.4-0.4-0.8-0.8-1.2-1.2c-0.4-0.4-0.7-0.7-1.1-1.1c-1.1-1-2.5-1.1-3.5-0.2
					c-1.1,1-1.1,2.4-0.2,3.6c1.9,2.3,3.8,4.6,5.7,6.9l0.1,0.1c0.6,0.7,1.1,1.3,1.8,1.8c1.9,1.2,2.8,2.9,2.8,5.2c0,0.6,0,1,0.2,1.1
					s0.5,0.2,1.1,0.2c1.3,0,2.6,0,3.9,0C68.4,91.4,69.3,91.4,70.2,91.4z"/>
			</g>
		</g>
	</g>
</g>
</svg>
