<svg xmlns="http://www.w3.org/2000/svg" width="14.715" height="14.567" viewBox="0 0 14.715 14.567">
  <g id="Group_860" data-name="Group 860" transform="translate(0.382 0.382)">
    <path id="Path_3551" data-name="Path 3551" d="M421.032,398.541a2.9,2.9,0,0,1,2.6-3.133v-2.087a1.559,1.559,0,0,0-1.4-1.682H411.078a1.559,1.559,0,0,0-1.4,1.682v2.087a3.187,3.187,0,0,1,0,6.266v2.087a1.559,1.559,0,0,0,1.4,1.681h11.158a1.559,1.559,0,0,0,1.4-1.681v-2.087A2.9,2.9,0,0,1,421.032,398.541Z" transform="translate(-409.682 -391.639)" fill="none" stroke="#020202" stroke-linejoin="round" stroke-width="0.764"/>
    <ellipse id="Ellipse_190" data-name="Ellipse 190" cx="1.136" cy="1.369" rx="1.136" ry="1.369" transform="translate(4.123 3.466)" fill="none" stroke="#020202" stroke-linejoin="round" stroke-width="0.764"/>
    <ellipse id="Ellipse_191" data-name="Ellipse 191" cx="1.136" cy="1.369" rx="1.136" ry="1.369" transform="translate(7.556 7.601)" fill="none" stroke="#020202" stroke-linejoin="round" stroke-width="0.764"/>
    <line id="Line_1194" data-name="Line 1194" x1="5.705" y2="6.872" transform="translate(4.123 3.466)" fill="none" stroke="#020202" stroke-linejoin="round" stroke-width="0.764"/>
  </g>
</svg>
