<svg id="Group_1514" data-name="Group 1514" xmlns="http://www.w3.org/2000/svg" width="12.347" height="13.892" viewBox="0 0 12.347 13.892">
  <g id="Group_1513" data-name="Group 1513">
    <path id="Path_3573" data-name="Path 3573" d="M204.156,394.22c-.371,0-.724,0-1.077,0-.295,0-.471-.151-.467-.391s.188-.386.478-.386q5.7,0,11.4,0c.3,0,.468.145.466.391s-.165.385-.468.386h-1.035a.466.466,0,0,0-.034.279q0,4.984,0,9.968c0,.447-.112.554-.562.554q-4.059,0-8.119,0c-.485,0-.584-.1-.584-.579V394.22Zm8.467,10.014v-10h-7.668v10Z" transform="translate(-202.612 -391.129)" fill="#fff"/>
    <path id="Path_3574" data-name="Path 3574" d="M208.792,391.906q-.936,0-1.872,0c-.276,0-.448-.149-.453-.382a.4.4,0,0,1,.444-.394q1.874,0,3.745,0a.4.4,0,0,1,.455.386c0,.239-.177.388-.47.388q-.924,0-1.849,0Z" transform="translate(-202.612 -391.129)" fill="#fff"/>
    <path id="Path_3575" data-name="Path 3575" d="M208.017,399.263q0,1.109,0,2.217c0,.28-.142.45-.375.458s-.4-.176-.4-.46q0-2.252,0-4.5a.387.387,0,0,1,.392-.441c.244,0,.384.161.385.444Q208.019,398.12,208.017,399.263Z" transform="translate(-202.612 -391.129)" fill="#fff"/>
    <path id="Path_3576" data-name="Path 3576" d="M210.329,399.264c0,.739,0,1.478,0,2.217,0,.284-.141.451-.375.457a.411.411,0,0,1-.4-.463q0-2.252,0-4.5c0-.279.151-.44.393-.439s.383.161.383.444q0,1.145,0,2.287Z" transform="translate(-202.612 -391.129)" fill="#fff"/>
  </g>
</svg>
